<svg xmlns="http://www.w3.org/2000/svg" viewBox="-1668.2 1243.1 85.9 81.1"><title>Spinner-3</title><path d="M-1607.4 1314.6c-.6 0-1.1.5-1.1 1.1 0 .6.5 1.1 1.1 1.1.6 0 1.1-.5 1.1-1.1 0-.6-.5-1.1-1.1-1.1m-6.2 3.4c-.6 0-1.1.5-1.1 1.1 0 .6.5 1.1 1.1 1.1.6 0 1.1-.5 1.1-1.1.1-.6-.4-1.1-1.1-1.1m-7 1.5c-.9 0-1.6.7-1.6 1.6 0 .9.7 1.6 1.6 1.6.9 0 1.6-.7 1.6-1.6 0-.9-.7-1.6-1.6-1.6m-6.9 4.3c-4.5 1.9-18.7-3.8-20.9-5-9.9-5.7-17.1-15.6-19.2-26.9-2.4-12.6 1.7-25.9 10.4-35.4 9.7-10.4 24.5-15.3 38.5-12.8 20.5 3.5 34.9 22.3 36.3 42.5.4 5.2-3.6 9.6-8.7 10s-9.6-3.6-10-8.7v-1.3-1.4-.8c-.1-12.4-11-23.5-22.8-25.7-33.5-6.2-45.8 42.9-17.4 57.8.3.2.6.4 1 .5.3.2.6.3 1 .4.6.3 1.2.6 1.8.8 1.2.5 2.4.8 3.4 1.2 1 .2 1.9.5 2.7.7.4.1.8.2 1.2.2.4.1.7.1 1 .1 1.2.2 1.9.3 1.9.3.8.1 1.4.9 1.3 1.7-.2.9-.7 1.5-1.5 1.8"/></svg>
