<svg data-name="Layer 1" xmlns="http://www.w3.org/2000/svg" viewBox="0 0 41.03 41.03"><defs><linearGradient id="a" data-name="New Gradient Swatch 1" x1="2.17" y1="22.3" x2="38.33" y2="22.3" gradientUnits="userSpaceOnUse"><stop offset="0" stop-color="#bbd6e3"/><stop offset=".33" stop-color="#9fc3d6"/><stop offset=".56" stop-color="#8fbace"/><stop offset=".76" stop-color="#6ba3be"/><stop offset=".91" stop-color="#5195b4"/></linearGradient></defs><path d="M39.59 19.83a18.89 18.89 0 1 1-37.77 0 18.89 18.89 0 0 1 37.77 0Z" style="fill:#fff"/><path d="M21.11 40.27c9.85 0 14.18-6.91 17.22-11.48-2.15.42-7.16 3.5-8.65 2.47-1.88-1.31 3.01-3.97 2.55-7.51-.55-4.23-9.87-1.21-11.41-2.69-1.54-1.48 1.84-.89 3.08-4 1.04-2.63-4.13-2.36-5.49-2.88-1.36-.52 1.68-1.89 1.68-3.26s-.36-1.27-2.73-2.31c-1.79-.78.94-3.12.71-4.12-.24-1-2.88 2.94-2.72 4.05.16 1.11 2.12 1.11 2.96 2.15 1.06 1.32-3.27 1.73-2.47 3.53.8 1.8 4.82.73 5.42 2.84.61 2.11-9.83 1.38-8.35 3.87 1.48 2.5 10.18 1.92 11.71 4.13 1.27 1.85-1.55 5.1-5.03 5.83-4.45.94-7.67.28-9.49 0-2.64-.41-5-1.3-7.62-2.46-2.36.4 9.19 11.83 18.63 11.83Z" style="fill:url(#a)"/><path d="M20.52 41.03C9.2 41.03 0 31.83 0 20.52S9.2 0 20.52 0s20.52 9.2 20.52 20.52-9.2 20.52-20.52 20.52Zm0-38.88C10.39 2.16 2.16 10.4 2.16 20.52s8.23 18.36 18.36 18.36 18.36-8.24 18.36-18.36S30.64 2.16 20.52 2.16Z" style="fill:#6d6e71"/></svg>