<svg viewBox="0 0 41 41" xmlns="http://www.w3.org/2000/svg" xml:space="preserve" style="fill-rule:evenodd;clip-rule:evenodd;stroke-linejoin:round;stroke-miterlimit:2"><path d="M38.99 22.75c-1.17 0-2.8-1.88-2.8-1.88s-1.17 1.91-3.03 1.88c-1.56-.02-2.79-1.88-2.79-1.88s-1.63 1.88-3.03 1.88c-1.61 0-2.87-1.88-2.87-1.88s-1.03 1.85-2.89 1.88c-1.86.02-3.01-1.88-3.01-1.88s-1.32 1.94-3.01 1.88c-1.69-.06-2.83.02-2.83.02v8.51l4.02 6.48s4.05.79 9.41.79 10.01-6.47 10.01-6.47 5.16-5.72 2.81-9.33h.01Z" style="fill:url(#a);fill-rule:nonzero"/><path d="M20.6 40.75c-6.83.4-18.29-8.84-18.95-20.25 5.87 2.56 7.9-4.6 12.66-.62 6.84 5.7 6.98 17.74 15.9 17.55" style="fill:#bbd6e3;fill-rule:nonzero"/><path d="M17.38 23.59c.06-.36.17-1.14.33-1.74.21-.88.38-1.99.45-2.26.08-.5.18-1.27.59-.58.46.67-1.24 6.33-1.6 6.9a.9.9 0 0 1-.1.24l-.01.01c-.24.27-.14-1.73-.32-3.53-.07-.84-.15-1.51-.23-2.02-.08-.56.04-.83.05-.94.01-.28.37-.65.56-.03.2.55.27 2.76.28 3.95ZM19.43 31.01c0 .23 0 .42.04.54l.01-.01c.15.48.87-2.55 1.93-5.15.53-1.12.88-2.2 1.22-2.91.43-.7.36-1.16.4-1.33.1-.42-.25-1.21-.91-.3-.5.8-1.66 4.42-2.12 6.05v-.07c-.04-.19.23-1.73.26-2.97.09-1.49.32-3.22.4-3.55.12-.86.31-2.06-.69-1.23-.86.8-.82 9.54-.54 10.93Z" style="fill:#007ca1;fill-rule:nonzero"/><path d="M29.52 29.11c.07.01-.07-.31-.19-.54l.37.12.59.02c.21.27.68.85.76.83.1-.03.05-.08.08-.11.22-.31.46-.48.64-.57.47.09.85.2 1.14.34.51.51 1.4 1.38 1.5 1.36.07-.04-.81-1.2-.78-1.43.03-.24.69-.61.58-.78-.11-.17-.59.1-1.23-.14-.39-.15-1.13-.68-2-1.23a6.14 6.14 0 0 1-.6-1.41c-.06-.19 0-.15-.05-.16-.05 0-.44.54-.62.81l-.4-.21c-1.51-.74-3.63-.21-3.62.12-.02.13-.1 1.1 3.25 2.31.18.24.5.66.58.68v-.01Z" style="fill:#fff;fill-rule:nonzero"/><path d="m11.9 16.75-.12.06-.14.12c-.04.04-.09.1-.14.12.03-.04.08-.07.09-.12-.1.04-.21.06-.3.14l-.16.2c-.06.07-.11.12-.14.21l.01-.13.03-.08c-.07.08-.17.22-.22.33-.07.16-.06.33-.12.4s-.15.07-.19.13c-.04.06-.24.58-.38.85-.13.27-.23.72-.21.8.02.09.01.17.06.22.04.06.11.06.35.06.24.01.54-.07.66-.09.13-.02.24.01.26.07.01.06-.09.1-.18.12-.09.03-.16.03-.29.03-.14 0-.18.03-.32.07-.14.04-.29 0-.3.07-.01.07.65.34.6.37-.05.03-.21.01-.43-.06-.21-.07-.37-.04-.47-.15-.09-.11-.13-.27-.19-.31-.06-.04-.03.2-.08.19a.63.63 0 0 1-.22-.07c-.07-.04-.05-.3-.02-.47.03-.17.19-.31.36-.65.17-.34.38-.89.44-1.15.06-.26.08-.44.15-.56.06-.12.26-.21.38-.33a.62.62 0 0 0 .14-.21l-.05.03.04-.12c.01-.03.05-.05.04-.1-.02-.07-.16-.12-.21-.14l-.36-.13a.86.86 0 0 0-.23-.06c-.08-.02-.18-.05-.26-.05l-.19.02-.16.05c-.11.03-.19.01-.27-.07-.07-.07-.13-.15-.22-.18-.1-.03-.2-.02-.29-.05v-.05c-.04-.02-.09-.02-.14-.03l-.15-.06c-.07-.02-.15-.02-.13-.12a2.41 2.41 0 0 0-.37-.16l-.02.02-1.18-.31-.8.07a.9.9 0 0 0-.1.03l-.35.1a.43.43 0 0 1-.25.02c-.08-.02-.17-.04-.25-.08a.4.4 0 0 1 .03-.11c-.05 0-.1 0-.11-.03-.03-.08.19-.13.23-.15l.34-.11.18-.07h.02-.24c-.14 0-.24 0-.24-.03.01-.07.21-.12.37-.17a1 1 0 0 1 .28-.03h.03a.9.9 0 0 1 .06-.07c-.23-.04-.6-.1-.64-.16-.06-.08.03-.1.2-.14.1-.02.24-.04.36-.04a.2.2 0 0 1-.04-.02c-.06-.04.06-.1.1-.1h.26c.14 0 1.3-.14 1.59-.17.01-.02.02-.04.01-.06-.04-.07-.13.02-.16-.02-.04-.03.02-.07.05-.1.01-.04.07-.08.19-.08l.93.05.47-.25c.34-.15 2.02-.97 2.88-1.07.5-.04.56 0 .93-.09.33-.08.9-.14 1.05-.24h.01a.07.07 0 0 0 .03-.04c.04-.13.06-.26.17-.44.1-.18.5-.6.66-.79l.02-.02V11c.16-.18.31-.41.57-.51.28-.09.52-.02.77.02.25.03.51.26.59.47.07.21-.02.33.01.43.01.04.04.1.08.15h.01c.04.02.33.41.57.56a12.1 12.1 0 0 1 1.79 1.57c.15.15.27.28.26.32 0 .04-.08.02-.08.02s.02.07-.06.07-1-.56-1.49-.91c-.49-.34-.65-.52-.85-.7a2.34 2.34 0 0 0-.34-.25 2.67 2.67 0 0 0-.32-.02.21.21 0 0 0-.17.17c-.02.1.01.28.03.52.02.24-.04.57-.18.81a18.72 18.72 0 0 1-.79 1c-.04.1-.12.24-.16.31-.09.14-.2.33-.34.44-.13.1-.16.23-.27.34-.06.06-.14.11-.21.16l-.2.1c-.15.08-.32.15-.49.2-.15.05-.3.06-.46.09a.47.47 0 0 1-.07.09.78.78 0 0 1-.32.18c-.08.04-.18.05-.26.08-.06.02-.1.07-.14.13-.05.09-.08.19-.14.27v.01a1.4 1.4 0 0 0-.03.44c.05.11.05.1.05.22-.01.12-.04.14-.04.25-.01.11.28 1.75.48 1.91.2.17.23.15.42.2.19.05.89.21.92.27.03.06-.59-.02-.8-.06-.2-.04-.19-.07-.36-.07-.16 0 .33.27.38.35.05.08-.32-.04-.43-.09-.11-.05-.17-.16-.26-.22-.17-.11-.25-.1-.33-.2-.08-.11-.2-.96-.3-1.53-.1-.56-.26-.85-.26-.96.01-.1.08-.31.15-.46.06-.12.1-.34.12-.42h-.09Z" style="fill:#3088aa;fill-rule:nonzero"/><path d="M20.52 41.03A20.53 20.53 0 0 1 0 20.52C0 9.21 9.2 0 20.52 0s20.52 9.2 20.52 20.52a20.54 20.54 0 0 1-20.52 20.52v-.01Zm0-38.87A18.38 18.38 0 0 0 2.16 20.52a18.39 18.39 0 0 0 18.36 18.36 18.39 18.39 0 0 0 18.36-18.36A18.39 18.39 0 0 0 20.52 2.16Z" style="fill:#6d6e71;fill-rule:nonzero"/><defs><linearGradient id="a" x1="0" y1="0" x2="1" y2="0" gradientUnits="userSpaceOnUse" gradientTransform="rotate(-120 26.33 9.27) scale(21.44)"><stop offset="0" style="stop-color:#007198;stop-opacity:1"/><stop offset=".24" style="stop-color:#007198;stop-opacity:1"/><stop offset=".35" style="stop-color:#3088aa;stop-opacity:1"/><stop offset=".46" style="stop-color:#5195b4;stop-opacity:1"/><stop offset=".73" style="stop-color:#85b2ca;stop-opacity:1"/><stop offset="1" style="stop-color:#85b2ca;stop-opacity:1"/></linearGradient></defs></svg>