<?xml version="1.0" encoding="UTF-8"?>
<svg id="Layer_2" data-name="Layer 2" xmlns="http://www.w3.org/2000/svg" viewBox="0 0 196.69 46.66">
  <defs>
    <style>
      .cls-1 {
        fill: #578e40;
      }

      .cls-1, .cls-2, .cls-3, .cls-4, .cls-5 {
        stroke-width: 0px;
      }

      .cls-2 {
        fill: #f5933b;
      }

      .cls-3 {
        fill: #183c68;
      }

      .cls-4 {
        fill: #fff;
      }

      .cls-5 {
        fill: #864198;
      }
    </style>
  </defs>
  <g id="Layer_1-2" data-name="Layer 1">
    <g>
      <path class="cls-4" d="M23.06,46.66c-.07,0-.3,0-.3,0-3.42-.04-6.69-.81-9.74-2.29-.44-.21-.9-.46-1.41-.75-2.45-1.4-4.6-3.22-6.38-5.39-1.19-1.45-2.2-3.04-3-4.73-.55-1.15-1.01-2.38-1.36-3.64-.37-1.32-.62-2.65-.75-3.98-.06-.62-.1-1.29-.11-1.97,0,0,0-.23,0-.3V3.68C0,1.65,1.65,0,3.68,0h24.9c6.79,0,12.95,3.76,16.07,9.8,1.33,2.58,2.01,5.36,2.01,8.27v24.9c0,2.03-1.65,3.68-3.68,3.68h-19.91Z"/>
      <path class="cls-4" d="M43.72,10.34c-2.82-5.47-8.52-9.21-15.09-9.21H3.72c-1.43,0-2.59,1.16-2.59,2.59v19.92c0,.1,0,.19,0,.29,0,.63.04,1.26.1,1.88.13,1.3.37,2.57.72,3.79.34,1.2.77,2.36,1.3,3.47.77,1.62,1.73,3.13,2.86,4.51,1.69,2.06,3.75,3.8,6.08,5.14.44.25.88.49,1.34.71,2.81,1.36,5.95,2.14,9.27,2.18.1,0,.19,0,.29,0h19.91c1.43,0,2.59-1.16,2.59-2.59v-24.9c0-2.8-.68-5.44-1.88-7.77Z"/>
      <path class="cls-3" d="M3.62,26.09s.28.03.58-.01c.19-.03.37-.1.53-.2-.07-.02-.14-.04-.22-.05-.12-.02-.26-.03-.3-.14-.03-.07.01-.15.05-.21.18-.29.43-.54.69-.79.13-.13.26-.26.4-.38.18-.15.36-.3.54-.43H1.1c0,.63.04,1.26.1,1.88.3.04.55.08.65.1.38.07-.04-.01,1.77.22Z"/>
      <path class="cls-3" d="M3.24,33.01c.29-.18.59-.38.93-.41.05,0,.1,0,.15,0,.05,0,.09.03.14.05.32.14.64.28.92.47.14.09.27.21.45.19.02-.05.04-.1.05-.16.15-.03.27-.16.28-.31,0-.02,0-.03.01-.05.01-.01.03-.01.05-.02.14-.03.22-.2.15-.32.1,0,.2-.06.26-.14.06-.08.07-.19.03-.28.13-.06.21-.22.16-.34.06-.03.12-.06.17-.1.05-.04.08-.11.08-.17.13,0,.25-.12.25-.24.06.03.13.01.19-.03.05-.04.07-.11.05-.17.27.11.5.27.74.43.03-.06.08-.14.15-.13.02,0,.04.02.06.03.4.26.78.55,1.14.85.71-.13,1.3-.2,1.7-.24,1.3-.12,2.35-.08,3.57-.03.57.02,1.04.06,1.34.08.02,0,.04,0,.05.02s0,.03,0,.05c-.03.03-.08.08-.13.14-.08.1-.24.3-.39.65-.06.15-.22.57-.15.6.08.03.5-.54.95-.85.07-.05.18-.12.26-.08.08.03.08.15.08.16,0,.17-.18.31-.25.37-1.03.8-.92.93-1.93,1.49-.27.15-.65.35-1.13.55-.82.37-1.64.73-2.46,1.1-.03,0-.08.02-.11.03-.06.18-.12.35-.18.53-.1.3-.21.6-.36.88-.15.28-.35.55-.62.74-.04.03-.09.06-.14.05-.05-.01-.08-.07-.09-.12-.09-.26-.18-.52-.28-.78-.02-.06-.04-.12-.05-.18-.02-.16.05-.32.15-.45l.63-.37c-.98.37-1.81.58-2.42.71-.36.08-1.01.21-1.61.31,1.69,2.06,3.75,3.8,6.08,5.14-.08-.26-.16-.58-.26-.96-.3-1.15-.16-1.46-.27-1.76-.02-.05-.09-.21,0-.38,0,0,.02-.05.06-.1.22-.24,1.7.02,1.97.07.38.07-.04-.01,1.77.22.02,0,.28.03.58-.01.19-.03.37-.1.53-.2-.07-.02-.14-.04-.22-.05-.12-.02-.26-.03-.3-.14-.03-.07.01-.15.05-.21.18-.29.43-.54.69-.79.13-.13.26-.26.4-.38.4-.35.82-.65,1.29-.92.41-.23.8-.47,1.19-.72.29-.18.59-.38.93-.41.05,0,.1,0,.15,0,.05,0,.09.03.14.05.32.14.64.28.92.47.14.09.27.21.45.19.02-.05.04-.1.05-.16.15-.03.27-.16.28-.31,0-.02,0-.03.01-.05.01-.01.03-.01.05-.02.08-.02.13-.08.16-.15v-.14s0-.02,0-.03c0,0,0,0,0,0v-6.04s-.09.07-.14.11c-.67.56-.74.69-1.13.99-.64.47-.97.72-1.29.64-.4-.09-.56-.7-.88-1.91-.3-1.15-.16-1.46-.27-1.76-.02-.05-.09-.21,0-.38,0,0,.02-.05.06-.1.22-.24,1.7.02,1.97.07.37.07-.02,0,1.68.21v-3.75h-2.91c-.14.09-.3.19-.51.31-.27.15-.65.35-1.13.55-.82.37-1.64.73-2.46,1.1-.03,0-.08.02-.11.03-.06.18-.12.35-.18.53-.1.3-.21.6-.36.88-.15.28-.35.55-.62.74-.04.03-.09.06-.14.05-.05-.01-.08-.07-.09-.12-.09-.26-.18-.52-.28-.78-.02-.06-.04-.12-.05-.18-.02-.16.05-.32.15-.45l.63-.37c-.98.37-1.81.58-2.42.71-.73.16-2.63.52-3.01.5-.02,0-.12,0-.22.03-.16.06-.25.17-.29.22-.17.23-.31.49-.47.72-.16.24-.35.47-.59.63-.08.05-.17.1-.27.1-.1,0-.18-.05-.26-.11-.19-.12-.37-.25-.55-.38-.19-.14-.36-.3-.5-.49-.02-.02-.03-.05-.04-.07-.03-.07-.06-.16-.03-.23.01-.03.04-.06.07-.08.05-.04.1-.07.16-.1.05-.02.1-.04.15-.06.05-.02.06-.05.1-.08-1.31-.3-2.01-.02-2.34.19-.15.09-.36.27-.79.63-.67.56-.74.69-1.13.99-.13.09-.24.18-.35.25.34,1.2.77,2.36,1.3,3.47,0,0,.02,0,.02-.01Z"/>
      <path class="cls-3" d="M21.08,41.06s-.12,0-.22.03c-.16.06-.25.17-.29.22-.17.23-.31.49-.47.72-.16.24-.35.47-.59.63-.08.05-.17.1-.27.1-.1,0-.18-.05-.26-.11-.19-.12-.37-.25-.55-.38-.19-.14-.36-.3-.5-.49-.02-.02-.03-.05-.04-.07-.03-.07-.06-.16-.03-.23.01-.03.04-.06.07-.08.05-.04.1-.07.16-.1.05-.02.1-.04.15-.06.05-.02.06-.05.1-.08-1.31-.3-2.01-.02-2.34.19-.15.09-.36.27-.79.63-.67.56-.74.69-1.13.99-.22.16-.4.3-.56.4,2.81,1.36,5.95,2.14,9.27,2.18v-4.74c-.73.13-1.47.25-1.7.24Z"/>
      <path class="cls-2" d="M28.58,1.09h-4.7v11.43c1.54-2.31,3.36-4.25,5.37-5.71.75-.54,1.57-1.03,2.41-.96.66.06,1.28.46,1.85.93,1.47,1.21,2.72,2.93,4.14,4.24-.86.47-1.66,1.05-2.32,1.81-.31.35-.61.76-.67,1.26-.03.21,0,.43.04.62.1.38.27.65.41.87.22.33.38.62.33,1.02-.31,2.04-2.52,3.14-4.28,3.72-1.29.42-7.28,2.45-7.28,2.45h3.6c.61-.22,1.23-.44,1.83-.68,2.39-.98,6.25-2.19,6.83-5.03.03-.16.04-.35.04-.52-.01-.29-.08-.58-.21-.83-.1-.21-.25-.39-.39-.59-.3-.39-.53-.87-.3-1.35.56-1.05,1.61-1.86,2.64-2.52.01.01.03.02.04.03-.4.26-.79.55-1.16.87-.35.32-.67.67-.95,1.05-.26.36-.56.8-.41,1.26.15.45.53.77.74,1.2.12.21.18.45.22.69.03.24.03.49-.01.72-.34,1.96-2.14,3.21-3.79,4.05-1.26.62-2.56,1.15-3.87,1.64h3.83c1.65-.92,3.31-2.06,4.22-3.79.34-.65.58-1.44.55-2.22-.03-.85-.35-1.52-.93-2.12-.19-.21-.26-.29-.33-.44-.02-.04,0-.08,0-.13.04-.16.16-.35.25-.51.48-.8,1.16-1.47,1.91-2.05,0,0,0,0,0,0,.49-.35,1-.67,1.52-.97.75-.43,1.57-.82,2.41-.76.53.04,1.03.25,1.51.52-2.82-5.47-8.52-9.21-15.09-9.21Z"/>
      <path class="cls-1" d="M23.88,23.89v21.68h18.05c-.32-.24-1.65-1.3-2.15-1.43.34.37.75.68,1.19.91-.7-.11-1.16-.71-1.79-.97.12.16.27.29.45.4-.58-.13-1.08-.46-1.55-.8.22.23.45.44.7.62-.3-.07-.58-.2-.82-.38-.21-.16-.38-.38-.65-.44.07.09.16.15.26.2-.23,0-.44,0-.61-.09-1.42-.86-2.65-1.88-3.53-3.38-.03-.04-.06-.07-.09-.11-.12-.12-.15-.27-.22-.43l-.1-.11c-.49-.99-.75-2.04-.7-3.15.08-.78.33-1.49.75-2.14.42-.55.91-1.03,1.63-1.1.47-.01.81.29,1.19.53.28.16.63.21.9-.03.33-.3.47-.78.39-1.17-.12-.59-.65-.89-.71-.93-.29-.16-.43-.09-1.17-.33-.23-.07-.37-.13-.47-.17-.4-.14-1.04-.31-2.12-.42-.82,0-1.63.01-2.45.02-.11,0-.22,0-.34,0-.09,0-4.91-.29-5.08-.58.8-.17,1.56-.31,2.39-.45.04,0,3.61-.6,5.37-.8.15-.1.33-.16.48-.26.33-.16.66-.22.99-.35.11-.03.21-.06.32-.09.47-.08.9-.17,1.37-.18.75,0,1.53.22,2.19.61,1.54,1.4,3.72,2.09,5.77,1.57-.19.11-.24.13-.23.11-.33.13-.69.17-1.04.19-.49.02-.99.02-1.48-.08.87.49,1.88.66,2.87.67.28,0,.56,0,.85-.02-1.43.49-2.93-.06-4.29-.49-.39-.12-1.02-.37-1.44-.34.9,1.06,1.1,2.79.62,4.04-.28.67-.81,1.14-1.48,1.54-.73.43-2.17.68-2.62.78-.1.02-.2.08-.26.17-.23.31-.09.76.14,1.05.13.19.27.34.44.49.27.23.52.42.83.58.32.12.64.18.96.12.07-.03.15-.06.26-.09.14-.03.22-.17.33-.23.23-.2.42-.48.58-.76.32-.59.63-1.15,1.02-1.74.27-.38.64-.61,1.08-.77.07-.03.18-.06.26-.09,1.48-.47,3.03-.27,4.46.2v-11.55h-21.68Z"/>
      <g>
        <g>
          <path class="cls-3" d="M53.29,22.54c0-3.54,2.34-5.6,5.04-5.6,1.38,0,2.49.65,3.21,1.39l-1.27,1.55c-.54-.5-1.11-.85-1.89-.85-1.46,0-2.62,1.29-2.62,3.43s1.02,3.47,2.58,3.47c.88,0,1.57-.43,2.09-1l1.27,1.52c-.89,1.03-2.07,1.57-3.45,1.57-2.71,0-4.97-1.88-4.97-5.48Z"/>
          <path class="cls-3" d="M62.66,23.76c0-2.7,1.9-4.27,3.96-4.27s3.96,1.56,3.96,4.27-1.9,4.26-3.96,4.26-3.96-1.56-3.96-4.26ZM68.11,23.76c0-1.41-.5-2.32-1.49-2.32s-1.49.91-1.49,2.32.5,2.32,1.49,2.32,1.49-.91,1.49-2.32Z"/>
          <path class="cls-3" d="M72.23,19.69h1.97l.17,1.03h.06c.68-.66,1.5-1.23,2.61-1.23,1.77,0,2.52,1.25,2.52,3.28v5.05h-2.41v-4.74c0-1.17-.31-1.54-1.01-1.54-.61,0-.98.28-1.51.79v5.49h-2.41v-8.13Z"/>
          <path class="cls-3" d="M80.88,26.88l1.08-1.5c.74.56,1.42.85,2.1.85.72,0,1.03-.27,1.03-.7,0-.54-.81-.78-1.64-1.11-1-.39-2.15-1.05-2.15-2.39,0-1.51,1.23-2.55,3.11-2.55,1.25,0,2.17.5,2.87,1.03l-1.08,1.45c-.58-.42-1.15-.69-1.71-.69-.62,0-.93.24-.93.65,0,.52.76.72,1.6,1.02,1.03.38,2.19.96,2.19,2.45s-1.16,2.62-3.34,2.62c-1.07,0-2.3-.46-3.12-1.14Z"/>
          <path class="cls-3" d="M88.39,23.76c0-2.64,1.88-4.27,3.84-4.27,2.32,0,3.46,1.68,3.46,3.9,0,.43-.05.87-.1,1.06h-4.86c.22,1.18,1.02,1.72,2.11,1.72.61,0,1.17-.19,1.76-.53l.8,1.45c-.83.58-1.92.92-2.88.92-2.32,0-4.11-1.57-4.11-4.26ZM93.63,22.87c0-.89-.39-1.54-1.35-1.54-.76,0-1.42.51-1.58,1.54h2.93Z"/>
          <path class="cls-3" d="M97.35,19.69h1.97l.17,1.42h.06c.59-1.09,1.48-1.62,2.31-1.62.46,0,.73.06.97.16l-.4,2.08c-.29-.07-.53-.13-.88-.13-.61,0-1.36.4-1.79,1.5v4.71h-2.41v-8.13Z"/>
          <path class="cls-3" d="M103.13,19.69h2.42l1.06,3.84c.21.81.42,1.65.63,2.5h.07c.21-.85.42-1.69.63-2.5l1.06-3.84h2.31l-2.65,8.13h-2.78l-2.74-8.13Z"/>
          <path class="cls-3" d="M111.86,25.56c0-1.71,1.36-2.64,4.58-2.98-.05-.71-.4-1.18-1.29-1.18-.68,0-1.36.29-2.15.73l-.86-1.58c1.03-.63,2.19-1.07,3.47-1.07,2.08,0,3.23,1.19,3.23,3.68v4.65h-1.97l-.17-.83h-.06c-.68.6-1.45,1.03-2.37,1.03-1.48,0-2.42-1.08-2.42-2.45ZM116.44,25.46v-1.42c-1.71.23-2.27.72-2.27,1.34,0,.52.36.78.93.78s.91-.27,1.34-.7Z"/>
          <path class="cls-3" d="M120.91,24.86v-3.28h-1.11v-1.8l1.25-.09.28-2.16h1.99v2.16h1.95v1.89h-1.95v3.26c0,.92.42,1.29,1.05,1.29.27,0,.56-.08.77-.15l.38,1.75c-.43.14-1.02.3-1.81.3-2.01,0-2.81-1.27-2.81-3.15Z"/>
          <path class="cls-3" d="M126.67,17.24c0-.74.59-1.26,1.39-1.26s1.39.52,1.39,1.26-.59,1.26-1.39,1.26-1.39-.53-1.39-1.26ZM126.86,19.69h2.41v8.13h-2.41v-8.13Z"/>
          <path class="cls-3" d="M130.91,23.76c0-2.7,1.9-4.27,3.96-4.27s3.96,1.56,3.96,4.27-1.9,4.26-3.96,4.26-3.96-1.56-3.96-4.26ZM136.36,23.76c0-1.41-.5-2.32-1.49-2.32s-1.49.91-1.49,2.32.5,2.32,1.49,2.32,1.49-.91,1.49-2.32Z"/>
          <path class="cls-3" d="M140.48,19.69h1.97l.17,1.03h.06c.68-.66,1.5-1.23,2.61-1.23,1.77,0,2.52,1.25,2.52,3.28v5.05h-2.41v-4.74c0-1.17-.31-1.54-1.01-1.54-.61,0-.98.28-1.51.79v5.49h-2.41v-8.13Z"/>
        </g>
        <g>
          <path class="cls-3" d="M55.88,31.83l-3.35,10.68h2.47l.66-2.54h3.26l.66,2.54h2.56l-3.35-10.68h-2.89ZM56.15,38.09l.26-.99c.3-1.07.58-2.32.84-3.45h.07c.29,1.11.57,2.38.87,3.45l.26.99h-2.29Z"/>
          <path class="cls-3" d="M67.95,33.8l.09,1.23c-.55-.51-1.1-.85-1.99-.85-1.71,0-3.37,1.61-3.37,4.27s1.31,4.26,3.33,4.26c.78,0,1.59-.43,2.16-1h.06l.17.81h1.97v-11.48h-2.41v2.77ZM67.95,40.01c-.4.53-.81.73-1.33.73-.93,0-1.48-.72-1.48-2.32s.68-2.27,1.46-2.27c.44,0,.92.13,1.35.51v3.34Z"/>
          <path class="cls-3" d="M75.86,34.18c-1.28,0-2.44.44-3.47,1.07l.86,1.58c.79-.45,1.47-.73,2.15-.73.88,0,1.24.46,1.29,1.18-3.22.34-4.58,1.27-4.58,2.98,0,1.37.94,2.45,2.42,2.45.91,0,1.68-.43,2.37-1.03h.06l.17.83h1.97v-4.65c0-2.49-1.15-3.68-3.23-3.68ZM76.69,40.15c-.43.43-.79.7-1.34.7-.57,0-.93-.26-.93-.78,0-.61.56-1.1,2.27-1.34v1.42Z"/>
          <path class="cls-3" d="M85.63,34.18c-.85,0-1.68.43-2.32,1h-.06l-.17-.8h-1.97v11.15h2.41v-2.38l-.08-1.29c.58.54,1.24.85,1.94.85,1.76,0,3.42-1.6,3.42-4.39,0-2.51-1.2-4.13-3.17-4.13ZM84.82,40.73c-.41,0-.86-.13-1.3-.51v-3.34c.48-.51.9-.73,1.4-.73.96,0,1.41.73,1.41,2.19,0,1.68-.67,2.39-1.51,2.39Z"/>
          <path class="cls-3" d="M93.87,40.82c-.63,0-1.05-.37-1.05-1.29v-3.26h1.95v-1.89h-1.95v-2.16h-1.99l-.28,2.16-1.25.09v1.8h1.11v3.28c0,1.88.8,3.15,2.81,3.15.79,0,1.37-.16,1.81-.3l-.38-1.75c-.21.08-.51.15-.77.15Z"/>
          <path class="cls-3" d="M99.42,34.18c-1.28,0-2.44.44-3.47,1.07l.86,1.58c.79-.45,1.47-.73,2.15-.73.88,0,1.24.46,1.29,1.18-3.22.34-4.58,1.27-4.58,2.98,0,1.37.94,2.45,2.42,2.45.91,0,1.68-.43,2.37-1.03h.06l.17.83h1.97v-4.65c0-2.49-1.15-3.68-3.23-3.68ZM100.24,40.15c-.43.43-.79.7-1.34.7-.57,0-.93-.26-.93-.78,0-.61.56-1.1,2.27-1.34v1.42Z"/>
          <path class="cls-3" d="M108.17,40.82c-.63,0-1.05-.37-1.05-1.29v-3.26h1.95v-1.89h-1.95v-2.16h-1.99l-.28,2.16-1.25.09v1.8h1.11v3.28c0,1.88.8,3.15,2.81,3.15.79,0,1.38-.16,1.81-.3l-.38-1.75c-.21.08-.5.15-.77.15Z"/>
          <rect class="cls-3" x="110.66" y="34.38" width="2.41" height="8.13"/>
          <path class="cls-3" d="M111.86,30.67c-.81,0-1.39.52-1.39,1.26s.59,1.26,1.39,1.26,1.39-.53,1.39-1.26-.59-1.26-1.39-1.26Z"/>
          <path class="cls-3" d="M118.67,34.18c-2.06,0-3.96,1.56-3.96,4.27s1.9,4.26,3.96,4.26,3.96-1.56,3.96-4.26-1.9-4.27-3.96-4.27ZM118.67,40.76c-1,0-1.49-.91-1.49-2.32s.5-2.32,1.49-2.32,1.49.91,1.49,2.32-.5,2.32-1.49,2.32Z"/>
          <path class="cls-3" d="M129.09,34.18c-1.11,0-1.93.57-2.61,1.23h-.06l-.17-1.03h-1.97v8.13h2.41v-5.49c.53-.51.9-.79,1.51-.79.7,0,1.01.37,1.01,1.54v4.74h2.41v-5.05c0-2.03-.75-3.28-2.52-3.28Z"/>
          <path class="cls-3" d="M142.3,36.49l-1.36-.55c-.93-.37-1.63-.61-1.63-1.26,0-.61.53-.96,1.36-.96s1.51.3,2.22.84l1.22-1.52c-.92-.91-2.21-1.4-3.44-1.4-2.22,0-3.8,1.41-3.8,3.18,0,1.55,1.05,2.46,2.16,2.91l1.39.59c.93.38,1.54.6,1.54,1.27,0,.63-.49,1.03-1.5,1.03-.88,0-1.86-.45-2.62-1.12l-1.39,1.66c1.09,1.02,2.57,1.54,3.96,1.54,2.55,0,4.02-1.54,4.02-3.31,0-1.51-.81-2.38-2.12-2.91Z"/>
          <path class="cls-3" d="M149.37,40.82c-.63,0-1.05-.37-1.05-1.29v-3.26h1.95v-1.89h-1.95v-2.16h-1.99l-.28,2.16-1.25.09v1.8h1.11v3.28c0,1.88.8,3.15,2.81,3.15.79,0,1.38-.16,1.81-.3l-.38-1.75c-.21.08-.5.15-.77.15Z"/>
          <path class="cls-3" d="M154.06,35.8h-.06l-.17-1.42h-1.97v8.13h2.41v-4.71c.43-1.11,1.18-1.5,1.79-1.5.35,0,.59.06.88.13l.4-2.08c-.24-.1-.51-.16-.97-.16-.83,0-1.72.53-2.31,1.62Z"/>
          <path class="cls-3" d="M161.31,34.18c-1.28,0-2.44.44-3.47,1.07l.86,1.58c.79-.45,1.47-.73,2.15-.73.88,0,1.24.46,1.29,1.18-3.22.34-4.58,1.27-4.58,2.98,0,1.37.94,2.45,2.42,2.45.91,0,1.68-.43,2.37-1.03h.06l.17.83h1.97v-4.65c0-2.49-1.15-3.68-3.23-3.68ZM162.14,40.15c-.43.43-.79.7-1.34.7-.57,0-.93-.26-.93-.78,0-.61.56-1.1,2.27-1.34v1.42Z"/>
          <path class="cls-3" d="M170.06,40.82c-.63,0-1.05-.37-1.05-1.29v-3.26h1.95v-1.89h-1.95v-2.16h-1.99l-.28,2.16-1.25.09v1.8h1.11v3.28c0,1.88.8,3.15,2.81,3.15.79,0,1.37-.16,1.81-.3l-.38-1.75c-.21.08-.51.15-.77.15Z"/>
          <path class="cls-3" d="M175.62,34.18c-1.95,0-3.84,1.63-3.84,4.27s1.8,4.26,4.11,4.26c.96,0,2.05-.34,2.88-.92l-.8-1.45c-.59.35-1.14.53-1.76.53-1.09,0-1.89-.54-2.11-1.72h4.86c.05-.2.1-.63.1-1.06,0-2.22-1.15-3.9-3.46-3.9ZM174.09,37.56c.16-1.03.82-1.54,1.58-1.54.96,0,1.35.64,1.35,1.54h-2.93Z"/>
          <path class="cls-3" d="M184.93,40.98h-1.32c-.89,0-1.22-.19-1.22-.6,0-.29.08-.43.28-.61.36.11.7.16.99.16,1.78,0,3.2-.86,3.2-2.73,0-.43-.12-.83-.28-1.07h1.31v-1.76h-2.97c-.36-.13-.81-.2-1.26-.2-1.75,0-3.36.99-3.36,2.94,0,.95.52,1.71,1.09,2.11v.07c-.52.36-.91.94-.91,1.52,0,.67.32,1.1.74,1.38v.07c-.75.42-1.15.96-1.15,1.64,0,1.45,1.51,2.06,3.4,2.06,2.79,0,4.55-1.23,4.55-2.92,0-1.46-1.11-2.07-3.1-2.07ZM183.67,35.8c.64,0,1.11.46,1.11,1.32s-.48,1.35-1.11,1.35-1.11-.46-1.11-1.35.47-1.32,1.11-1.32ZM183.87,44.45c-1.09,0-1.8-.32-1.8-.93,0-.29.14-.54.44-.8.26.07.58.1,1.14.1h.84c.8,0,1.24.12,1.24.63,0,.56-.78,1-1.86,1Z"/>
          <path class="cls-3" d="M194.38,34.38l-.99,3.5c-.2.76-.38,1.54-.56,2.3h-.07c-.21-.8-.41-1.57-.64-2.3l-1.16-3.5h-2.42l3.14,7.92-.12.42c-.21.63-.63,1.07-1.42,1.07-.18,0-.4-.07-.55-.1l-.43,1.84c.33.1.65.16,1.16.16,1.91,0,2.78-1.05,3.55-3.09l2.82-8.22h-2.31Z"/>
        </g>
        <g>
          <path class="cls-3" d="M53.1,11.65l1.39-1.66c.76.66,1.74,1.12,2.62,1.12,1.01,0,1.5-.4,1.5-1.03,0-.67-.61-.89-1.54-1.27l-1.39-.59c-1.11-.45-2.16-1.36-2.16-2.91,0-1.77,1.58-3.18,3.8-3.18,1.23,0,2.52.48,3.44,1.4l-1.22,1.52c-.7-.54-1.37-.84-2.22-.84s-1.36.35-1.36.96c0,.66.7.89,1.63,1.26l1.36.55c1.3.53,2.12,1.4,2.12,2.91,0,1.77-1.48,3.31-4.02,3.31-1.39,0-2.87-.53-3.96-1.54Z"/>
          <path class="cls-3" d="M62.23,8.93c0-2.7,1.9-4.27,3.96-4.27s3.96,1.56,3.96,4.27-1.9,4.26-3.96,4.26-3.96-1.56-3.96-4.26ZM67.68,8.93c0-1.41-.5-2.32-1.49-2.32s-1.49.91-1.49,2.32.5,2.32,1.49,2.32,1.49-.91,1.49-2.32Z"/>
          <path class="cls-3" d="M71.72,9.91v-5.05h2.41v4.74c0,1.17.31,1.54,1.01,1.54.61,0,.98-.25,1.45-.89v-5.38h2.41v8.13h-1.97l-.17-1.13h-.06c-.68.81-1.44,1.32-2.55,1.32-1.77,0-2.52-1.25-2.52-3.28Z"/>
          <path class="cls-3" d="M81.44,10.04v-3.28h-1.11v-1.8l1.25-.09.28-2.16h1.99v2.16h1.95v1.89h-1.95v3.26c0,.92.42,1.29,1.05,1.29.27,0,.56-.08.77-.15l.38,1.75c-.43.14-1.02.3-1.81.3-2.01,0-2.81-1.27-2.81-3.15Z"/>
          <path class="cls-3" d="M87.39,1.51h2.41v2.81l-.11,1.47c.61-.56,1.4-1.12,2.51-1.12,1.77,0,2.52,1.25,2.52,3.28v5.05h-2.41v-4.74c0-1.17-.31-1.54-1.01-1.54-.61,0-.98.28-1.51.79v5.49h-2.41V1.51Z"/>
          <path class="cls-3" d="M96.28,8.93c0-2.64,1.88-4.27,3.84-4.27,2.32,0,3.46,1.68,3.46,3.9,0,.43-.05.87-.1,1.06h-4.86c.22,1.18,1.02,1.72,2.11,1.72.61,0,1.17-.19,1.76-.53l.8,1.45c-.83.58-1.92.92-2.88.92-2.32,0-4.11-1.57-4.11-4.26ZM101.52,8.04c0-.89-.39-1.54-1.35-1.54-.76,0-1.42.51-1.58,1.54h2.93Z"/>
          <path class="cls-3" d="M104.69,10.74c0-1.71,1.36-2.64,4.58-2.98-.05-.71-.4-1.18-1.29-1.18-.68,0-1.36.29-2.15.73l-.86-1.58c1.03-.63,2.19-1.07,3.47-1.07,2.08,0,3.23,1.19,3.23,3.68v4.65h-1.97l-.17-.83h-.06c-.68.6-1.45,1.03-2.37,1.03-1.48,0-2.42-1.08-2.42-2.45ZM109.26,10.63v-1.42c-1.71.23-2.27.72-2.27,1.34,0,.52.36.78.93.78s.91-.27,1.34-.7Z"/>
          <path class="cls-3" d="M112.98,12.06l1.08-1.5c.74.56,1.42.85,2.1.85.72,0,1.03-.27,1.03-.7,0-.54-.81-.78-1.64-1.11-1-.39-2.15-1.05-2.15-2.39,0-1.51,1.23-2.55,3.11-2.55,1.25,0,2.17.5,2.87,1.03l-1.08,1.45c-.58-.42-1.15-.69-1.71-.69-.62,0-.93.24-.93.65,0,.52.76.72,1.6,1.02,1.03.38,2.19.96,2.19,2.45s-1.16,2.62-3.34,2.62c-1.07,0-2.3-.46-3.12-1.14Z"/>
          <path class="cls-3" d="M120.96,10.04v-3.28h-1.11v-1.8l1.25-.09.28-2.16h1.99v2.16h1.95v1.89h-1.95v3.26c0,.92.42,1.29,1.05,1.29.27,0,.56-.08.77-.15l.38,1.75c-.43.14-1.02.3-1.81.3-2.01,0-2.81-1.27-2.81-3.15Z"/>
        </g>
      </g>
      <g>
        <path class="cls-5" d="M11.1,1.93c.13-.02.54-.37.67-.6.04-.07.08-.16.11-.24h-1.47c.03.09.07.17.11.24.12.21.31.41.57.6Z"/>
        <path class="cls-5" d="M1.32,7.68c.52-.66,1.36-1.1,2.36-1.24.19-.02.37-.04.56-.04.7,0,1.39.17,2.06.49.66.32,1.24.77,1.79,1.36.33.36.7.76,1.15,1.1l.19.14.12-.13-.14-.19c-.33-.44-.74-.82-1.1-1.15-.59-.55-1.04-1.13-1.36-1.79-.41-.84-.57-1.75-.46-2.62.13-1,.57-1.84,1.23-2.36.08-.07.18-.12.27-.18H3.69c-1.43,0-2.59,1.16-2.59,2.59v4.36c.07-.12.13-.25.22-.36Z"/>
        <path class="cls-5" d="M1.98,11.16c-.18-.37-.39-.56-.59-.68-.08-.04-.18-.09-.29-.13v1.5c.11-.04.21-.08.29-.13.23-.13.58-.54.59-.56Z"/>
        <path class="cls-5" d="M16.91,1.09h-2.61c.09.06.18.11.27.17.67.52,1.1,1.36,1.24,2.36.12.87-.04,1.78-.45,2.62-.32.66-.77,1.24-1.36,1.79-.36.33-.76.71-1.1,1.15l-.13.18.13.13.18-.13c.44-.33.82-.74,1.15-1.1.55-.59,1.13-1.04,1.79-1.36.67-.33,1.36-.49,2.06-.49.19,0,.37.01.56.04,1,.13,1.84.57,2.36,1.24.54.69.76,1.63.59,2.59v.04s-.09-.01-.13-.01c-.2,0-.4.1-.53.18-.21.12-.41.31-.6.57.02.13.37.54.6.67.13.08.33.18.53.18.04,0,.08,0,.12-.01v.04c.17.95-.04,1.9-.58,2.59-.52.67-1.36,1.1-2.36,1.24-.19.03-.38.04-.57.04-.7,0-1.39-.17-2.05-.49-.66-.32-1.24-.76-1.79-1.36-.4-.43-.74-.79-1.15-1.1l-.17-.12-.13.13.12.17c.33.44.74.82,1.1,1.15.59.55,1.04,1.13,1.36,1.79.41.84.57,1.75.45,2.62-.13,1-.57,1.84-1.24,2.36-.53.41-1.23.64-1.96.64-.21,0-.42-.02-.63-.05h-.04c.05-.24-.06-.48-.16-.66-.13-.23-.55-.58-.56-.59-.37.19-.56.39-.68.59-.11.18-.21.42-.16.65h-.04c-.2.04-.41.06-.62.06-.74,0-1.43-.23-1.97-.65-.66-.52-1.1-1.36-1.23-2.36-.11-.87.04-1.78.46-2.62.32-.65.77-1.24,1.36-1.79.36-.33.76-.7,1.1-1.15l.13-.18-.13-.13-.18.13c-.41.31-.75.66-1.15,1.1-.55.59-1.13,1.04-1.79,1.36-.66.33-1.36.49-2.05.49-.19,0-.38-.01-.57-.04-1-.13-1.84-.57-2.36-1.24-.09-.11-.15-.24-.22-.36v8.62h21.68V1.09h-5.87Z"/>
      </g>
      <g>
        <g id="_Radial_Repeat_" data-name="&amp;lt;Radial Repeat&amp;gt;">
          <circle class="cls-5" cx="11.05" cy="12.7" r=".36"/>
        </g>
        <g id="_Radial_Repeat_-2" data-name="&amp;lt;Radial Repeat&amp;gt;">
          <circle class="cls-5" cx="9.84" cy="12.01" r=".36"/>
        </g>
        <g id="_Radial_Repeat_-3" data-name="&amp;lt;Radial Repeat&amp;gt;">
          <circle class="cls-5" cx="9.62" cy="10.64" r=".36"/>
        </g>
        <g id="_Radial_Repeat_-4" data-name="&amp;lt;Radial Repeat&amp;gt;">
          <circle class="cls-5" cx="10.55" cy="9.62" r=".36"/>
        </g>
        <g id="_Radial_Repeat_-5" data-name="&amp;lt;Radial Repeat&amp;gt;">
          <circle class="cls-5" cx="11.94" cy="9.71" r=".36"/>
        </g>
        <g id="_Radial_Repeat_-6" data-name="&amp;lt;Radial Repeat&amp;gt;">
          <circle class="cls-5" cx="12.73" cy="10.84" r=".36"/>
        </g>
        <g id="_Radial_Repeat_-7" data-name="&amp;lt;Radial Repeat&amp;gt;">
          <circle class="cls-5" cx="12.34" cy="12.18" r=".36"/>
        </g>
      </g>
      <g>
        <circle class="cls-5" cx="11.19" cy="10.41" r=".36"/>
        <circle class="cls-5" cx="11.67" cy="11.38" r=".36"/>
        <circle class="cls-5" cx="10.59" cy="11.32" r=".36"/>
      </g>
    </g>
  </g>
</svg>