<svg viewBox="0 0 48 48" xmlns="http://www.w3.org/2000/svg" xml:space="preserve">
    <path
        d="M23.727 48h-.309c-3.519-.041-6.883-.833-10.022-2.356-.452-.216-.926-.473-1.45-.771a23.67 23.67 0 0 1-6.565-5.545c-1.224-1.492-2.264-3.127-3.087-4.866-.566-1.183-1.039-2.448-1.399-3.744-.381-1.358-.638-2.727-.772-4.095-.062-.638-.103-1.327-.113-2.026V3.786C0 1.697 1.697 0 3.786 0h25.621c6.986 0 13.325 3.868 16.535 10.081 1.368 2.655 2.068 5.514 2.068 8.508v25.615c0 2.088-1.698 3.786-3.787 3.786H23.737z"
        style="fill:#fff;" />
    <path
        d="M44.985 10.637c-2.902-5.627-8.767-9.475-15.527-9.475H3.827c-1.471 0-2.665 1.194-2.665 2.665v20.79c0 .648.042 1.296.103 1.934.134 1.338.381 2.644.741 3.899.35 1.235.792 2.428 1.338 3.57.792 1.666 1.78 3.22 2.943 4.639 1.738 2.119 3.858 3.909 6.255 5.288.453.257.906.504 1.379.73 2.892 1.399 6.122 2.202 9.538 2.243h20.785c1.471 0 2.665-1.193 2.665-2.665V18.64c0-2.88-.7-5.596-1.934-7.993z"
        style="fill:#fff;" />
    <path
        d="M3.724 26.839s.289.031.597-.01c.196-.031.381-.103.546-.206-.072-.02-.144-.041-.227-.051-.123-.021-.267-.031-.308-.144-.031-.072.01-.155.051-.216.185-.299.442-.556.71-.813.134-.134.267-.267.412-.391.185-.154.37-.308.555-.442H1.132c0 .648.041 1.296.102 1.934.309.041.566.082.669.103.391.072-.041-.011 1.821.226zm-.391 7.119c.299-.185.608-.391.957-.422h.155c.051 0 .092.031.144.052.329.144.658.288.946.483.144.093.278.216.463.196.021-.052.042-.103.052-.165.154-.031.278-.165.288-.319 0-.02 0-.031.01-.051.011-.011.031-.011.052-.021.144-.031.226-.206.154-.329.103 0 .206-.062.268-.144a.29.29 0 0 0 .03-.288c.134-.062.217-.226.165-.35.062-.031.124-.062.175-.103s.082-.113.082-.175c.134 0 .258-.123.258-.247.061.031.133.011.195-.03.051-.042.072-.114.051-.175.278.113.515.277.762.442.031-.062.082-.144.154-.134.021 0 .041.021.062.031.412.268.803.566 1.173.875.731-.134 1.338-.206 1.749-.247 1.338-.124 2.418-.083 3.673-.031.587.02 1.071.062 1.379.082.021 0 .041 0 .052.021.01.02 0 .031 0 .051-.031.031-.083.082-.134.144-.082.103-.247.309-.401.669-.062.154-.227.586-.155.617.083.031.515-.555.978-.874.072-.052.185-.124.267-.083.083.031.083.155.083.165 0 .175-.186.319-.258.381-1.059.823-.946.956-1.985 1.532-.278.155-.669.36-1.163.566-.844.381-1.688.751-2.531 1.132-.031 0-.083.02-.114.031-.061.185-.123.36-.185.545-.103.308-.216.617-.37.905s-.36.566-.638.761c-.041.031-.093.062-.144.052-.052-.011-.082-.072-.093-.124-.092-.267-.185-.535-.288-.802-.02-.062-.041-.124-.051-.185-.021-.165.051-.329.154-.463l.648-.381c-1.008.381-1.862.597-2.49.731-.37.082-1.039.216-1.656.319 1.739 2.119 3.858 3.909 6.256 5.287-.083-.267-.165-.597-.268-.987-.309-1.183-.165-1.502-.278-1.811-.02-.051-.092-.216 0-.391 0 0 .021-.051.062-.103.226-.247 1.749.021 2.027.072.391.072-.041-.01 1.821.227.021 0 .288.03.597-.011.196-.031.381-.103.545-.205-.072-.021-.144-.042-.226-.052-.123-.02-.268-.031-.309-.144-.031-.072.011-.154.052-.216.185-.298.442-.555.71-.813.133-.133.267-.267.411-.391.412-.36.844-.668 1.328-.946.421-.237.823-.483 1.224-.741.298-.185.607-.391.957-.421h.154c.052 0 .093.03.144.051.33.144.659.288.947.483.144.093.278.217.463.196.021-.051.041-.103.051-.165.155-.031.278-.164.289-.319 0-.02 0-.03.01-.051.01-.01.031-.01.051-.021.083-.02.134-.082.165-.154v-6.388s-.093.072-.144.113c-.69.576-.762.71-1.163 1.018-.658.484-.998.741-1.327.659-.412-.093-.576-.72-.906-1.965-.308-1.183-.164-1.502-.277-1.811-.021-.051-.093-.216 0-.391 0 0 .02-.051.061-.102.227-.247 1.749.02 2.027.072.381.072-.02 0 1.729.216v-3.858h-2.994c-.144.093-.309.195-.525.319-.278.154-.669.36-1.163.566-.843.38-1.687.751-2.531 1.131-.031 0-.082.021-.113.031-.062.185-.124.36-.185.545-.103.309-.216.618-.371.906-.154.288-.36.565-.638.761-.041.031-.092.062-.144.051-.051-.01-.082-.072-.092-.123-.093-.268-.186-.535-.288-.803-.021-.061-.042-.123-.052-.185-.02-.164.052-.329.154-.463l.649-.38c-1.009.38-1.863.596-2.49.73-.751.165-2.706.535-3.097.514-.021 0-.124 0-.227.031-.164.062-.257.175-.298.227-.175.236-.319.504-.484.74-.164.247-.36.484-.607.648-.082.052-.175.103-.278.103s-.185-.051-.267-.113c-.196-.123-.381-.257-.566-.391-.196-.144-.371-.308-.515-.504-.02-.02-.03-.051-.041-.072-.031-.072-.062-.164-.031-.236.011-.031.042-.062.072-.083a.92.92 0 0 1 .165-.103l.154-.061c.052-.021.062-.052.103-.083-1.348-.308-2.068-.02-2.407.196-.155.092-.371.278-.813.648-.69.576-.762.71-1.163 1.018-.134.093-.247.185-.36.257.35 1.235.792 2.428 1.337 3.57 0 0 .021 0 .021-.01zm18.357 8.281s-.124 0-.227.031c-.164.062-.257.175-.298.226-.175.237-.319.504-.484.741-.164.247-.36.484-.607.648-.082.052-.175.103-.278.103-.102 0-.185-.051-.267-.113-.196-.124-.381-.257-.566-.391-.195-.144-.37-.309-.514-.504-.021-.021-.031-.052-.042-.072-.03-.072-.061-.165-.03-.237.01-.031.041-.061.072-.082a.88.88 0 0 1 .164-.103l.155-.062c.051-.02.061-.051.102-.082-1.347-.309-2.068-.021-2.407.196-.155.092-.371.277-.813.648-.69.576-.762.709-1.163 1.018-.226.165-.411.309-.576.412 2.891 1.399 6.122 2.201 9.538 2.242v-4.876c-.751.134-1.512.257-1.749.247z"
        style="fill:#183c68;" />
    <path
        d="M29.407 1.121h-4.836V12.88c1.584-2.377 3.457-4.372 5.525-5.874.772-.556 1.616-1.06 2.48-.988.679.062 1.317.473 1.903.957 1.513 1.244 2.799 3.014 4.26 4.361-.885.484-1.708 1.081-2.387 1.862-.319.361-.628.782-.689 1.297-.031.216 0 .442.041.637.103.391.278.669.422.895.226.34.391.638.339 1.05-.319 2.098-2.593 3.23-4.404 3.827-1.327.432-7.49 2.52-7.49 2.52h3.704c.628-.226 1.266-.453 1.883-.7 2.459-1.008 6.431-2.253 7.028-5.174.03-.165.041-.36.041-.535-.011-.298-.083-.597-.216-.854-.103-.216-.258-.401-.402-.607-.308-.401-.545-.895-.308-1.389.576-1.08 1.656-1.913 2.716-2.592.01.01.031.021.041.031-.411.267-.813.566-1.193.895-.361.329-.69.689-.978 1.08-.267.37-.576.823-.422 1.296.155.463.546.792.762 1.235.123.216.185.463.226.71.031.246.031.504-.01.74-.35 2.017-2.202 3.302-3.9 4.167-1.296.637-2.634 1.183-3.982 1.687h3.941c1.698-.947 3.406-2.12 4.342-3.899.35-.669.597-1.482.566-2.284-.031-.874-.36-1.564-.957-2.181-.195-.216-.267-.298-.339-.452-.021-.042 0-.083 0-.134.041-.165.164-.36.257-.525.494-.823 1.193-1.512 1.965-2.109.504-.36 1.029-.689 1.564-.998.772-.442 1.615-.843 2.48-.781.545.041 1.06.257 1.553.535-2.901-5.628-8.766-9.475-15.526-9.475z"
        style="fill:#f5933b;" />
    <path
        d="M24.571 24.576v22.303h18.572c-.329-.247-1.698-1.338-2.212-1.471.35.38.772.699 1.224.936-.72-.113-1.193-.731-1.842-.998.124.165.278.298.464.411-.597-.133-1.112-.473-1.595-.823.226.237.463.453.72.638a2.27 2.27 0 0 1-.844-.391c-.216-.164-.391-.391-.669-.452.072.092.165.154.268.205-.237 0-.453 0-.628-.092-1.461-.885-2.726-1.934-3.632-3.477-.031-.041-.062-.072-.092-.113-.124-.124-.155-.278-.227-.443l-.103-.113c-.504-1.018-.771-2.098-.72-3.24.082-.803.34-1.533.772-2.202.432-.566.936-1.059 1.677-1.131.483-.011.833.298 1.224.545.288.164.649.216.926-.031.34-.309.484-.802.402-1.204-.124-.607-.669-.915-.731-.956-.298-.165-.442-.093-1.204-.34-.236-.072-.38-.134-.483-.175-.412-.144-1.07-.319-2.182-.432-.843 0-1.677.011-2.521.021h-.349c-.093 0-5.053-.299-5.227-.597.823-.175 1.605-.319 2.459-.463.041 0 3.714-.617 5.525-.823.154-.103.34-.164.494-.267.34-.165.679-.227 1.019-.36.113-.031.216-.062.329-.093.483-.082.926-.175 1.41-.185.771 0 1.574.226 2.253.627 1.584 1.441 3.828 2.151 5.937 1.616-.196.113-.247.133-.237.113-.339.133-.71.175-1.07.195-.504.021-1.019.021-1.523-.082.895.504 1.935.679 2.953.689.288 0 .577 0 .875-.02-1.471.504-3.015-.062-4.414-.505-.401-.123-1.05-.38-1.482-.349.926 1.09 1.132 2.87.638 4.156-.288.689-.833 1.172-1.523 1.584-.751.442-2.233.699-2.696.802-.102.021-.205.083-.267.175-.237.319-.093.782.144 1.08.134.196.278.35.453.504.278.237.535.433.854.597.329.124.658.185.987.124.073-.031.155-.062.268-.093.144-.031.226-.175.34-.237.236-.205.432-.493.596-.781.33-.607.649-1.183 1.05-1.79.278-.391.658-.628 1.111-.793.072-.03.185-.061.268-.092 1.522-.484 3.117-.278 4.589.206V24.607H24.591z"
        style="fill:#578e40;" />
    <path
        d="M11.421 1.985c.134-.02.556-.38.689-.617.041-.072.083-.164.113-.247h-1.512c.031.093.072.175.113.247.124.216.319.422.587.617zM1.358 7.901c.535-.679 1.399-1.132 2.428-1.276.196-.021.381-.041.576-.041.721 0 1.431.175 2.12.504.679.329 1.276.792 1.842 1.399.339.37.72.782 1.183 1.132l.196.144.123-.134-.144-.196c-.34-.452-.761-.843-1.132-1.183-.607-.565-1.07-1.162-1.399-1.841-.422-.864-.587-1.8-.473-2.695.133-1.029.586-1.893 1.265-2.428.082-.072.185-.124.278-.185H3.796c-1.471 0-2.664 1.193-2.664 2.664V8.25c.072-.123.133-.257.226-.37zm.679 3.579c-.185-.38-.401-.576-.607-.699-.082-.041-.185-.093-.298-.134v1.543c.113-.041.216-.082.298-.133.237-.134.597-.556.607-.577"
        style="fill:#864198;" />
    <path
        d="M23.459 1.121h-8.745c.092.062.185.113.277.175.69.535 1.132 1.399 1.276 2.428.124.895-.041 1.831-.463 2.695-.329.679-.792 1.276-1.399 1.842-.371.339-.782.73-1.132 1.183l-.134.185.134.134.185-.134c.453-.34.844-.761 1.183-1.132.566-.607 1.163-1.07 1.842-1.399.69-.339 1.4-.504 2.12-.504.195 0 .381.01.576.041 1.029.134 1.893.587 2.428 1.276.556.71.782 1.677.607 2.664v.041s-.092-.01-.133-.01c-.206 0-.412.103-.546.185-.216.124-.421.319-.617.587.021.133.381.555.617.689.134.082.34.185.546.185.041 0 .082 0 .123-.01v.041c.175.977-.041 1.954-.597 2.664-.535.69-1.399 1.132-2.428 1.276-.195.031-.391.041-.586.041-.721 0-1.431-.175-2.11-.504s-1.276-.782-1.842-1.399c-.411-.442-.761-.813-1.183-1.132l-.175-.123-.133.134.123.174c.34.453.761.844 1.132 1.184.607.565 1.07 1.162 1.399 1.841.422.864.587 1.8.463 2.695-.134 1.029-.586 1.893-1.276 2.428-.545.422-1.265.658-2.016.658-.216 0-.433-.02-.649-.051h-.041c.052-.247-.062-.494-.164-.679-.134-.237-.566-.597-.577-.607-.38.195-.576.401-.699.607-.113.185-.216.432-.165.669h-.041a3.3 3.3 0 0 1-.638.061c-.761 0-1.471-.236-2.027-.668-.679-.535-1.132-1.399-1.266-2.428-.113-.895.042-1.831.474-2.695.329-.669.792-1.276 1.399-1.842.37-.339.782-.72 1.132-1.183l.134-.185-.134-.134-.185.134c-.422.319-.772.679-1.184 1.132-.566.607-1.162 1.069-1.841 1.399-.679.339-1.4.504-2.11.504-.195 0-.391-.011-.586-.041-1.029-.134-1.893-.587-2.429-1.276-.092-.113-.154-.247-.226-.37v8.867h22.307z"
        style="fill:#864198;" />
    <circle cx="11.369" cy="13.065" style="fill:#864198" r=".37" />
    <circle cx="10.124" cy="12.355" style="fill:#864198" r=".37" />
    <circle cx="9.898" cy="10.946" style="fill:#864198" r=".37" />
    <circle cx="10.855" cy="9.896" style="fill:#864198" r=".37" />
    <circle cx="12.285" cy="9.989" style="fill:#864198" r=".37" />
    <circle cx="13.098" cy="11.151" style="fill:#864198" r=".37" />
    <circle cx="12.697" cy="12.53" style="fill:#864198" r=".37" />
    <circle cx="11.514" cy="10.709" style="fill:#864198" r=".37" />
    <circle cx="12.007" cy="11.707" style="fill:#864198" r=".37" />
    <circle cx="10.896" cy="11.645" style="fill:#864198" r=".37" />
</svg>