<svg id="Layer_1" data-name="Layer 1" xmlns="http://www.w3.org/2000/svg" viewBox="0 0 41.03 41.03"><defs><style>.cls-2{opacity:.7}.cls-2,.cls-3,.cls-4,.cls-5,.cls-6,.cls-7{fill:#007ca1}.cls-2,.cls-3,.cls-4,.cls-6,.cls-7{isolation:isolate}.cls-3{opacity:.9}.cls-8{fill:#037da2}.cls-4{opacity:.8}.cls-6{opacity:.85}.cls-7{opacity:.75}</style></defs><path d="M39.59 19.83c0 10.44-8.46 18.89-18.89 18.89S1.81 30.27 1.81 19.83 10.27.94 20.7.94 39.59 9.4 39.59 19.83Z" style="fill:#fff"/><path d="M39.5 28.09c-4.13 4.67-8.56 12.44-20.11 11.7C7.43 39.02 1.81 26.2 1.81 26.2c5.63 2.56 13.32-3.89 21.88-3.75 7.86.13 10.64 6.04 15.81 5.64Z" style="fill:#bbd6e3"/><path d="M20.52 41.03C9.2 41.03 0 31.83 0 20.52S9.2 0 20.52 0s20.52 9.2 20.52 20.52-9.2 20.52-20.52 20.52Zm0-38.88C10.4 2.16 2.16 10.39 2.16 20.52s8.24 18.36 18.36 18.36 18.36-8.24 18.36-18.36S30.64 2.16 20.52 2.16Z" style="fill:#6d6e71"/><path class="cls-3" d="M7.52 13.82c.02.08.07.14.12.16.21-.34.14.13.19.19.13.18.3-.05.38-.21.03-.1-.08-.14.03-.22.03-.03.19.05.22.08.02.03-.08.56.1.28.07.07.14.13.22.18.07-.06.09-.16.09-.25.12.03.14.15.26.06-.02.02.17-.36.17-.34.07-.2-.08-.31-.19-.48-.08-.14-.1-.12-.04-.27.05-.14.19-.17.19-.35 0-.02-.12-.23-.15-.26-.11-.14-.16-.14-.29 0 0-.07-.04-.15-.05-.2-.18.28-.3 0-.44-.08-.19-.12-.34-.1-.45-.33-.04-.07-.02-.26-.11-.28-.15-.01-.11.2-.16.29-.19.33-.18-.13-.36-.22-.13.14-.1.63-.26.43-.09.09-.14.23-.2.35-.09-.08-.02-.46-.19-.42-.27.04-.09.49-.11.6-.06.21-.1.08-.14.01-.07-.12.09-.18-.11-.21-.35-.06-.14.28-.31.4-.06.03-.17-.09-.27-.03-.06.03-.05.14-.1.18-.05.03-.09.01-.14.05-.13.12-.27.26-.29.47-.02.1 0 .22.08.25.12.04.16-.09.27-.12.19-.03.22.13.45.03.04-.02.06-.13.1-.14.06 0 .07.07.1.06.12 0 .05.08.22-.01.19-.08.34-.31.49-.11-.12.15-.3.03-.32.28 0 .25.18.17.31.14.07-.02.09-.09.18-.1.06 0 .11.05.16.07.19.05.24.09.38.24.03 0 .03-.03.05-.03"/><path class="cls-7" d="M7.47 12.85c-.24.2.24.58.44.41.09-.07.2-.49.33-.16.03.09-.06.15-.03.24.06.15.06.03.17.06.17.04.16.03.25.2.08.14.11.34.33.16.3-.25-.22-.62-.34-.78.12-.11.36-.11.36-.33.02-.25-.25-.16-.4-.19-.08-.02-.31-.23-.39-.14-.1.12.11.21.07.36-.28.02-.21-.46-.42-.37-.14.08-.14.37-.28.28-.11-.07 0-.24 0-.33 0-.13.04-.11-.07-.19-.05-.04-.15-.08-.21-.07-.1.03-.32.2-.34.34-.02.12.17.13.11.32-.22 0-.21-.29-.37-.32-.29-.06-.04.44-.06.54-.21 0-.23-.12-.33-.27-.07-.1 0-.2-.14-.08-.07.04-.1.24-.1.32-.1-.04-.15-.11-.26-.04-.11.08-.07.22-.22.25.12.07.28.18.42.22.09.02.17 0 .26-.03.04-.02.08-.09.12-.11.06 0 .11.05.16.03.13-.03.35-.04.43-.12.09-.09.02-.24.17-.32.09-.03.18 0 .25.06"/><path class="cls-5" d="M11.62 18.1s-1.19-.38-1.54-.45c-.35-.07-1.06-.38-1.38-.53-.32-.15-1.7-1.16-1.7-1.16s1.64.93 1.8 1.03c.16.1.31.11.31.11s-.47-.36-.74-.66c-.27-.29-.64-.51-.94-.84-.31-.33-.45-.63-.45-.63s1.13 1.08 1.45 1.37c.32.29.74.7.93.88.19.17 2.34.74 2.34.74l-.08.14Z"/><path class="cls-5" d="m11.46 18.02 1.73-.62s1.2-.88 1.4-1.16c.21-.28.49-.97.49-.97s-.9 1.39-1.97 1.97c-1.08.58-1.84.62-1.84.62l.19.16ZM11.23 14.68l-.65-1.12s-.83-.66-1.08-.73c-.25-.08-.86-.1-.86-.1s1.24.29 1.81.94c.57.64.66 1.2.66 1.2l.12-.19Z"/><path class="cls-5" d="M11.29 18.72s1.31-.25 1.88-.54c.58-.28.83-.63 1.09-.93.26-.3.8-1.14.8-1.14s-.91 1-1.1 1.23c-.19.24-.51.52-.88.64-.37.11-1.78.58-1.78.58v.15Z"/><path class="cls-5" d="M11.18 17.3s1.43-.96 1.62-.95c.19.01.23.24.46.18.22-.06 2.32-.93 2.37-.88.05.04-2.35.95-2.28 1.03.08.08.92.4.87.43-.04.02-.82-.18-1.07-.41-.25-.23-.23-.19-.44-.14-.21.05-1.49.87-1.49.87l-.05-.12Z"/><path class="cls-5" d="M11.37 13.64s0 6.62.07 10.59c.04 2.24.03 4.02.04 4.13.04.29 0 1.04.09 1.17.09.13.09.08.16.13s.2.18.09.2c-.11.03-.3-.11-.44.05s-.11.27-.22.27-.02-.11-.14-.11h-.3c-.12 0-.07-.16-.16-.22-.09-.05.05-.21.09-.32.04-.11.14-.48.14-.74s.09-.59.08-.84c-.01-.15.1-5.32.12-9.13.01-2.23.07-3.16.07-3.8 0-.64.32-1.41.32-1.41Z"/><path class="cls-3" d="M14.01 16.02c.13.08.07.25.29.26.11-.12-.04-.19-.04-.31 0-.06.12-.05.09-.11-.01-.04-.14-.08-.18-.1.03-.01.1-.03.12-.03 0 0 .09-.07.1-.08.17-.11.1-.05.32-.03.23.02.36-.12.44-.29.09-.18.13-.15.37-.19.18-.02.39-.15.45-.29a.942.942 0 0 0-.3-.07c.02-.15.12-.1-.07-.25.08-.03.33.01.34-.08 0-.14-.25-.05-.34-.07-.38-.11.37-.11.28-.24-.1-.13-.27 0-.36-.01-.14-.02-.14-.13-.23-.11-.06.01-.1.17-.14.2-.07.09-.13.15-.27.17a.29.29 0 0 1 0-.16c-.32 0-.21.18-.23.32a.402.402 0 0 1-.16-.08c-.05.07-.07.1-.04.18.02.09.14.11.09.2-.09 0-.17-.05-.23-.11-.13.12.13.22.11.28-.04.08-.35-.05-.2.15-.23-.04-.24-.08-.17-.24.08-.19.08-.16-.17-.23.02-.05-.01-.25-.04-.32-.04-.13-.19-.15-.25-.02-.21-.12.11-.42.13-.54a.167.167 0 0 0-.18-.18c-.08 0-.2.15-.24.19 0-.05-.06-.1-.12-.13-.13.11-.13.1-.05.24.04.11.12.16 0 .26-.02-.11.03-.22-.17-.24-.23-.03-.2.11-.18.24.02.1.02.23.11.32.08.08.26.15.37.22-.31-.12-.52.08-.19.24-.14.09.06.11.09.21-.07.02-.22-.03-.27 0-.11.05-.12.23.02.27-.1.15-.35-.1-.35.13 0 0 .07.03.07.06.01.04-.06.09-.05.12.02.02.2.14.25.15.14.07.32.1.46.16.2.08.34.18.45.01.12.08.28.08.27-.05"/><path class="cls-3" d="M13.1 16.55c.01-.13-.15-.06-.17-.15-.02-.08.1-.1.09-.19 0 0-.08-.03-.09-.07 0-.04.07-.07.07-.11.01-.08 0-.17-.13-.19-.03.11-.11.08-.13-.02-.01-.07.13-.12 0-.16 0 .01 0 .03-.02.04-.04-.05.14-.31-.1-.17-.02-.04.03-.14 0-.17-.06-.05-.18 0-.26-.04-.01.08.07.27.01.34-.17.19-.2-.18-.34-.15.01.07-.04.2-.11.08-.04-.06.01-.13.01-.2 0-.04 0-.11-.03-.14-.08-.11-.06-.04-.11.03-.03.03.03.17-.12.14-.13-.03-.04-.2-.02-.24.06-.12.1-.09 0-.18-.04-.04-.13-.11-.23-.07-.02-.1-.18-.12-.25-.02-.03.05.04.18.05.23-.05 0-.11.04-.16.05.02.03.07.08.1.12-.02 0-.07.04-.12.04.04.02.06.07.12.08-.1.05-.37.12-.23.23.09.07.28-.03.39.02-.04.06-.08.12-.09.18.08 0 .15 0 .23-.02-.14.25.27.11.3.3-.12.04-.18-.1-.36-.04.02.03 0 .09.01.12-.04 0-.1.03-.14.03.03.02.05.05.06.07-.07.02-.16.05-.21.11.08.04.17 0 .23.05.03.02.02.11.02.15.11 0 .18-.03.22-.1.19.1.16.02.32-.08.07.08-.13.28.13.18.15-.05.19-.31.34-.24.07.03.01.12.08.16.06.02.1-.05.1-.05-.02 0 .12.03.11.03-.03 0 .06.06.07.05h.13c.08 0 .15.06.2-.02M9.74 14.87s.09.02.13.02c.05 0 .09-.06.14-.07.06 0 .04-.01.1 0 .03.01.06.06.1.07.07.01.14-.07.19-.06.12.05 0 .2.15.22.09.03.17-.15.26-.09.18.12-.09.16-.12.21-.05.08.06.2-.03.26-.1.06-.15-.12-.22-.15-.01.05-.03.15-.07.17-.11.07-.08-.04-.14-.09-.08-.05-.18-.12-.26-.13-.05 0-.27.13-.26-.09.01-.08.14 0 .14-.11 0-.05-.08-.12-.11-.14M8.04 16.64c.01.06.05.1.09.12.16-.25.1.1.14.14.1.14.22-.04.28-.16.02-.07-.06-.11.03-.16.02-.02.14.04.16.06.01.02-.06.42.07.21.05.05.1.1.16.14.05-.04.07-.12.07-.18.09.02.11.12.2.04-.02.02.13-.27.12-.25.05-.15-.06-.23-.14-.36-.06-.11-.08-.09-.03-.2.04-.11.14-.13.14-.26 0-.02-.09-.17-.11-.2-.08-.1-.12-.11-.22 0 0-.05-.03-.11-.04-.15-.13.21-.22 0-.33-.06-.14-.09-.26-.07-.34-.24-.03-.05-.01-.19-.08-.21-.11 0-.08.15-.12.22-.14.25-.14-.1-.27-.16-.09.11-.07.47-.2.32-.07.07-.1.17-.15.26-.07-.06-.02-.35-.14-.32-.2.03-.07.36-.09.45-.04.16-.08.06-.1.01-.05-.09.07-.13-.09-.16-.26-.04-.1.21-.23.3-.04.02-.13-.07-.21-.02-.04.02-.04.1-.07.13-.03.03-.07 0-.1.04-.1.09-.2.19-.22.35-.01.08 0 .17.06.19.09.03.12-.07.2-.09.14-.02.17.1.33.02.03-.01.05-.1.07-.1.05 0 .05.05.07.05.09 0 .04.06.17 0 .14-.06.25-.23.36-.08-.09.11-.23.02-.24.21 0 .19.13.13.23.1.05-.02.07-.07.13-.08.04 0 .08.04.12.05.15.03.19.07.28.17.02 0 .02-.02.04-.02"/><path class="cls-7" d="M8 15.91c-.18.15.18.43.33.31.07-.05.15-.36.24-.12.02.06-.05.11-.02.18.04.11.04.02.13.04.13.03.12.03.19.15.06.1.08.25.24.12.22-.19-.17-.47-.26-.59.09-.08.27-.08.27-.24.01-.18-.19-.13-.3-.15-.06-.01-.23-.17-.3-.1-.07.09.09.16.06.27-.21.01-.16-.34-.31-.27-.11.06-.1.28-.21.21-.08-.05 0-.18 0-.24 0-.09.03-.08-.05-.14a.314.314 0 0 0-.16-.06c-.08.02-.23.16-.25.26-.01.09.13.1.08.24-.16 0-.16-.22-.27-.24-.22-.04-.03.33-.04.4-.16 0-.17-.09-.25-.2-.05-.07 0-.15-.1-.06-.05.03-.07.18-.07.24-.07-.03-.11-.08-.19-.03-.08.06-.05.17-.16.18.09.05.21.13.31.16.07.02.13 0 .19-.02.03-.02.06-.07.09-.08.05 0 .08.04.12.03.1-.02.27-.03.33-.08.06-.07.01-.18.12-.24.07-.02.14 0 .19.04"/><path class="cls-3" d="M11.77 12.55c-.36.18.09.48-.09.72-.11.15-.17-.04-.28.03-.16.11-.03.26-.19.1-.04-.03.04-.13-.09-.08-.08.03-.04.16-.15.14-.19-.03.17-.37-.1-.17-.09.06-.16.22-.27.09-.07-.08-.04-.3.07-.36-.07-.14-.22-.08-.33-.13-.1-.07-.1-.17-.15-.28-.04-.11-.14-.22-.09-.38.08-.22.14.02.24.07.07-.07-.15-.73.07-.61.08.06.03.33.15.3.07-.02.14-.26.18-.31.07.08-.04.2.02.29.14-.33.13.07.14.15.05-.01.11-.03.16-.07.07.12-.08.46.05.49.25.06.13-.33.11-.39.03 0 .09-.02.12-.02-.02-.15-.26-.35-.04-.51v.2c.07 0 .12-.06.15-.13.03.09 0 .2.03.3.07.25.1 0 .22.05s-.03.3 0 .36c0 0 .31.12.07.15"/><path class="cls-4" d="M11.42 11.91c-.18.07.15.31-.08.35.03.11.08.3.19.3.04.23-.3-.04-.3.26 0 .22.34-.07.42-.16.17-.22-.01-.68-.22-.74"/><path class="cls-3" d="M10.44 12.95c-.06.1-.19.15-.26.25-.08.11-.12.23-.21.29 0-.04-.01-.12-.01-.17-.16.1-.31.46-.5.42.01-.05 0-.09.03-.14-.08-.02-.4.04-.23-.15-.05-.01-.21.02-.25-.01-.1-.09-.02-.2.08-.18-.02-.06-.16-.2-.14-.26.03-.1.16.1.19.11.01-.04.05-.09.05-.12.07.05.1.16.18.18-.01-.22.12-.07.21-.07.03-.14-.19-.21-.12-.34.08-.15.18.13.26.15 0-.26.16-.12.25-.03.01-.03.02-.05.02-.07.13-.03.17.07.27.12.07.03.13-.03.18.04"/><path class="cls-6" d="M10.39 13.76c.04-.17.12.05.17.06.05 0 .05-.06.09-.07.05-.02.09 0 .13 0 0-.08-.09-.18-.16-.15 0-.04.07-.12.12-.12.08 0 .04.03.06.1.02.05-.03.09.02.13.04.04.11-.03.12-.07.11.04.12.24.22.25.11.02.17-.2.06-.26-.07-.04-.24.04-.29-.06-.08-.16.22-.26.19-.04.11-.07.14 0 .22.02.04 0 .09-.02.13 0 .05.02.08.08.15.09.07.02.24-.05.14-.15-.03-.04-.19-.05-.23-.06.04-.12.07-.05.14-.08l.14-.08c.08-.23-.2-.05-.25-.03-.02 0-.04.05-.07.05-.02 0-.09-.02-.09-.02-.05.02-.07.09-.12.11-.14.04-.16-.19-.27-.19-.02.19-.1-.03-.14-.04-.07 0-.05.08-.08.12-.05.06 0 .04-.08.06-.03 0-.06-.03-.1 0-.05.03-.04.11-.07.13-.03.04-.25.09-.09.17-.09.02-.2-.04-.2.12 0 .1.09.13.12.03"/><path class="cls-3" d="M10.83 12.87c-.04.1.02.11.05.15.03.04.07.04.09.12.02-.15.12-.09.2-.07.07-.15-.11-.15-.18-.17.05-.05.07-.14-.02-.15-.07-.02-.07.05-.12.1M11.88 13.4c0 .16-.11.1-.01.24.04.04.06-.03.07.05.02.05-.08.06-.06.14.04.15.14-.02.17-.02.08 0 .15.16.25.14 0-.11-.09-.12-.15-.18-.11-.12-.02-.08 0-.22.11.02.04-.05.05-.11.02-.06.09-.11.03-.18-.09-.11-.08.06-.1.09-.04.06-.09.04-.09.16-.07-.04-.1-.1-.17-.13"/><path class="cls-6" d="M11.52 13.7c0 .14.15.1.22.06.02.22.07.07.14.17.07.11-.03.16-.09.14-.09-.03-.13-.07-.23-.07-.07 0-.19.02-.17-.1.01 0 .03 0 .04-.02-.04-.15-.07-.25.11-.21"/><path class="cls-3" d="M12.85 12.42c-.28.38.32.31.45.33.15 0 .21.09.34.11.12.02.29-.18.31.05-.07.07-.05.07-.07.15.06 0 .1.06.15.07-.19.22-.84-.27-.76.28-.19-.07-.1-.2-.25-.06-.03.02 0 .15-.06.2-.04.02-.12-.13-.12-.15-.02.05-.06.13-.04.22-.16.07-.24-.06-.19-.22-.35-.09.18.38-.13.4-.18 0-.1-.11-.16-.24 0 .02.1-.07.04-.15-.04-.04-.07.04-.1.02.03.02-.06.11-.09.11-.09 0-.06-.15-.13-.15-.15 0-.16.13-.29.13s-.38-.26-.37-.46c.07 0 .17.04.25.06-.02-.02-.03-.06-.04-.09.1-.07.18.07.26.16-.03-.07-.03-.18-.04-.24.06 0 .16 0 .24.04-.01-.33.41-.42.37-.11.03-.13.01-.26-.03-.35.07.02.12.02.18.07.06-.11.27-.5.4-.31-.03.04-.06.06-.09.09M13.89 16.44c-.03.2-.1.26-.24.3-.03.01-.09-.03-.12 0-.03.01-.04.09-.05.1-.04.01-.1.05-.16.09-.13.07-.16.15-.32.12-.05-.01-.08-.05-.13-.05-.06 0-.12.05-.19.04 0-.06.03-.11.07-.15.03-.02.12-.05.12-.05.07-.1-.03-.22.05-.29.12-.11.15.13.23.15.15.02.05-.12.1-.21.11-.2.13.05.17.06.17.01.09-.22.16-.27.03-.02.18.03.23.04.03.01.07-.07.11-.02.05.05.01.12-.03.15"/><path class="cls-3" d="M14.7 16.81c-.01.16-.01.26-.17.22 0 .09-.18.19-.24.21-.12.01-.11-.06-.23-.09-.1-.01-.19.05-.29.03-.13-.04-.14-.17.02-.15-.2-.31.09-.16.2-.28.13-.15-.16-.56.12-.38.02-.28.29-.21.38-.39.03.07.2.18.28.21.07.03.31-.02.17.15.13.12.17-.05.27-.1.08-.03.1.05.17.01.04-.03.07-.15.1-.18.02.05.04.1.04.16.03-.16.15-.11.21 0 .08-.06.11-.16.18-.23.08-.07.11-.07.24-.06 0 .01-.06.06-.08.07.04.06.11.1.16.11-.04.05-.11.06-.16.07.05.05.12.08.18.11-.12.1-.27.2-.4.26.09.11.27.05.36 0 .04-.01.1-.16.19-.08.06.05 0 .15-.05.2.07.11.18.05.25.18-.22.06-.44-.04-.54.27.1.08.18-.06.3-.07.08-.01.11.07.13.07.06.01.09-.03.16-.03l-.1.13c.08.03.23-.02.23.1-.09.05-.03.15-.13.21-.06.04-.19.01-.24.01-.13 0-.47.15-.47-.09-.12 0-.2.01-.29-.02-.15-.05-.21-.12-.35-.04 0 .15.02.42-.17.34-.1-.04-.16-.26-.23-.36-.23-.31.02-.05.07-.26.03-.11-.19-.26-.22-.32"/><path class="cls-6" d="m14.44 16.7-.06-.12c-.11.07-.1.21-.24.15-.05.15-.22.01-.29.15.08.08.21.17.29.18.03 0 .25-.05.26-.06.02-.01.12-.16.14-.18.05-.07.07-.16.13-.23.06-.1.41-.15.4.05 0 .12-.19.01-.14.23.09.27.21 0 .29.04.06.02.03.11.11.15.08.04.1-.07.18.03.07.07-.05.16.09.2.13.02.08-.07.14-.16 0-.01.12-.18.11-.17.07-.05.12.01.2-.01.05-.02.14-.11.11-.18-.02-.07-.1-.03-.14-.04-.05-.01-.17-.11-.2-.08-.1.05-.02.18-.08.24-.09.11-.29-.02-.36-.07-.13-.07-.24-.11-.19-.31 0-.06.15-.12.09-.24-.03-.07-.09-.05-.14-.05s-.13.06-.17.01c-.05-.05 0-.22 0-.27-.01-.06 0-.14-.05-.16-.12-.03-.03.18-.08.21-.06.04-.1-.09-.1-.12-.07.02-.08.12-.07.2-.09.04-.17-.02-.25-.07.01.1.03.17-.04.23-.04.04-.14-.04-.18 0-.04.04-.06.15-.02.2.08.1.11-.01.18-.05.07-.04.31-.2.28.01 0 .05-.12.13-.14.17-.05.06 0 .2-.13.13"/><path class="cls-3" d="M14.89 14.69s-.04.06-.04.11c-.11-.06-.25-.22-.32-.01.09.02.2.05.27.12.04.04.07.12.1.16.06.04.06.01.11.03 0 0 .2.03.23.02.11-.05.04-.16-.06-.18.08-.15.18-.28-.04-.26-.02 0-.02.07-.04.07s-.08-.02-.08-.02c-.04 0-.06-.17-.11-.01"/><path class="cls-6" d="M13.97 14.96c-.01.2.07.21.17.24.12.05.16.03.22.21-.09.02-.18-.01-.26.06-.09.08-.03.18-.15.26-.06.03-.14.02-.21.03-.08.01-.19.1-.27.09-.09-.01-.08-.16-.2-.09-.05.04-.03.11-.07.15-.04.04-.08.04-.13.07-.17.12-.35.06-.4-.23.12-.02.29.08.41.05.2-.05.04-.32.27-.29.1 0 .39.19.44-.05.05-.28-.34.17-.29-.18.24.01.09-.16.08-.31.1-.05.22.05.32.01"/><path class="cls-2" d="M15.12 15.9c-.1.07-.12-.05-.21-.09-.06-.04-.12-.01-.19-.03-.12-.03-.2-.09-.31-.09-.1.01-.27.11-.36.05-.23-.13.09-.17.18-.2-.02-.15-.15-.23-.12-.4.04 0 .1.01.14.05.04-.12 0-.22-.02-.33.03.01.1.03.14.05-.01-.28.19-.03.31.04.15.06.06.03.18-.03.14-.07.12-.07.22.03.04.03-.03.1.07.12.04.01.07-.09.11-.1.1-.01.14.07.24.12.05.02.16.01.2.07.04.05.04.26.05.32-.23.05-.24.09-.11.34-.09.03-.17 0-.26-.01-.05-.01-.09-.04-.14-.02-.08.02-.04.1-.14.11"/><path class="cls-6" d="M10.76 13.8c.09 0 .14.03.23.06.11.03.22.05.05.11-.04 0-.12-.02-.14.04-.01.05.09.07.11.13.07.17-.12.05-.18.03-.02.18-.14.22-.27.21l.05-.09c-.04-.02-.15 0-.17-.03-.1-.13.11-.08.13-.09.13-.04.03-.1.07-.16.05-.06.17.03.24 0-.04-.06-.1-.12-.14-.18 0 0 .02 0 .03-.02"/><path class="cls-3" d="M14.27 13.81c.18.11.09.33.39.35.15-.16-.06-.25-.06-.41 0-.08.17-.07.12-.15-.02-.06-.18-.11-.24-.14.04-.01.14-.04.16-.04 0-.01.12-.09.13-.11.23-.14.13-.07.43-.04.31.03.49-.17.6-.38.12-.24.17-.2.5-.26.24-.03.52-.2.6-.38-.11-.06-.26-.08-.4-.1.03-.2.16-.14-.09-.33.1-.04.45.02.45-.11-.01-.19-.34-.07-.45-.1-.51-.14.5-.14.38-.32-.14-.18-.36 0-.48-.02-.19-.03-.19-.18-.31-.15-.08.02-.13.23-.18.27-.09.12-.17.2-.36.22-.03-.06-.02-.15 0-.21-.43 0-.28.24-.31.43a.508.508 0 0 1-.22-.11c-.06.09-.1.14-.06.24.03.12.19.15.13.27-.13 0-.23-.07-.31-.15-.18.16.17.29.15.37-.05.1-.47-.06-.27.2-.31-.05-.32-.11-.23-.32.1-.26.11-.22-.22-.31.02-.07-.02-.33-.06-.43-.05-.17-.26-.2-.34-.02-.29-.17.15-.56.17-.73.02-.11-.08-.26-.24-.25-.11 0-.26.2-.32.26-.01-.07-.08-.13-.16-.17-.17.14-.17.13-.07.32.06.15.16.22 0 .36-.02-.15.04-.29-.24-.32-.31-.04-.26.14-.23.33.03.13.02.31.15.43.11.11.35.2.5.3-.42-.16-.7.1-.25.32-.18.12.08.14.13.28-.1.02-.29-.04-.36 0-.15.07-.16.31.02.36-.14.19-.46-.13-.47.17 0 0 .09.04.1.08.02.06-.08.12-.07.16.03.03.26.18.33.2.19.1.43.13.61.21.27.11.46.25.61.02.16.1.38.1.37-.07"/><path class="cls-3" d="M15.46 12.04c-.01.05-.05.08-.05.15-.15-.08-.34-.3-.43-.02.12.03.28.07.37.16.05.05.09.16.13.21.08.05.08.02.14.03 0 0 .26.05.3.03.14-.07.05-.21-.08-.25.11-.2.23-.38-.05-.35-.03 0-.03.1-.05.1s-.1-.03-.1-.03c-.05 0-.08-.23-.14-.02"/><path class="cls-6" d="M14.22 12.4c-.01.26.09.28.22.33.16.07.21.03.29.28-.12.03-.24-.02-.34.08-.12.12-.04.25-.2.35-.08.05-.18.03-.28.05-.1.02-.25.13-.36.11-.12-.02-.11-.21-.26-.11-.07.05-.04.15-.09.2-.05.05-.11.05-.17.1-.22.16-.47.08-.54-.31.16-.03.38.11.55.07.26-.07.05-.43.37-.4.13.02.53.26.59-.06.06-.38-.46.23-.38-.25.32.02.12-.21.1-.41.13-.07.29.06.43.02"/><path class="cls-2" d="M15.76 13.66c-.13.1-.16-.07-.28-.12-.08-.05-.16-.02-.25-.03-.16-.03-.26-.12-.42-.12-.13.02-.36.15-.49.07-.32-.18.12-.23.24-.26-.03-.2-.2-.31-.16-.54.05 0 .13.02.18.07.05-.16-.01-.3-.03-.44.04.02.13.03.19.07-.01-.38.25-.03.42.05.2.08.08.05.23-.03.19-.1.16-.1.29.03.05.05-.04.13.09.16.05.02.09-.11.14-.13.13-.02.19.1.31.16.07.03.21.02.26.1.05.07.05.34.07.43-.3.07-.31.12-.14.46-.12.03-.22 0-.34-.02-.07-.02-.12-.05-.18-.03-.11.03-.05.13-.19.15"/><path class="cls-3" d="M11.15 11.44s-.1.02-.14.02c-.05-.01-.1-.07-.15-.08-.06 0-.04-.01-.1 0-.03.02-.07.07-.11.08-.08.02-.15-.08-.2-.07-.13.05 0 .21-.16.24-.1.03-.18-.16-.29-.09-.2.13.1.17.13.23.05.09-.07.21.03.28.11.07.16-.13.25-.16.01.05.03.16.07.19.12.08.09-.04.15-.09.09-.05.19-.13.29-.15.05 0 .3.15.28-.09-.01-.09-.15 0-.15-.12 0-.05.09-.13.12-.15M8.92 8.9c.4.2-.09.53.1.79.12.17.18-.04.3.04.18.12.04.29.22.12.04-.04-.05-.14.1-.08.08.03.04.18.16.16.2-.03-.18-.41.11-.18.1.07.17.24.29.1.07-.08.04-.33-.08-.39.07-.15.23-.08.36-.15.12-.08.11-.18.17-.31.04-.12.15-.24.1-.41-.08-.25-.15.02-.26.08-.08-.08.17-.8-.07-.67-.09.06-.04.36-.17.32-.07-.02-.16-.28-.19-.34-.07.09.04.22-.02.32-.15-.36-.14.08-.15.16a.298.298 0 0 1-.17-.08c-.07.13.09.5-.05.53-.27.07-.14-.35-.12-.43-.04 0-.1-.02-.14-.02.03-.17.28-.38.04-.56v.21c-.07 0-.12-.07-.17-.14-.03.09 0 .21-.03.32-.07.27-.1.01-.24.05-.13.06.03.32 0 .39 0 0-.34.14-.07.16"/><path class="cls-4" d="M9.31 8.21c.2.08-.17.34.09.38-.02.12-.09.33-.21.33-.05.25.33-.04.33.29 0 .23-.38-.07-.46-.18-.19-.24.02-.74.24-.8"/><path class="cls-3" d="M10.37 9.33c.07.11.21.16.29.27.08.12.13.25.23.32 0-.04.01-.14.01-.19.17.11.34.51.55.46-.01-.05 0-.1-.03-.15.09-.03.44.04.25-.16.05-.01.23.02.27-.01.11-.09.02-.22-.09-.2.02-.07.17-.21.15-.28-.03-.11-.17.11-.21.12-.01-.04-.05-.09-.05-.14-.08.05-.11.18-.19.2 0-.24-.13-.08-.23-.08-.03-.15.2-.23.13-.38-.08-.16-.19.15-.28.16-.01-.28-.17-.13-.28-.04-.01-.03-.02-.05-.02-.08-.14-.03-.18.08-.29.13-.08.03-.14-.03-.19.04"/><path class="cls-6" d="M10.44 10.23c-.05-.19-.13.06-.19.07-.06 0-.06-.07-.1-.08-.05-.02-.1 0-.14-.01 0-.09.09-.2.17-.17 0-.05-.07-.14-.13-.14-.09 0-.04.03-.06.11-.02.05.03.1-.02.14-.05.04-.12-.03-.13-.08-.12.05-.13.27-.24.28-.12.02-.19-.22-.06-.29.08-.04.26.05.32-.07.09-.18-.24-.29-.21-.04-.12-.08-.15 0-.24.02-.05 0-.1-.02-.14 0-.06.02-.09.09-.16.1-.07.02-.26-.05-.16-.17.03-.04.21-.05.25-.06-.04-.13-.08-.06-.15-.09l-.16-.09c-.09-.25.22-.06.27-.03.02 0 .05.05.07.06.02 0 .09-.02.09-.02.06.02.08.1.13.12.15.04.18-.21.29-.21.01.21.11-.03.15-.04.08 0 .06.09.09.13.05.07 0 .04.09.06.03 0 .06-.03.11 0 .06.04.04.12.07.15.03.04.28.1.1.19.09.02.22-.04.22.13 0 .11-.09.15-.13.04"/><path class="cls-3" d="M9.96 9.25c.05.11-.02.12-.06.17-.03.04-.07.04-.09.13-.03-.17-.13-.1-.22-.07-.08-.17.12-.17.2-.19-.05-.06-.07-.15.03-.17.08-.02.08.06.14.11M8.81 9.83c0 .18.12.11.02.27-.04.05-.06-.03-.08.06-.02.05.09.07.06.16-.05.17-.16-.02-.19-.02-.09 0-.17.18-.28.16 0-.12.09-.13.16-.2.12-.13.03-.09 0-.24-.12.02-.04-.06-.06-.12-.02-.06-.1-.12-.04-.2.09-.12.09.07.11.1.04.07.1.04.1.17.07-.04.1-.11.18-.14"/><path class="cls-6" d="M9.2 10.16c0 .16-.17.11-.25.07-.03.24-.08.08-.15.19-.08.12.03.18.1.15.1-.03.14-.08.25-.08.07 0 .21.02.19-.11-.02 0-.03 0-.05-.02.04-.17.07-.28-.12-.23M10.04 10.27c-.1 0-.16.03-.26.06-.12.03-.23.06-.05.12.04.01.13-.02.15.05.02.06-.09.08-.12.14-.07.19.13.06.2.03.02.2.16.24.29.23a.53.53 0 0 1-.06-.1c.04-.02.16 0 .18-.03.11-.15-.12-.09-.14-.1-.14-.05-.03-.11-.07-.18-.05-.07-.18.03-.26 0 .05-.07.11-.13.15-.2 0 0-.02 0-.03-.02"/><path class="cls-3" d="M10.25 17.06c-.17.1-.08.31-.36.33-.14-.16.05-.24.06-.39 0-.07-.16-.07-.12-.14.02-.05.17-.1.23-.13-.04-.01-.13-.03-.15-.04 0-.01-.12-.09-.12-.1-.21-.13-.12-.06-.4-.04-.3.03-.46-.16-.56-.36-.11-.23-.17-.18-.47-.24-.23-.03-.49-.19-.56-.36.1-.06.25-.08.38-.09-.03-.19-.15-.13.08-.31-.1-.03-.42.02-.42-.11 0-.18.32-.06.43-.09.48-.13-.47-.13-.35-.3.13-.16.34 0 .45-.02.18-.03.18-.16.29-.14.07.02.12.21.17.26.09.11.16.18.34.21.03-.06.02-.14 0-.2.41 0 .26.23.29.41a.42.42 0 0 0 .2-.1c.06.08.09.13.06.23-.03.11-.17.14-.12.25.12 0 .22-.07.29-.14.17.15-.16.27-.14.35.05.1.44-.06.25.18.29-.05.3-.11.22-.3-.1-.24-.1-.21.21-.29-.02-.07.01-.31.05-.4.05-.16.24-.18.32-.02.27-.16-.14-.53-.16-.68-.02-.11.07-.24.23-.23.1 0 .25.18.3.24.01-.07.08-.12.15-.16.16.13.16.12.07.3-.05.14-.15.21 0 .34.02-.14-.04-.27.22-.3.29-.04.25.13.22.3-.03.12-.02.29-.14.4-.1.11-.33.19-.47.28.39-.16.66.09.23.3.17.11-.07.13-.12.26.09.02.28-.03.34 0 .14.07.15.29-.02.34.13.18.44-.12.45.16 0 0-.09.04-.1.08-.02.05.08.11.07.15-.02.03-.25.18-.31.2-.17.09-.4.12-.58.2-.25.1-.43.23-.57.02-.16.1-.36.1-.35-.07M5.93 18.3c-.02.08-.06.13-.12.15-.2-.32-.13.12-.17.18-.12.17-.28-.05-.35-.2-.03-.09.07-.14-.03-.21-.02-.02-.18.05-.21.08-.02.02.08.53-.09.26-.07.06-.13.12-.2.18-.07-.06-.09-.15-.09-.24-.11.03-.13.15-.24.06.02.02-.16-.34-.16-.32-.07-.19.08-.29.18-.45.07-.13.1-.11.04-.25-.05-.13-.17-.16-.17-.33 0-.02.11-.22.14-.25.1-.13.15-.14.27 0 0-.07.04-.14.04-.19.17.27.28 0 .41-.08.18-.11.32-.09.42-.31.04-.07.02-.25.1-.27.14-.01.11.19.15.27.18.31.17-.12.34-.2.12.13.09.59.25.4.08.08.13.21.19.32.09-.07.02-.43.17-.4.25.04.08.45.11.56.06.2.09.08.13.01.07-.11-.08-.17.11-.2.33-.06.13.26.29.38.05.03.16-.09.26-.03.05.03.05.13.09.16.04.03.09.01.13.05.12.12.25.24.27.44.02.1 0 .21-.08.24-.12.04-.15-.09-.26-.11-.18-.02-.21.13-.42.03-.03-.02-.06-.12-.09-.13-.06 0-.07.06-.09.06-.11 0-.05.07-.21-.01-.17-.07-.31-.28-.46-.1.11.14.28.03.3.26 0 .23-.17.16-.29.13-.07-.02-.08-.08-.17-.1-.05 0-.1.04-.15.06-.18.05-.23.08-.35.22-.03 0-.02-.02-.04-.03"/><path class="cls-7" d="M5.98 17.38c.23.19-.23.55-.41.39-.09-.06-.19-.46-.3-.15-.03.08.06.15.03.23-.05.14-.06.02-.16.06-.16.03-.15.03-.24.19-.07.13-.11.32-.31.15-.28-.24.21-.58.32-.74-.12-.1-.34-.11-.34-.31-.02-.23.24-.16.38-.18.07-.02.29-.21.37-.13.1.11-.11.2-.07.34.27.02.2-.43.39-.34.13.07.13.35.26.26.11-.06 0-.22 0-.31 0-.12-.04-.1.06-.18.05-.04.14-.08.2-.07.09.03.3.19.32.32.02.12-.16.12-.1.3.2 0 .2-.27.34-.3.27-.05.03.41.05.5.2 0 .22-.11.31-.26.06-.1 0-.18.13-.07.06.04.1.23.09.3.09-.04.14-.1.24-.04.1.07.06.21.21.23-.12.07-.26.17-.39.21-.08.02-.16 0-.24-.03-.04-.02-.07-.09-.12-.1-.06 0-.1.05-.15.03-.12-.03-.33-.04-.41-.11-.08-.08-.02-.23-.16-.3-.08-.03-.17 0-.23.05"/><path class="cls-3" d="M14.46 18.9c.46-.23-.11-.61.11-.91.14-.19.21.04.35-.04.21-.14.04-.33.25-.13.05.05-.05.17.11.1.09-.04.05-.2.19-.18.23.04-.21.47.13.21.12-.08.2-.28.34-.12.08.1.05.38-.09.45.08.17.27.09.41.17.13.09.13.21.19.35.05.13.18.27.12.47-.1.28-.17-.02-.3-.09-.1.09.19.92-.09.77-.1-.07-.04-.41-.19-.37-.09.02-.18.33-.22.39-.08-.1.05-.26-.02-.37-.18.42-.16-.09-.18-.18-.07.02-.13.03-.2.09-.08-.15.1-.58-.06-.62-.31-.08-.16.41-.14.5-.04 0-.12.03-.15.02.03.19.32.44.04.64-.01-.07 0-.16 0-.24-.08 0-.15.08-.19.16-.04-.11 0-.25-.03-.37-.09-.31-.12-.01-.28-.06-.15-.06.03-.37 0-.45 0 0-.39-.16-.09-.19"/><path class="cls-4" d="M14.92 19.7c.22-.09-.19-.39.1-.44-.03-.14-.1-.37-.24-.38-.05-.3.38.05.38-.33-.01-.27-.43.08-.53.21-.22.27.02.86.27.93"/><path class="cls-3" d="M15.66 18.5c.05-.13-.03-.14-.06-.2-.04-.05-.08-.05-.11-.15-.03.19-.15.11-.26.08-.09.19.14.19.23.22-.05.07-.08.17.03.19.09.02.09-.07.16-.12M13.11 19.07c.35-.49-.41-.4-.57-.42-.18 0-.26-.11-.42-.14-.15-.02-.37.23-.39-.07.09-.09.05-.09.09-.19-.07 0-.13-.07-.19-.09.24-.28 1.06.35.96-.35.24.09.13.25.31.07.04-.03 0-.19.08-.26.05-.02.15.16.15.19.02-.07.08-.16.06-.28.2-.09.3.07.24.28.44.12-.22-.49.17-.51.22 0 .13.14.2.3 0-.02-.13.09-.06.19.06.05.09-.05.13-.02-.04-.02.07-.14.11-.14.11 0 .07.19.16.19.19 0 .21-.16.37-.16s.48.32.46.58c-.09 0-.22-.05-.32-.07.02.02.04.07.06.12-.13.09-.22-.09-.33-.21.04.09.04.23.05.3-.07 0-.2 0-.3-.05.02.42-.52.53-.46.14-.04.16-.02.32.04.44-.09-.02-.15-.02-.22-.09-.07.14-.33.62-.5.39.04-.05.07-.07.11-.12"/><g><path class="cls-3" d="M12.17 11.06c.04.25.12.32.3.37.04.02.11-.03.15 0 .04.02.05.11.06.12.05.02.12.06.2.11.16.09.2.19.41.16.06-.02.1-.06.16-.06.07 0 .15.06.23.05a.31.31 0 0 0-.09-.19c-.04-.03-.15-.06-.15-.06-.09-.12.04-.28-.06-.37-.15-.14-.19.17-.28.19-.19.03-.06-.16-.12-.26-.13-.25-.16.06-.21.08-.21.02-.11-.28-.2-.34-.04-.03-.22.03-.28.05-.04.02-.09-.09-.14-.03-.06.06-.01.15.04.18"/><path class="cls-3" d="M11.15 11.52c.01.2.01.33.21.28 0 .11.22.25.3.26.15.01.14-.08.3-.11.12-.01.25.06.37.03.16-.05.17-.22-.02-.19.26-.38-.11-.2-.25-.36-.16-.18.2-.71-.15-.48-.02-.36-.37-.26-.48-.49-.04.09-.26.23-.36.26-.09.03-.39-.03-.21.18-.16.15-.21-.06-.35-.12-.1-.03-.12.06-.21.02-.05-.03-.09-.18-.12-.23-.03.06-.05.12-.05.2-.04-.2-.18-.14-.26 0-.1-.08-.14-.2-.22-.29-.1-.09-.14-.09-.31-.08.01.02.07.08.1.09a.37.37 0 0 1-.2.14c.05.06.14.08.2.09-.06.06-.15.09-.22.14.15.12.34.25.5.32-.11.14-.34.06-.46 0-.05-.02-.12-.2-.23-.11-.07.06-.01.19.06.25-.09.14-.22.06-.32.23.27.08.56-.05.68.34-.12.11-.22-.08-.37-.09-.1-.02-.14.09-.16.09-.08.02-.11-.03-.2-.03.04.05.09.11.12.17-.1.03-.28-.03-.28.12.11.06.04.19.16.26.07.05.24.02.31.02.16 0 .59.18.59-.11.15 0 .25.02.37-.03.19-.06.26-.16.45-.05 0 .19-.03.52.21.43.12-.05.2-.32.28-.45.3-.39-.03-.06-.09-.32-.04-.14.23-.32.28-.4"/><path class="cls-6" d="M11.48 11.38s.05-.11.07-.15c.14.09.12.26.31.19.06.18.27.01.37.18-.1.11-.26.22-.37.23-.04 0-.32-.06-.33-.08-.03-.02-.15-.2-.17-.23-.06-.09-.08-.2-.16-.29-.07-.12-.52-.19-.5.06 0 .15.24.02.17.29-.11.34-.26 0-.37.04-.07.03-.04.14-.14.19-.1.05-.12-.09-.22.03-.09.09.06.2-.11.25-.16.03-.1-.09-.17-.2-.01-.02-.15-.23-.14-.22-.09-.06-.15.02-.25-.02-.06-.03-.17-.14-.13-.23.02-.09.12-.03.17-.05.06-.02.21-.14.25-.11.12.06.02.23.1.31.11.14.36-.03.45-.09.16-.09.31-.14.25-.4-.01-.08-.19-.15-.11-.29.04-.09.11-.06.17-.06s.16.08.21.01c.06-.06-.01-.28 0-.34.01-.08-.01-.17.06-.2.15-.05.04.23.1.26.07.05.12-.11.12-.16.09.03.1.16.09.25.11.04.21-.03.31-.09-.01.12-.04.22.05.29.05.05.18-.04.22 0 .05.05.07.19.03.25-.1.12-.14-.02-.22-.06-.09-.05-.39-.25-.36.02.01.06.15.17.19.22.06.08 0 .25.16.17"/></g><g><path class="cls-3" d="M9.06 17.99s.05.08.05.14c.13-.08.32-.28.41-.02-.11.03-.26.06-.35.15-.05.05-.08.16-.12.2-.07.04-.07.01-.14.03 0 0-.25.05-.28.03-.14-.06-.05-.2.07-.23-.1-.19-.22-.35.05-.32.03 0 .03.09.05.09.02 0 .1-.03.1-.03.05 0 .08-.21.14-.02"/><path class="cls-6" d="M10.22 18.33c.01.25-.09.26-.21.31-.15.06-.2.03-.27.26.11.03.22-.02.32.08.11.11.04.23.19.32.07.04.17.03.26.04.1.02.23.12.33.11.11-.01.1-.2.25-.11.06.05.04.14.09.19.05.05.1.05.16.09.21.15.44.08.51-.29-.15-.03-.36.11-.52.06-.25-.06-.05-.4-.35-.37-.12.02-.49.25-.56-.06-.06-.35.43.22.36-.23-.3.02-.11-.2-.1-.39-.12-.06-.27.06-.41.02"/><path class="cls-2" d="M8.77 19.51c.12.09.15-.06.26-.11.07-.05.15-.02.23-.03.15-.03.25-.11.4-.11.12.01.33.14.46.06.3-.17-.11-.22-.22-.25.03-.18.19-.29.15-.51-.05 0-.12.02-.17.06-.05-.16.01-.28.03-.42-.04.02-.12.03-.17.06.01-.36-.23-.03-.39.05-.19.08-.08.05-.22-.03-.17-.09-.15-.09-.27.03-.05.05.04.12-.09.15-.05.02-.09-.11-.14-.12-.12-.02-.17.09-.3.15-.06.03-.2.02-.25.09-.05.06-.05.32-.06.4.28.06.3.11.14.43.11.03.21 0 .32-.02.06-.02.11-.05.17-.03.1.03.05.12.17.14"/></g><g><path class="cls-5" d="M26.15 27.08c.19-.05.38-.4.5-.41.12-.01.15.25.31.22s.28-.31.47-.28c.19.03.3.24.5.22.2-.02.47.24.41.31s-.38.01-.38.13c0 .11.52.07.35.13-.17.05.15.43-.06.41-.21-.03-.08.24-.38.25-.29.01-.04-.37-.19-.38-.15 0-.17.24-.41.22-.24-.02-.04-.26-.25-.28-.21-.02-.26.11-.47.09-.22-.01-.31.18-.5.13-.19-.06-.06-.38.09-.41.15-.03-.19-.3 0-.35ZM31.9 24.39c-.11-.23-.06-.42-.22-.44-.16-.02-.2-.08-.28-.06-.08.02 0 .19-.19.19-.18 0-.01-.29-.22-.28-.21.01-.36-.01-.53.03-.17.04-.21-.11-.38-.09-.17.01.02.14-.13.19-.15.05-.24 0-.41.03-.17.04.06.53-.16.57-.22.03.02.32.19.31.17-.01.13-.24.28-.25.16 0 .29.16.47.25s.35-.24.44-.09c.09.14.27.09.47.19.2.1.77-.3.66-.53ZM25.02 26.08c-.11-.23-.06-.42-.22-.44-.16-.02-.2-.08-.28-.06-.08.02 0 .19-.19.19-.18 0-.01-.29-.22-.28-.21.01-.36-.01-.53.03-.17.04-.21-.11-.38-.09-.17.01.02.14-.13.19-.15.05-.24 0-.41.03-.17.04.06.53-.16.56-.22.03.02.33.19.31.17-.01.13-.24.28-.25.16 0 .29.16.47.25s.35-.24.44-.09c.09.14.27.09.47.19.2.1.77-.3.66-.53Z"/><path class="cls-5" d="M29.99 25.02c.19.17.31.45.08.43-.23-.02.12.37-.25.27-.37-.1-.81.41-.99.17-.19-.25-.4.4-.66.27-.27-.13-.6.21-.81.21s-.08-.21-.27-.19c-.19.02-.25.48-.43.31-.19-.17-.41.06-.66-.12-.25-.19 0 .6-.25.5-.25-.1-.52-.08-.7-.06-.19.02-.12-.1-.08-.29.04-.19-.25-.12-.41-.25-.17-.12.23-.06.33-.14.1-.08-.35-.29-.23-.46.12-.17.35-.12.52-.04.17.08.14-.41.25-.33.1.08.17-.1.37-.02.21.08.21-.58.39-.43.19.14.54 0 .64.12.1.12.35.08.54.23.19.14.25-.41.46-.29.21.12.72.08.79.23.06.14.52-.54.6-.46.08.08.29.1.37.25.08.15.23-.06.41.1Z"/><path class="cls-5" d="M24.41 33.05c.09.06.45-.03.58.05.13.08.34-.19.49-.14.15.05.17.09.27.14.1.06.28.15.45.13.17-.03.05-.22.04-.4 0-.19-.35-.31-.36-.48-.01-.17-.05-.96 0-1.13.05-.17.14-.38.27-.45s.36-.37.45-.4c.09-.03.33 0 .45 0s.22-.22.22-.22-.46-.02-.63 0c-.17.02-.76.54-.76.54s.05-.43.17-.54c.12-.11.13-.28.19-.27.06 0 .49.06.67.09.19.03.85-.27.85-.27s-.25-.17-.36-.09c-.11.08-.59.14-.72.13-.13 0-.36-.13-.36-.13s.02-.4.18-.4.9-.54.9-.54-.95.41-1.17.49c-.22.08-.64.95-.64.95s-.02-.68.04-.91c.05-.22.07-.53.11-.81.04-.28.05-.38 0-.76s0-.6.13-.72c.14-.12 0-.3.31-.45.32-.15.6-.33.79-.36.19-.02.58-.63.85-.67.27-.04 1.14-.54 1.14-.54l.4-.63s-1.36.92-1.61.95c-.25.03-.82.4-1.08.54-.26.14-.81.22-.81.22s-.03-.39.13-.54c.16-.15.5-.27.64-.45.13-.18.27-.85.27-.85s-.35.49-.49.63c-.14.13-.49.18-.49.18s-.17-.4-.13-.76c.03-.36-.18-1.25-.18-1.25h-.45s-.05 2.28-.13 2.38c-.09.09-.28.23-.27.31 0 .08-.05.23 0 .36.05.13.18.29.22.4.04.12-.05.36-.05.36s-.74-.36-.9-.54c-.16-.18-.88-1.37-.88-1.37s.77 1.41.87 1.55c.1.14.86.63.86.63l-.04.63s-.54-.4-.81-.72c-.27-.31-2.92-1.83-2.92-1.83s2.56 1.83 2.67 1.88c.11.05.96 1.23 1.02 1.34.07.11-.04.49-.05.76-.01.28.04.81.04.81s-.62-.33-.99-.32c-.37 0-1.48-.66-1.48-.66l.31.36s1.72.9 1.88.94c.17.04.18.22.27.36.09.14.08 1.45 0 1.57-.08.12.06.64 0 .67-.06.03-.25 0-.31.04-.07.05-.18.16-.09.22Z"/><path class="cls-5" d="M18.93 29.13c-.14-.02-.19-.22-.19-.22l.09-.5.56-.16.41-.06-.19-.22-.06-.31s.1-.2.25-.22c.16-.02.27 0 .44.06.17.07.27 0 .44 0 .17 0 .2-.24.44-.19.24.05.65-.15.85 0 .2.15.56.03.75-.03.19-.07.15-.33.35-.31.2.02.39.05.6.25.2.2.62-.03.75.16s.31.15.25.31c-.06.17.41.51.22.63-.2.12-.08.64-.25.66-.17.02-.4.07-.57.13-.16.06-.06.28.13.28s.36.28.35.41c-.01.13-.28.18-.38.19-.09 0 0 .14-.19.16-.19.01-.18.22-.09.28.09.06.34.02.5.06.16.04-.36.32-.41.44-.05.12-.27-.01-.35.03-.08.04-.11.36-.16.47-.04.11-.28.06-.41.06-.13 0 .13-.39.13-.47 0-.08-.25-.13-.35-.06-.1.07-.16.27-.25.25-.09-.02-.22-.15-.22-.25s-.11-.13-.22-.13 0 .33-.19.35c-.19.01-.34.14-.44.22-.1.08-.17.04-.28 0-.11-.04-.02-.23-.13-.22-.11.01-.21.16-.25.25-.04.09-.06.05-.19-.03-.12-.08-.1-.57 0-.57s.23-.09.13-.16-.19 0-.31.09-.36.04-.47 0c-.11-.04-.08-.26-.16-.25-.07 0-.1.25-.19.25s-.14-.11-.22-.13c-.08-.01-.09-.35.06-.38.15-.03.23.03.22-.06 0-.09-.2-.14-.28-.22-.08-.08-.41.04-.5.06-.09.02-.32-.34-.16-.35.17 0-.02-.28.13-.38.14-.1.58-.13.72-.13.15 0 .09.14.22.16.13.01.29-.08.44-.13.15-.05 0-.31.19-.35.19-.03.15-.09.25-.16.1-.06-.19 0-.31 0s0-.25-.16-.25c-.15 0-.23.15-.31.25-.08.1-.23.09-.35.09-.11 0-.06-.11-.19-.13-.13-.01 0 .2-.19.22-.19.02-.17.24-.31.22ZM31.26 27.78c.19.17.31.46.08.43-.23-.02.12.37-.25.27-.37-.1-.81.41-.99.17-.19-.25-.4.4-.66.27-.27-.14-.6.21-.81.21s-.08-.21-.27-.19c-.19.02-.25.48-.43.31-.19-.17-.41.06-.66-.12-.25-.19 0 .6-.25.5-.25-.1-.52-.08-.7-.06-.19.02-.12-.1-.08-.29.04-.19-.25-.12-.41-.25-.17-.12.23-.06.33-.14.1-.08-.35-.29-.23-.46.12-.17.35-.12.52-.04.17.08.14-.41.25-.33.1.08.17-.1.37-.02.21.08.21-.58.39-.43.19.14.54 0 .64.12.1.12.35.08.54.23.19.14.25-.41.45-.29.21.12.72.08.79.23.06.14.52-.54.6-.45.08.08.29.1.37.25.08.15.23-.06.41.1ZM24.78 24.17c.19.17.31.45.08.43-.23-.02.12.37-.25.27-.37-.1-.81.41-.99.17-.19-.25-.4.4-.66.27-.27-.13-.6.21-.81.21s-.08-.21-.27-.19c-.19.02-.25.48-.43.31-.19-.17-.41.06-.66-.12-.25-.19 0 .6-.25.5-.25-.1-.52-.08-.7-.06-.19.02-.12-.1-.08-.29.04-.19-.25-.12-.41-.25-.17-.12.23-.06.33-.14.1-.08-.35-.29-.23-.46.12-.17.35-.12.52-.04.17.08.14-.41.25-.33.1.08.17-.1.37-.02.21.08.21-.58.39-.43.19.15.54 0 .64.12.1.12.35.08.54.23.19.14.25-.41.45-.29.21.12.72.08.79.23.06.14.52-.54.6-.45.08.08.29.1.37.25.08.14.23-.06.41.1Z"/><path class="cls-5" d="M17.36 24.86c-.04-.15-.08-.33.16-.41.23-.07.36-.5.5-.44.15.06.53-.08.63-.09.1-.02.05-.3.16-.28.11.02.06.28.19.28.12 0 .21.02.31 0s.07-.24.09-.31c.03-.07.03-.28-.19-.19-.22.09-.41.05-.53 0-.12-.05-.09-.27-.06-.31.02-.05.19 0 .19-.06 0-.07-.19-.16-.19-.16s-.04-.24.03-.25c.08-.01.16.12.28.09.12-.02.3-.04.38 0 .08.04.03.32.09.35.07.03.19 0 .19 0s.1-.11.16-.13c.05-.01.05.08.19.06.13-.02.01-.09.13-.09.11 0 .21.05.28 0 .08-.05-.03-.15.03-.22.07-.07.28 0 .28 0s.08.08.16.13.03 0 .16 0-.11-.37.06-.38c.17 0 .33.12.31.19-.02.07.13.03.22 0s-.11-.33.03-.35c.14-.02.42.04.41.13-.02.09.32.02.44.06.12.04.11.21.22.25.11.04.29-.02.38.06.09.08.34-.01.44.16.1.17-.93 1.39-1.04 1.44-.1.05-.53-.05-.66-.06-.13-.01-.17-.35-.25-.38-.08-.03.14.79 0 .85-.14.06-.58-.06-.69.03-.11.09-.48-.11-.5-.22-.03-.11.13-.23.19-.22.05 0-.01-.08 0-.19s.33-.04.35-.13c.02-.09-.3-.12-.38-.09-.08.03-.07-.22-.16-.19s-.1.08-.19.13-.08-.09-.19-.06c-.1.03 0 .29-.16.31-.15.02-.03.47-.13.57-.09.1-.23.09-.38.06s.02-.21-.13-.22c-.15-.01-.34.1-.44.09-.1 0-.11.17-.22.19-.11.01-.1-.12-.22-.13-.28.04-.16.03-.16.03s-.15-.11-.25-.09c-.1.02-.07.24-.16.25-.09.01-.33.09-.38-.06ZM18.27 25.86c-.15.04-.33.32-.13.44.21.12.3.45.44.41.14-.04.64.4.78.28.14-.11.81-.35.85-.53.04-.18-.63-.37-.75-.31-.12.05-.18-.24-.25-.22-.08.02-.01.25-.16.28-.15.03-.38.03-.47.03-.09 0-.17-.42-.31-.38Z"/><path class="cls-5" d="M18.18 27.71c.15.01.06-.31.06-.31s.12.09.19 0-.15-.21 0-.22c.15-.01.33.18.44.13.1-.06-.06-.58.03-.6.09-.02.37-.13.41 0 .04.13.24.1.35.09.11 0-.09-.35-.09-.5 0-.15.18-.06.28-.09.1-.03-.13-.03-.09-.19.03-.15.33-.14.44-.13.11.01.12.16.25.16s-.08-.34.09-.41c.18-.07.29 0 .44 0 .15 0 .1-.25.19-.22s.04.05.22 0-.33-.3-.47-.31c-.14 0-.18-.31-.16-.41.02-.1.03-.13.16-.13s.46-.07.47 0c.01.07.31.31.41.25.1-.06-.19-.24-.19-.31s.07-.18.19-.19c.12-.01.41-.11.47 0s.46.16.47.31c0 .15-.03.37-.22.35-.19-.03-.15.3-.28.31-.13 0-.35-.03-.41 0-.05.03-.13.22 0 .25s.44-.17.47-.03c.03.14.16.13.28.13.12 0 .03-.29.19-.28.16 0 .36.25.31.31-.05.07.05.38 0 .44s-.25 0-.35.03c-.1.03-.12-.05-.25-.06-.14 0-.24-.09-.31 0s-.2.39-.06.44c.14.05.2-.13.25 0 .05.13-.31.4-.19.47.12.07.2-.12.31-.09.11.02.16-.1.25 0s0 .38.09.44c.1.06.22.07.22.16s-.07.12-.22.13c-.15 0-.17-.07-.31-.09-.15-.03-.26.13-.44.13s-.09-.2-.16-.25c-.07-.05-.15-.02-.25 0-.1.01-.13-.16-.13-.16s-.17 0-.25-.06c-.08-.05-.04-.24 0-.31.05-.07.08-.05.22-.06.14 0-.07-.12-.09-.19-.02-.07-.17-.33 0-.35.17-.01.12-.37 0-.31-.12.05-.32.01-.38.06-.06.05.1.12.22.13.12 0-.16.48 0 .5.16.02-.25-.07-.28 0-.03.07.08.25 0 .28-.08.03-.37-.09-.47 0-.1.09-.15-.12-.22-.09-.07.02-.22.34-.09.41.13.07.03.42-.09.44-.13.02-.27 0-.38 0-.1 0-.28-.09-.38-.09-.1 0-.03.16-.09.25-.07.09-.21-.09-.31 0s-.28.42-.35.47c-.07.06-.34-.06-.44-.03-.1.03-.15.21-.28.19-.13-.02-.31-.43-.19-.5s.26-.07.41-.03c.14.04-.06-.23.09-.22Z"/><path class="cls-5" d="M19.56 25.58c.08.06.31-.23.47-.25.16-.02-.02-.19.06-.25s.45.06.53.09c.08.03.32-.12.5-.09.18.02.51.28.47.41-.04.13-.53.42-.69.38-.16-.04-.29.4-.44.41-.15 0-.18-.07-.25-.19-.07-.11-.5-.22-.5-.22s-.28 0-.31-.09c-.04-.09.08-.25.16-.19ZM20.63 21.91c.06.17.36.05.47.03.11-.02-.02-.23.06-.22.09.01.27-.03.35 0 .07.03 0 .14.13.25.13.11.63-.09.72 0 .09.09-.12.08-.19.19s-.16.29.03.35c.19.05.15.26.25.28.1.02.3.08.44 0s-.08-.34.06-.31c.14.02.35-.11.5-.03.15.07.19-.44.35-.44.16 0-.2-.65-.06-.66.14 0-.06-.35-.19-.38-.13-.02-.13.09-.25.13-.12.04-.45.02-.5-.06-.05-.08.4-.15.41-.35.01-.19-.14-.35-.31-.31-.17.04-.19-.21-.28-.19-.09.02-.05.09-.16.22-.1.13-.17.02-.31.03-.14.02 0 .13-.16.22-.15.09-.27-.09-.38 0-.1.09-.45-.09-.5 0-.06.09-.02.15.09.22.12.07.39.01.5.03.11.02.16.15.06.25s-.18.03-.35.06c-.16.04.23.2.09.22-.13.02-.33.02-.44.03-.11.01-.09.16-.09.16s-.41.11-.34.28Z"/><path class="cls-5" d="M23.14 21.91c-.13-.03-.3-.26-.09-.28.21-.02.42-.13.56 0 .14.13.3-.23.47-.13.17.11.13-.36.28-.31.15.05.33-.28.41-.19.08.09.39.08.53.09.14.02-.16.09-.06.22s.26.19.41.31c.15.13-.23.19-.13.38.11.18-.5-.06-.66-.13-.16-.06-.15.15-.35.16-.19 0-.21.06-.38.06s-.03.21-.22.25c-.19.04-.1-.09-.28-.06-.18.02-.03-.2-.13-.28-.1-.09-.24-.06-.38-.09ZM24.74 19.4c-.12-.02-.58-.06-.75 0-.17.06.09.3-.06.31-.15.01-.36.19-.47.03-.12-.16-.35.06-.35.16 0 .09.28.29.38.38.1.09-.23.1-.19.22.04.12.17.03.28.16.11.13-.26.32-.13.41.13.09.4.05.57 0 .17-.05-.1-.43.06-.44.17 0 .34 0 .5-.03.16-.04-.1-.32.09-.35.19-.02.23-.38.47-.35.24.03.35-.25.22-.35-.13-.1-.3.06-.44.06s-.07-.2-.19-.22Z"/><path class="cls-5" d="M26.25 19.72c.15-.07.29-.02.37-.01.15.01-.15.33-.03.38.12.05.18.03.28.13.1.09.18-.07.38-.06.2.01-.08.23 0 .28.08.06.75.07.94.13.19.06.29.24.16.31-.13.07-.52-.05-.69 0-.17.05.02.25-.16.31-.17.07-.29.05-.41-.03-.12-.09-.14.03-.25.13-.11.1-.2 0-.31 0-.11 0-.14.18-.25.22s-.27.02-.38-.03c-.1-.05-.02-.14-.13-.25-.1-.11-.17-.19-.35-.19-.17 0-.13.13-.28.16-.16.03-.47-.39-.31-.44.16-.05.08-.46.22-.44.14.02.19-.1.28-.13.09-.02.06.15.28.13.22-.03-.03-.34.25-.35.12 0 .26-.18.38-.24ZM22.35 27.78c.2-.13.56.1.41.13-.15.03-.06.16.03.19s.38-.11.53-.13c.15-.01-.22.48-.03.38.19-.1.36-.13.41 0 .05.13.2.46.06.5-.14.04-.54-.1-.75.03-.21.13-.21-.16-.35-.16-.14 0-.16.13-.32.17-.17.04-.2-.33-.4-.26s-.35.54-.57.5c-.22-.04-.5.32-.53.41-.03.09-.18.09-.28-.03-.1-.12 0-.57.16-.57.15 0 .33-.03.38-.09.05-.06.05-.29-.09-.22-.15.07-.19 0-.35 0-.15 0-.04-.33-.22-.35-.18-.02-.32.08-.38-.13-.05-.2.06-.35.16-.35s.31.34.5.31c.19-.03.1-.25.25-.25s.29.25.44.25c.15 0 .74-.21.94-.35ZM21.19 30.16c.18 0 .54-.13.72-.03.18.1.18-.54.38-.53.2 0 .22-.03.41-.03.18 0 .37-.21.53-.22.17 0 .23.39.06.53s-.48.2-.38.35c.11.15.19.17.31.22.12.05.06.14 0 .28s-.49-.1-.69 0c-.2.1 0-.38-.13-.38s-.1.23-.28.13c-.18-.1-.13.15-.31.09-.18-.05-.18.35-.38.31-.2-.04-.41-.13-.31-.22.1-.09-.12-.5.06-.5ZM24.05 27.24c-.19.05-.23.16-.44.16s.06.3-.13.41c-.19.11.18.38.38.41.2.03.48-.11.69-.06.21.05.02-.3.19-.22.17.08.45-.04.66.09.21.13.59-.06.53-.19-.05-.13-.4-.27-.63-.22-.23.05-.12-.26-.34-.37-.22-.1-.72-.06-.92 0ZM29.82 21.81c.11.08-.07.15-.22.22s-.44-.17-.5-.09c-.06.08-.22-.12-.35-.06-.13.06.02.07-.03.19s-.18 0-.28.09c-.1.09.16.25 0 .35-.16.09-.34.14-.53.22-.19.08.1.49-.13.41-.23-.08-.32.23-.56.13-.24-.1-.46.27-.69.25-.24-.02-.36-.51-.57-.44-.21.07-.26-.32-.57-.25-.3.07-.28.25-.41.28-.12.04-.28-.22-.5-.09-.22.13-.2-.2-.31-.38-.11-.18.15-.23-.03-.41-.19-.18.09-.32.25-.41.16-.08.26.23.5.25.24.02.12-.31.38-.28.26.03.44.16.63.16s.2-.19.41-.19.11.15.38.19c.27.04.26-.27.44-.31.18-.04.31-.31.44-.22s-.05.2.06.31c.11.11.27.14.38.13.11-.01-.13-.26.03-.31.16-.05.09.09.35 0 .25-.09.09-.35.25-.35s.03.18.22.22c.19.03.23 0 .38.03.15.02-.02.17.09.25.11.08.39.04.5.13Z"/><path class="cls-5" d="M30.67 22.66c.17.02.21-.26.13-.38-.08-.12-.32-.19-.44-.13-.12.07-.33.19-.5.19-.17 0-.1-.15-.25-.13-.15.03-.07.19-.25.28-.19.09-.26.01-.57.03-.3.02-.22-.21-.41-.22-.19 0-.18.28-.5.28s-.03.36-.09.53c-.06.17-.19-.19-.38-.03s-.43-.29-.57-.16c-.14.13-.26.1-.31.25-.05.15-.54.17-.63.31-.08.14-.47-.17-.69-.03-.22.13-.41.37-.44.5-.03.13.24.21.25.44.01.23.55.49.75.44.21-.05-.19-.65 0-.53.19.11.53-.05.69.03.16.08.18-.46.41-.31.23.15.88.04 1.1.09.22.05.03-.48.16-.41s.4-.15.57-.09c.16.06.11-.19.28-.22.17-.03.11.05.28.06.18 0 .06-.47.28-.38.23.1.58-.16.75-.13.17.04.07-.13 0-.25-.07-.13-.1 0-.25 0s-.11-.17.09-.19c.21-.02.36.11.53.13Z"/><path class="cls-5" d="M32.15 23.19c.14-.16.04-.36-.16-.28-.2.08-.18-.57-.41-.56-.22 0-.2.34-.41.35-.21 0-.09.27-.25.31-.16.05-.31.16-.5.03s-.54.11-.63 0c-.09-.11-.29-.08-.41-.03-.11.05-.18.38-.09.38.08 0 .25.21.16.28-.09.07-.46.2-.6.06-.14-.14-.11.31-.25.28-.14-.03-.69-.14-.85-.25-.16-.11-.35.15-.5.16-.15 0-.32-.22-.53-.19-.22.03-.22.44-.31.57-.09.12-.29.27-.47.13-.18-.15-.2.07-.31.13-.11.06-.07.41.03.44.11.03.78-.09.94-.06.16.03.02.33.26.41.24.08.48-.04.69.09.21.13.3-.37.63-.35.32.02-.12-.28 0-.44.12-.16.29-.36.47-.19.18.17.41.39.6.41.19.01.53-.29.72-.41.19-.12-.17-.27-.19-.47-.02-.2.1-.32.25-.25s.26.23.47.25c.21.02.27-.49.5-.41.23.08.56.11.75.09.2-.01-.14-.24.03-.28.17-.04.24-.02.38-.19ZM33.09 24.89c-.11-.23-.06-.42-.22-.44-.16-.02-.2-.08-.28-.06-.08.02 0 .19-.19.19-.18 0-.01-.29-.22-.28-.21.01-.36-.01-.53.03-.17.04-.21-.11-.38-.09-.17.01.02.14-.13.19-.14.05-.24 0-.41.03-.17.04.06.53-.16.56-.22.03.02.33.19.31.17-.01.13-.24.28-.25.16 0 .29.16.47.25s.35-.24.44-.09c.09.14.27.09.47.19.2.1.77-.3.66-.53Z"/><path class="cls-5" d="M33.28 25.8c.17.09.22.3.03.41-.19.11-.65-.05-.82.06-.16.11.14.29-.09.41s-.71.01-.63.13c.08.11.19.16.28.16.09 0-.02.15.16.16.18 0 .2-.07.28.06.08.13.27.14-.03.22-.3.08-.84.11-1.04 0-.19-.11-.11.24-.38.28-.27.04-.49-.11-.63-.25s-.24.31-.41.16c-.16-.15-.73.03-.91-.13-.18-.15-.3.11-.5.16-.2.04-.41-.25-.53-.19-.12.07-.28-.24-.41-.22-.13.02.36.45.16.57-.2.11-.14.01-.38 0s0 .31-.19.35c-.19.04-.21.43-.38.5s-.17-.05-.31-.16c-.14-.1.23-.47.13-.63-.1-.16-.26-.05-.35-.16-.09-.1-.03-.47.19-.5.22-.03.48-.13.63-.13.15 0-.15-.33.03-.31.18.01.41-.14.53-.06.12.07.19-.4.06-.47-.13-.07-.29.1-.34 0-.05-.1.14-.26.34-.25.2.01.22-.35.38-.28.16.07.56-.38.72-.35.16.04.16.3.31.28.16-.02.29-.24.5-.16.21.08.23.34.41.34.18 0 .25-.32.41-.25.16.07.28-.2.44-.22.16-.02.31.13.35.28.04.15.3.06.44 0s0-.41.16-.38c.16.03.13-.33.28-.35.15-.02.06.47.16.6s.2.02.28.19c.08.17.49.04.66.13Z"/><path class="cls-5" d="M29.76 26.68c.19.1.68-.29.82-.22.14.07.16-.41.31-.31.16.09.67-.18.75-.03.09.14.29.03.28.19-.01.16-.56.09-.47.28.09.19.25.15.31.28.06.14-.05.28-.25.25-.2-.03-.45.14-.63 0-.17-.14-.19.27-.35.25-.16-.02-.07-.09-.16-.19s-.3.16-.5 0-.73.18-.78.03c-.06-.15.25-.3.25-.41 0-.11-.4-.08-.22-.19.18-.11.44-.03.63.06ZM32.24 28.31c.15 0 .22-.29.13-.44-.1-.15-.44-.19-.44-.19l-.25.19-.34-.09-.5-.16-.41.22-.41.09s-.3-.26-.47-.38c-.17-.12-.45-.26-.57-.22-.12.04-.05.24-.31.25-.26.01-.23.2-.5.25-.28.05-.38-.2-.56-.19-.19.01-.13.39-.22.53s.28-.03.16.09c-.12.13-.03.35-.28.38a.838.838 0 0 1-.57-.13c-.14-.08-.17.29-.31.19-.14-.1-.5.09-.66.06-.16-.02-.17.11-.19.28-.02.17.21.4.13.57-.08.16-.34.41-.44.5-.09.1.19.45.35.47.16.02.14-.14.31-.06.18.08-.03.32.16.35.19.02.32-.64.5-.53.18.1.41-.06.52.01.11.07-.32.18-.24.36.08.18-.21.28-.03.35.18.06.23-.15.38-.16.15 0 .17-.03.25.13.09.16.23.07.41 0 .17-.07-.03-.23.16-.28.18-.06.3.01.44 0s.14-.32.25-.25c.11.07.08.19.16.31.08.13.18.02.31.09.14.08.22.05.38 0 .15-.05-.17-.19.09-.25.27-.07.18-.06.38 0s.16.26.31.25c.15 0 .25.19.38.13.13-.07-.08-.33.09-.28.18.05.31-.26.35-.41.04-.15-.3.12-.31-.03-.02-.15.25-.35.38-.28.12.07.15-.05.31-.06.16-.02-.02-.24-.13-.35-.11-.1-.11-.1-.31 0-.21.1-.25-.23-.16-.28.09-.05.44-.05.57-.03.13.02.06.13.25.22s.28-.07.5-.03c.22.04.13-.3.28-.28.15.01.14-.25.03-.41-.11-.16-.19.07-.28 0-.1-.07-.2.22-.41.13-.21-.1-.36.14-.44 0-.08-.14-.2-.07-.25-.13-.05-.05-.25.22-.35.13-.1-.1-.41.05-.53-.13-.12-.18-.7.04-.82.16-.11.12.2.3.16.38-.04.07-.23-.08-.38-.03-.14.04-.15-.24-.28-.22-.13.02 0-.23-.13-.25-.13-.02-.16-.15-.03-.25s.25-.15.38-.16c.13 0 0-.31.16-.31s0-.17.16-.19c.16-.02.45.18.53.38.09.2.43.16.66.19.23.03.17-.2.31-.16.15.04.28-.11.44 0 .16.11.26-.13.41-.13.14 0 .26.1.41.09Z"/><path class="cls-5" d="M26.18 29.28c.19-.05.38-.4.5-.41.12-.01.15.25.31.22s.28-.31.47-.28c.19.03.3.25.5.22.2-.02.47.24.41.31s-.38.01-.38.13c0 .11.52.07.35.13-.17.05.15.44-.06.41-.21-.03-.08.24-.38.25-.29.01-.04-.37-.19-.38-.15 0-.17.24-.41.22-.24-.02-.04-.26-.25-.28-.21-.02-.26.11-.47.09-.22-.01-.31.18-.5.13-.19-.06-.06-.38.09-.41.15-.03-.19-.3 0-.35ZM23.92 26.85l.19-.25s.17-.05.37-.05c.2 0-.08-.26 0-.36.08-.1.25-.11.35-.1.1.02-.16-.31 0-.31s.53.02.38-.09c-.15-.11.31-.25.25-.38a.31.31 0 0 0-.38-.16c-.17.05-.23.31-.38.28-.14-.03-.21-.17-.25-.35-.04-.18-.37-.12-.44-.28-.07-.16-.27-.26-.41-.28-.14-.03 0 .2-.22.22-.21.02-.21.27-.41.31-.2.04.25.43.35.53.1.11.32.12.44.06s.01-.38.13-.38c.11 0 .01.31.16.31.14 0 0 .57-.19.5-.19-.07-.26.07-.47 0-.21-.07-.35.24-.25.35.1.11.28.02.47.06.19.04-.15.23-.03.35.12.11.35 0 .35 0Z"/><path class="cls-5" d="M22.13 23.82c.21-.02.04-.38.19-.38s.09.06.25 0-.04-.3.09-.31c.13-.02.14 0 .28 0s.12-.41.25-.35c.14.06.31-.16.38 0s.19.32.44.31c.25 0 .34-.33.53-.25.19.08.47-.1.62.07.15.17.35.02.45.18.1.16.56-.1.63-.06.07.04.27.56.13.6-.14.04-.28.15-.41 0-.13-.15-.45-.13-.6-.25-.15-.12-.15.4-.28.44-.13.04-.29-.14-.38-.09-.09.05.43.21.35.31-.08.11-.26.31-.41.19-.15-.12-.44-.03-.6-.16-.16-.13-.04.2-.25.19-.21 0-.42.47-.56.38-.14-.1-.57.29-.63.13-.05-.16-.35-.19-.35-.31s-.34-.18-.22-.25c.12-.07-.12-.35.09-.38Z"/><path class="cls-5" d="M22.92 23.54c.11.11.23-.12.35-.09.11.02.06.21.19.22.13 0 .21-.24.44-.22.23.02.5.17.35.28-.16.11-.18.46-.35.35a.584.584 0 0 0-.38-.13c-.16 0-.16.28-.38.19-.22-.09-.4-.14-.47-.22-.07-.08.14-.49.25-.38Z"/></g><g><path class="cls-8" d="M30.67 10.9c.01-.08-.03-.12-.08-.15-.07-.04-.13-.08-.19-.12-.04-.03-.08-.07-.13-.1-.2-.1-.41-.13-.63-.11-.3.02-.54-.04-.72-.32-.28-.44-.54-.88-.72-1.36a6.1 6.1 0 0 0-.38-.82c-.12-.21-.27-.4-.43-.58-.23-.28-.47-.56-.73-.81-.34-.33-.71-.63-1.08-.93-.37-.3-.77-.56-1.2-.77-.05-.02-.11-.02-.17-.04.02.05.03.1.05.15-.17-.09-.35-.19-.53-.29-.19-.09-.38-.18-.57-.26-.02-.01-.06 0-.09 0 0 .03 0 .06.03.08.05.07.11.13.18.21-.09-.04-.16-.07-.24-.09a.471.471 0 0 0-.17-.04c-.08 0-.1.04-.06.1.03.04.08.08.12.11.15.12.32.21.4.41.05.12.16.21.25.32.02.02.03.04.04.07.03.08.04.16.09.23.08.12.17.23.24.33v.15c0 .04.03.08.05.12.12.2.24.4.3.64.03.15.14.27.23.42-.06.08-.05.19 0 .29.06.1.11.2.22.26.02.01.05.06.04.08-.03.11.03.19.08.27.04.07.13.11.19.16.03.03.05.07.07.1.04.07.07.16.12.22.05.06.13.09.2.13-.08.14-.07.21.04.32l.1.1c.07.08.07.21.18.25.01 0 .01.03.02.04.06.14.13.28.19.41 0 0 0 .01.01.01.09.06.12.16.16.25.02.04.07.07.09.11l.18.36c.04.08.06.17.12.23.06.07.09.15.11.23 0 .02.02.03.03.04l.09.09c.07.12.15.24.21.36.02.03.01.08 0 .11-.02.09-.07.17 0 .26v.04c-.05.06-.08.13-.16.16-.51.17-1.01.37-1.53.51-.77.22-1.54.4-2.32.6-.07.02-.18.02-.18.11 0 .08.12.08.19.09.29.03.57-.05.85-.1.08-.01.16 0 .23 0s.15.03.22.02c.18-.02.36-.06.51-.08.05.04.08.09.12.1.07.02.15.02.23.01.11 0 .23-.07.34.02h.29c.03.11.04.11.29.08-.02.12-.03.12.11.23.04.03.12-.01.18-.02 0 .12-.16.24-.03.38-.06.23-.06.25.02.34-.04.11-.09.23-.13.34-.03.09 0 .17.08.17-.03.08-.07.17-.1.25-.06.18-.19.35-.14.56 0 .01 0 .02-.01.03-.06.14-.12.27-.18.41-.06.14-.13.28-.18.42-.02.05 0 .12 0 .18.04-.04.1-.07.13-.12l.39-.69c.3-.55.61-1.09.9-1.65.23-.45.44-.9.66-1.35.07-.14.07-.14.22-.1.07.02.12.04.15.11.01.02.04.04.07.06.1.07.23.12.29.22.06.1.14.08.21.12-.01.17.14.13.22.18-.03.13-.03.14.15.18.04.05.06.1.08.1.08 0 .11.05.14.11.02.04.08.06.12.08.01.01.04.01.04.03.04.11.14.14.25.17 0 .15 0 .17.11.19l.23.03c-.04.11.03.19.15.23.02 0 .04.03.04.05.03.12.17.19.29.14.01.03.02.07.04.1.05.05.1.13.15.14.08.01.11.05.14.12.05.14.14.21.25.2.02.05.04.09.07.14.08.16.24.22.35.15.09.09.18.19.28.27.11.1.14.09.2-.05.02.02.03.03.04.05.1.11.16.25.31.32.04.02.09.03.13.05.01-.05.03-.1.03-.15 0-.05-.02-.09-.03-.14.12.12.24.23.37.34.07.06.14.14.26.1.01 0 .04.01.04.02.13.21.4.3.49.54.02.05.06.1.1.14.02.02.07.04.1.04.05 0 .06-.05.05-.1-.02-.09-.04-.18-.07-.28.09 0 .13-.04.11-.12-.05-.32-.11-.65-.17-.97.07.02.08-.05.07-.11 0-.1-.02-.2-.05-.29-.18-.6-.51-1.12-.87-1.62-.18-.25-.41-.46-.57-.71-.25-.38-.61-.61-.97-.85-.2-.13-.42-.25-.61-.39-.25-.19-.49-.4-.74-.59-.05-.04-.06-.07 0-.12.13-.11.25-.22.38-.32.08-.07.17-.12.3-.09Z"/><path class="cls-8" d="M30.67 10.9c-.13-.03-.22.02-.3.09-.13.11-.25.22-.38.32-.05.04-.05.08 0 .12.25.2.49.41.74.59.19.14.41.26.61.39.36.24.72.48.97.85.17.25.4.47.57.71.36.5.68 1.02.87 1.62.03.09.04.19.05.29 0 .06 0 .12-.07.11.06.32.12.65.17.97.01.09-.02.12-.11.12.02.09.04.19.07.28.01.05 0 .09-.05.1-.03 0-.08-.02-.1-.04a.45.45 0 0 1-.1-.14c-.09-.25-.36-.33-.49-.54 0-.01-.03-.03-.04-.02-.12.04-.19-.04-.26-.1l-.37-.34c.01.04.03.09.03.14 0 .05-.02.1-.03.15-.04-.02-.09-.03-.13-.05-.14-.06-.21-.2-.31-.32-.01-.02-.03-.03-.04-.05-.06.13-.09.14-.2.05-.1-.08-.18-.18-.28-.27-.11.07-.27 0-.35-.15a.914.914 0 0 0-.07-.14c-.11.01-.2-.05-.25-.2-.03-.07-.05-.1-.14-.12-.06 0-.11-.09-.15-.14-.02-.03-.03-.07-.04-.1-.11.05-.26-.02-.29-.14 0-.02-.02-.04-.04-.05-.12-.05-.18-.12-.15-.23l-.23-.03c-.1-.01-.11-.04-.11-.19-.1-.02-.2-.05-.25-.17 0-.01-.03-.02-.04-.03-.04-.03-.09-.05-.12-.08-.04-.06-.06-.1-.14-.11-.03 0-.05-.06-.08-.1-.18-.04-.18-.05-.15-.18-.08-.05-.24-.01-.22-.18-.07-.04-.15-.02-.21-.12-.06-.1-.19-.15-.29-.22-.02-.02-.06-.03-.07-.06-.03-.07-.08-.09-.15-.11-.14-.04-.15-.04-.22.1-.22.45-.43.91-.66 1.35-.29.55-.6 1.1-.9 1.65-.13.23-.25.47-.39.69-.03.05-.08.08-.13.12 0-.06-.02-.13 0-.18.05-.14.12-.28.18-.42.06-.14.12-.27.18-.41 0-.01.01-.02.01-.03-.05-.21.08-.38.14-.56.03-.08.06-.17.1-.25-.08 0-.11-.09-.08-.17.04-.11.09-.23.13-.34-.08-.09-.08-.11-.02-.34-.13-.14.02-.26.03-.38-.06 0-.15.05-.18.02-.14-.11-.13-.11-.11-.23-.25.03-.26.03-.29-.08h-.29c-.11-.09-.22-.03-.34-.02-.08 0-.15 0-.23-.01-.04 0-.07-.06-.12-.1-.15.03-.33.06-.51.08-.07 0-.14-.02-.22-.02h-.23c-.28.04-.56.12-.85.1-.08 0-.19 0-.19-.09s.11-.09.18-.11c.77-.2 1.55-.38 2.32-.6.52-.15 1.02-.34 1.53-.51.09-.03.12-.1.16-.16v-.04c-.06-.09-.01-.17 0-.26 0-.04.01-.08 0-.11l-.21-.36c-.02-.04-.06-.06-.09-.09-.01-.01-.03-.03-.03-.04a.544.544 0 0 0-.11-.23c-.06-.06-.08-.15-.12-.23l-.18-.36c-.02-.04-.07-.07-.09-.11-.04-.09-.07-.19-.16-.25l-.01-.01c-.06-.14-.13-.28-.19-.41 0-.01 0-.04-.02-.04-.12-.05-.12-.17-.18-.25a.474.474 0 0 0-.1-.1c-.1-.11-.11-.18-.04-.32-.07-.04-.14-.07-.2-.13-.05-.06-.08-.14-.12-.22-.02-.03-.04-.07-.07-.1-.06-.06-.14-.1-.19-.16-.05-.08-.12-.16-.08-.27 0-.02-.02-.07-.04-.08-.1-.06-.16-.16-.22-.26s-.07-.21 0-.29c-.08-.15-.19-.27-.23-.42-.05-.24-.18-.43-.3-.64-.02-.04-.04-.08-.05-.12-.01-.05 0-.09 0-.15-.07-.1-.16-.21-.24-.33-.04-.07-.06-.15-.09-.23 0-.02-.03-.05-.04-.07-.08-.11-.2-.2-.25-.32-.08-.2-.25-.29-.4-.41a.628.628 0 0 1-.12-.11c-.04-.06-.02-.11.06-.1.06 0 .11.02.17.04.08.03.15.06.24.09-.07-.08-.12-.14-.18-.21-.02-.02-.02-.05-.03-.08.03 0 .07-.02.09 0 .19.09.38.17.57.26.18.09.36.19.53.29-.02-.04-.03-.1-.05-.15.06.01.12.01.17.04.43.21.83.48 1.2.77.37.3.74.6 1.08.93.26.25.49.53.73.81.15.18.31.37.43.58.15.26.27.53.38.82.18.48.44.93.72 1.36.18.28.41.34.72.32.21-.02.43 0 .63.11.05.03.09.07.13.1.06.04.12.09.19.12.06.03.1.07.08.15Z"/></g></svg>