<?xml version="1.0" encoding="UTF-8"?>
<svg id="Layer_2" data-name="Layer 2" xmlns="http://www.w3.org/2000/svg" viewBox="0 0 51 51.01">
  <defs>
    <style>
      .cls-1 {
        fill: #000;
        stroke-width: 0px;
      }
    </style>
  </defs>
  <g id="Layer_1-2" data-name="Layer 1">
    <path class="cls-1" d="M48.81,10.71C45.4,4.11,38.67,0,31.25,0H4.03C1.81,0,0,1.81,0,4.03v21.77c0,.07,0,.33,0,.33,0,.75.05,1.48.12,2.16.14,1.45.42,2.91.82,4.35.39,1.38.89,2.72,1.49,3.98.88,1.85,1.99,3.59,3.28,5.17,1.95,2.38,4.3,4.36,6.98,5.89.56.32,1.06.59,1.54.82,3.33,1.61,6.91,2.45,10.64,2.5,0,0,.26,0,.33,0h21.77c2.22,0,4.03-1.81,4.03-4.03v-27.22c0-3.18-.74-6.22-2.19-9.04ZM13.76,11.49c.2-.09.43,0,.52.2s0,.43-.2.52-.43,0-.52-.2c-.09-.2,0-.43.2-.52ZM11.94,12.51c-.08.2-.3.3-.5.22-.2-.08-.3-.3-.22-.5.08-.2.3-.3.5-.22.2.08.3.3.22.5ZM11.99,11.08c.17-.13.41-.1.55.06s.1.41-.06.55c-.17.13-.41.1-.55-.06-.13-.17-.1-.41.06-.55ZM12,13.49c.21-.04.42.1.46.31.04.21-.1.42-.31.46-.21.04-.42-.1-.46-.31-.04-.21.1-.42.31-.46ZM12.37,12.5c-.03-.21.12-.41.33-.44s.41.12.44.33c.03.21-.12.41-.33.44s-.41-.12-.44-.33ZM13.13,13.13c.1-.19.34-.27.53-.17.19.1.27.34.17.54-.1.19-.34.27-.53.17-.19-.1-.27-.34-.17-.53ZM13.43,10.71c-.06.21-.27.34-.48.28-.21-.06-.34-.27-.28-.48.06-.21.27-.34.48-.28.21.06.34.27.28.48ZM12.99,1.2c-.04.09-.08.19-.12.27-.14.25-.6.63-.74.65-.28-.21-.49-.43-.62-.65-.05-.08-.09-.17-.12-.27h1.6ZM11.3,10.19c.18-.13.42-.09.55.08s.09.42-.08.55-.42.09-.55-.08c-.13-.18-.09-.42.08-.55ZM11.06,13.39c-.14.17-.39.19-.56.04s-.19-.39-.04-.56.39-.19.56-.04.19.39.04.56ZM10.91,11.65c0,.22-.19.39-.41.38-.22,0-.39-.19-.38-.41,0-.22.19-.39.41-.38.22,0,.39.19.38.41ZM1.2,7.88v-3.85c0-1.56,1.27-2.83,2.83-2.83h4.72c-.1.06-.2.12-.3.19-.73.57-1.21,1.48-1.35,2.58-.13.95.05,1.94.5,2.86.35.72.84,1.35,1.49,1.95.39.36.84.77,1.2,1.25l.15.21-.14.14-.21-.15c-.49-.36-.89-.81-1.26-1.2-.6-.65-1.24-1.13-1.95-1.49-.73-.36-1.49-.54-2.25-.54-.2,0-.41.01-.61.04-1.1.14-2.01.62-2.58,1.35-.1.12-.17.26-.24.39v-.91ZM1.2,11.31c.12.04.23.09.32.14.23.13.45.34.65.74-.02.02-.4.47-.65.61-.08.05-.2.1-.32.14v-1.63ZM1.31,28.17c-.07-.68-.1-1.36-.11-2.06h5.24c-.2.15-.4.3-.59.47-.15.13-.3.27-.44.41-.27.27-.55.54-.75.86-.04.07-.08.16-.06.23.04.12.2.13.33.15.08.01.16.03.24.05-.18.11-.37.19-.58.22-.33.05-.61.01-.63.01-1.97-.25-1.52-.17-1.93-.24-.11-.02-.39-.07-.71-.11ZM24.89,49.8c-3.63-.05-7.07-.89-10.14-2.38.17-.11.37-.26.62-.44.43-.32.51-.46,1.24-1.08.47-.39.7-.59.86-.69.37-.22,1.13-.53,2.56-.2-.04.03-.06.07-.11.09-.05.02-.11.04-.16.07-.06.03-.12.06-.17.11-.03.03-.06.06-.07.09-.04.08,0,.17.03.26.01.03.02.06.04.08.15.2.34.38.55.53.2.14.4.28.61.42.09.06.18.11.29.12.11,0,.21-.05.3-.11.27-.18.47-.43.65-.69s.32-.54.51-.79c.04-.06.14-.18.31-.24.12-.04.22-.04.25-.04.25,0,1.06-.12,1.86-.27v5.18ZM24.89,30.21c-1.86-.24-1.44-.16-1.84-.23-.3-.05-1.92-.34-2.16-.07-.04.05-.07.11-.07.11-.08.18,0,.36,0,.41.12.33-.03.67.3,1.92.35,1.33.52,1.99.96,2.09.35.08.71-.19,1.41-.7.43-.32.51-.46,1.24-1.08.05-.05.1-.08.15-.12v6.61s0,0,0,0c0,0,0,.02,0,.03v.15c-.03.08-.09.14-.17.16-.02,0-.04,0-.05.02-.01.01-.01.03-.01.05,0,.16-.14.3-.31.33,0,.06-.03.12-.05.17-.19.01-.33-.11-.49-.21-.31-.21-.66-.36-1.01-.51-.05-.02-.1-.04-.15-.05-.05-.01-.11,0-.17,0-.37.04-.7.25-1.02.45-.43.27-.86.54-1.31.79-.51.29-.97.62-1.41,1-.15.13-.3.27-.44.41-.27.27-.55.54-.75.86-.04.07-.08.16-.06.23.04.12.2.13.33.15.08.01.16.03.24.05-.18.11-.37.19-.58.22-.33.05-.61.01-.63.01-1.97-.25-1.52-.17-1.93-.24-.3-.05-1.92-.34-2.16-.07-.04.05-.07.11-.07.11-.08.18,0,.36,0,.41.12.33-.03.67.3,1.92.11.41.2.76.29,1.05-2.54-1.46-4.8-3.36-6.65-5.61.66-.12,1.37-.26,1.77-.34.66-.14,1.57-.38,2.64-.78l-.69.4c-.11.14-.19.31-.17.49,0,.07.03.13.05.19.1.29.2.57.3.86.02.05.05.11.1.13.05.01.11-.02.16-.05.29-.21.51-.5.68-.81s.28-.64.39-.97c.07-.19.13-.38.2-.58.03,0,.09-.02.12-.03.89-.4,1.79-.8,2.68-1.2.52-.22.94-.44,1.23-.6,1.11-.61.99-.76,2.11-1.63.07-.06.27-.21.27-.4,0-.01,0-.14-.09-.18-.09-.04-.21.04-.28.09-.49.34-.95.97-1.04.93-.07-.03.1-.49.17-.66.16-.38.33-.61.42-.72.06-.06.1-.12.14-.15.01-.01.01-.03,0-.05,0-.02-.03-.02-.05-.02-.34-.03-.84-.06-1.47-.09-1.33-.06-2.48-.1-3.91.03-.44.04-1.08.12-1.86.26-.4-.33-.81-.65-1.25-.93-.02-.01-.04-.03-.07-.03-.08-.01-.13.07-.16.14-.26-.17-.52-.35-.81-.47.02.06,0,.14-.06.19-.06.05-.14.06-.2.03,0,.13-.14.26-.28.26,0,.07-.03.13-.08.18s-.12.08-.18.11c.05.14-.03.31-.18.38.04.1.03.21-.03.3-.06.09-.17.15-.28.16.08.12-.01.31-.17.35-.02,0-.04,0-.05.02-.01.01-.01.03-.01.05,0,.16-.14.3-.31.33,0,.06-.03.12-.05.17-.19.01-.33-.11-.49-.21-.31-.21-.66-.36-1.01-.51-.05-.02-.1-.04-.15-.05-.05-.01-.11,0-.17,0-.37.04-.7.25-1.02.45,0,0-.02.01-.03.02-.58-1.21-1.05-2.48-1.42-3.79.12-.08.24-.17.38-.28.43-.32.51-.46,1.24-1.08.47-.39.7-.59.86-.69.37-.22,1.13-.53,2.56-.2-.04.03-.06.07-.11.09-.05.02-.11.04-.17.07-.06.03-.12.06-.17.11-.03.03-.06.06-.07.09-.04.08,0,.17.03.26.01.03.02.06.04.08.15.2.34.38.55.53.2.14.4.28.61.42.09.06.18.11.29.12.11,0,.21-.05.3-.11.27-.18.47-.43.65-.69s.32-.54.51-.79c.04-.06.14-.18.31-.24.12-.04.22-.04.25-.04.42.02,2.5-.38,3.29-.55.66-.14,1.57-.38,2.64-.78l-.69.4c-.11.14-.19.31-.17.49,0,.07.03.13.05.19.1.29.2.57.3.86.02.05.05.11.1.13.05.01.11-.02.16-.05.29-.21.51-.5.68-.81.17-.31.28-.64.39-.97.07-.19.13-.38.2-.58.03,0,.09-.02.12-.03.89-.4,1.79-.8,2.68-1.2.52-.22.94-.44,1.23-.6.23-.13.41-.24.56-.34h3.19v4.1ZM24.9,24.89H1.2v-9.42c.08.13.14.27.24.39.57.73,1.48,1.21,2.58,1.35.21.03.41.04.62.04.76,0,1.52-.18,2.24-.54.72-.35,1.36-.84,1.96-1.48.43-.47.8-.86,1.26-1.2l.2-.15.14.14-.14.2c-.36.49-.81.89-1.2,1.26-.65.6-1.14,1.24-1.49,1.95-.45.92-.62,1.91-.5,2.86.14,1.09.62,2.01,1.35,2.58.58.45,1.34.71,2.15.71.23,0,.46-.02.68-.06h.05c-.05-.27.06-.52.18-.72.13-.23.34-.44.74-.65.02.02.47.4.62.65.12.2.23.46.18.71h.05c.23.05.46.07.68.07.8,0,1.57-.25,2.15-.7.73-.57,1.21-1.48,1.35-2.58.13-.95-.04-1.94-.49-2.86-.35-.72-.84-1.36-1.48-1.96-.39-.36-.84-.77-1.2-1.26l-.14-.19.14-.14.19.14c.45.34.82.73,1.26,1.2.6.65,1.24,1.13,1.96,1.48.73.36,1.48.54,2.24.54.21,0,.41-.01.62-.04,1.09-.15,2.01-.63,2.58-1.35.59-.75.82-1.79.64-2.83v-.05c-.05,0-.1.01-.14.01-.22,0-.44-.11-.58-.19-.25-.14-.63-.6-.65-.74.21-.28.42-.49.65-.62.14-.08.36-.19.58-.19.04,0,.09,0,.13.01v-.05c.19-1.04-.05-2.08-.64-2.83-.57-.73-1.48-1.21-2.58-1.35-.2-.03-.41-.04-.61-.04-.76,0-1.52.18-2.25.54-.72.35-1.36.84-1.95,1.49-.36.39-.77.84-1.25,1.2l-.2.14-.14-.14.15-.2c.36-.48.81-.89,1.2-1.26.65-.6,1.13-1.24,1.48-1.96.45-.92.62-1.91.49-2.86-.15-1.09-.63-2.01-1.35-2.58-.09-.07-.19-.13-.29-.19h9.27v23.7ZM38.38,17.04c-.14-.24-.33-.53-.44-.95-.05-.21-.07-.45-.04-.68.06-.54.4-.99.73-1.37.72-.83,1.6-1.47,2.54-1.98-1.55-1.43-2.92-3.31-4.52-4.63-.62-.51-1.3-.95-2.02-1.02-.92-.08-1.82.45-2.64,1.05-2.2,1.59-4.19,3.72-5.87,6.24V1.2h5.14c7.19,0,13.42,4.09,16.5,10.07-.52-.3-1.07-.53-1.65-.57-.92-.06-1.82.36-2.64.83-.57.32-1.12.68-1.66,1.06,0,0,0,0,0,0-.83.63-1.56,1.37-2.09,2.24-.1.17-.23.38-.27.56-.01.05-.02.1,0,.14.07.17.16.25.36.49.63.65.98,1.39,1.01,2.32.03.85-.23,1.72-.6,2.43-.99,1.89-2.81,3.14-4.61,4.14h-4.19c1.44-.54,2.85-1.12,4.23-1.79,1.81-.92,3.77-2.28,4.15-4.42.04-.26.05-.53.01-.79-.03-.26-.11-.52-.24-.76-.23-.46-.65-.82-.81-1.31-.17-.51.16-.99.45-1.38.3-.42.65-.8,1.04-1.14.4-.35.82-.67,1.26-.95-.01-.01-.03-.02-.04-.04-1.13.72-2.28,1.61-2.89,2.76-.26.53,0,1.06.32,1.48.15.21.31.41.42.64.15.28.22.6.23.91,0,.18,0,.39-.04.57-.63,3.1-4.85,4.43-7.46,5.5-.66.26-1.33.5-2,.74h-3.94s6.55-2.23,7.96-2.68c1.93-.63,4.34-1.83,4.68-4.06.05-.43-.12-.75-.36-1.11ZM49.81,38.74c-1.57-.51-3.26-.73-4.88-.22-.08.04-.2.07-.28.1-.48.17-.88.42-1.18.84-.42.64-.77,1.25-1.11,1.9-.17.3-.38.61-.63.83-.12.07-.21.22-.37.26-.12.03-.2.07-.28.1-.36.06-.7,0-1.05-.13-.34-.17-.61-.38-.91-.63-.19-.17-.34-.33-.48-.53-.26-.32-.41-.81-.16-1.15.07-.09.17-.16.29-.18.49-.11,2.07-.37,2.87-.85.73-.43,1.31-.94,1.61-1.68.52-1.37.3-3.27-.68-4.42.45-.03,1.15.24,1.57.38,1.49.47,3.13,1.07,4.69.53-.31.02-.62.03-.92.02-1.08-.01-2.19-.19-3.14-.73.53.11,1.08.1,1.61.08.39-.01.78-.06,1.14-.2-.02.02.04,0,.25-.12-2.24.57-4.62-.18-6.31-1.71-.72-.43-1.57-.67-2.39-.67-.51.01-.98.11-1.5.2-.12.03-.23.06-.35.1-.36.14-.72.2-1.08.38-.16.11-.36.18-.52.29-1.93.21-5.84.88-5.87.87-.91.15-1.74.3-2.61.49.18.32,5.46.64,5.55.64.12,0,.24,0,.37,0,.89,0,1.79-.01,2.68-.02,1.18.11,1.88.3,2.31.46.11.04.26.1.52.18.82.26.97.19,1.28.36.07.04.65.37.78,1.01.09.43-.06.96-.42,1.28-.29.26-.68.2-.98.03-.42-.26-.79-.59-1.3-.58-.79.08-1.32.6-1.78,1.2-.47.72-.74,1.49-.82,2.34-.06,1.21.23,2.36.76,3.44l.11.12c.08.17.11.34.24.47.03.04.07.08.1.12.97,1.64,2.32,2.76,3.86,3.69.19.09.43.1.67.1-.11-.05-.21-.12-.28-.22.29.06.49.31.71.48.26.2.58.34.9.42-.28-.2-.53-.43-.77-.68.52.37,1.07.73,1.7.87-.19-.11-.35-.26-.49-.43.68.29,1.19.95,1.95,1.07-.49-.26-.93-.59-1.3-1,.54.15,2,1.3,2.35,1.57h-19.73v-23.7h23.7v12.63Z"/>
  </g>
</svg>