<?xml version="1.0" encoding="UTF-8"?>
<svg id="Layer_2" data-name="Layer 2" xmlns="http://www.w3.org/2000/svg" viewBox="0 0 51 51">
  <defs>
    <style>
      .cls-1 {
        fill: #578e40;
      }

      .cls-1, .cls-2, .cls-3, .cls-4, .cls-5 {
        stroke-width: 0px;
      }

      .cls-2 {
        fill: #f5933b;
      }

      .cls-3 {
        fill: #183c68;
      }

      .cls-4 {
        fill: #fff;
      }

      .cls-5 {
        fill: #864198;
      }
    </style>
  </defs>
  <g id="Layer_1-2" data-name="Layer 1">
    <g>
      <path class="cls-4" d="M25.21,51c-.07,0-.33,0-.33,0-3.74-.05-7.32-.89-10.64-2.5-.48-.23-.98-.5-1.54-.82-2.68-1.53-5.03-3.52-6.98-5.89-1.3-1.58-2.4-3.32-3.28-5.17-.6-1.26-1.1-2.6-1.49-3.98-.4-1.44-.68-2.9-.82-4.35-.07-.68-.11-1.41-.12-2.16,0,0,0-.26,0-.33V4.03C0,1.81,1.81,0,4.03,0h27.22c7.42,0,14.15,4.1,17.56,10.71,1.46,2.82,2.19,5.86,2.19,9.04v27.22c0,2.22-1.81,4.03-4.03,4.03h-21.77Z"/>
      <path class="cls-4" d="M47.79,11.3c-3.08-5.98-9.31-10.07-16.5-10.07H4.07c-1.56,0-2.83,1.27-2.83,2.83v21.77c0,.11,0,.21,0,.31,0,.69.04,1.38.11,2.06.14,1.42.41,2.8.78,4.14.37,1.31.84,2.58,1.42,3.79.84,1.77,1.9,3.43,3.13,4.93,1.85,2.25,4.1,4.16,6.65,5.61.48.27.97.54,1.47.78,3.07,1.49,6.51,2.33,10.14,2.38.1,0,.21,0,.31,0h21.77c1.56,0,2.83-1.27,2.83-2.83v-27.22c0-3.06-.75-5.95-2.06-8.5Z"/>
      <path class="cls-3" d="M3.95,28.52s.3.04.63-.01c.21-.03.4-.1.58-.22-.08-.02-.16-.04-.24-.05-.13-.02-.29-.04-.33-.15-.03-.08.01-.16.06-.23.2-.32.48-.59.75-.86.14-.14.29-.28.44-.41.19-.17.39-.32.59-.47H1.2c0,.69.04,1.38.11,2.06.32.04.6.09.71.11.41.07-.04-.01,1.93.24Z"/>
      <path class="cls-3" d="M3.54,36.08c.31-.2.64-.41,1.02-.45.06,0,.11,0,.17,0,.05.01.1.03.15.05.35.15.7.3,1.01.51.15.1.3.23.49.21.03-.06.04-.11.05-.17.16-.03.3-.18.31-.33,0-.02,0-.04.01-.05.01-.01.03-.02.05-.02.15-.03.24-.22.17-.35.11,0,.22-.07.28-.16.06-.09.07-.21.03-.3.14-.06.23-.24.18-.38.06-.03.13-.06.18-.11.05-.05.09-.12.08-.18.14,0,.28-.13.28-.26.06.03.15.02.2-.03.06-.05.08-.12.06-.19.29.12.55.29.81.47.03-.07.09-.15.16-.14.02,0,.05.02.07.03.44.28.85.6,1.25.93.77-.15,1.42-.22,1.86-.26,1.42-.13,2.57-.09,3.91-.03.62.03,1.13.06,1.47.09.02,0,.04,0,.05.02s0,.04,0,.05c-.03.03-.08.09-.14.15-.09.1-.27.33-.42.72-.07.17-.24.63-.17.66.09.04.55-.59,1.04-.93.07-.05.2-.13.28-.09.08.04.09.17.09.18,0,.19-.2.34-.27.4-1.12.87-1.01,1.02-2.11,1.63-.29.16-.71.38-1.23.6-.89.4-1.79.8-2.68,1.2-.03,0-.09.02-.12.03-.07.19-.13.38-.2.58-.11.33-.23.66-.39.97-.17.31-.39.6-.68.81-.05.03-.1.07-.16.05-.06-.01-.08-.08-.1-.13-.1-.29-.2-.57-.3-.86-.02-.06-.04-.13-.05-.19-.02-.17.05-.34.17-.49l.69-.4c-1.08.4-1.98.64-2.64.78-.39.09-1.1.22-1.77.34,1.85,2.25,4.1,4.16,6.65,5.61-.09-.29-.18-.63-.29-1.05-.33-1.26-.18-1.59-.3-1.92-.02-.05-.09-.23,0-.41,0,0,.03-.06.07-.11.24-.27,1.86.02,2.16.07.41.07-.04-.01,1.93.24.02,0,.3.04.63-.01.21-.03.4-.1.58-.22-.08-.02-.16-.04-.24-.05-.13-.02-.29-.04-.33-.15-.03-.08.01-.16.06-.23.2-.32.48-.59.75-.86.14-.14.29-.28.44-.41.44-.38.9-.71,1.41-1,.44-.25.88-.52,1.31-.79.31-.2.64-.41,1.02-.45.06,0,.11,0,.17,0,.05.01.1.03.15.05.35.15.7.3,1.01.51.15.1.3.23.49.21.03-.06.04-.11.05-.17.16-.03.3-.18.31-.33,0-.02,0-.04.01-.05.01-.01.03-.02.05-.02.08-.02.15-.08.18-.16v-.15s0-.02,0-.03c0,0,0,0,0,0v-6.6s-.09.08-.15.12c-.73.62-.81.76-1.24,1.08-.7.52-1.06.78-1.41.7-.43-.1-.61-.76-.96-2.09-.33-1.26-.18-1.59-.3-1.92-.02-.05-.09-.23,0-.41,0,0,.03-.06.07-.11.24-.27,1.86.02,2.16.07.4.07-.02,0,1.84.23v-4.1h-3.19c-.15.1-.33.21-.56.34-.29.16-.71.38-1.23.6-.89.4-1.79.8-2.68,1.2-.03,0-.09.02-.12.03-.07.19-.13.38-.2.58-.11.33-.23.66-.39.97-.17.31-.39.6-.68.81-.05.03-.1.07-.16.05-.06-.01-.08-.08-.1-.13-.1-.29-.2-.57-.3-.86-.02-.06-.04-.13-.05-.19-.02-.17.05-.34.17-.49l.69-.4c-1.08.4-1.98.64-2.64.78-.8.17-2.87.57-3.29.55-.03,0-.13,0-.25.04-.17.06-.27.18-.31.24-.19.25-.34.53-.51.79-.17.26-.38.51-.65.69-.09.06-.19.11-.3.11-.11,0-.2-.06-.29-.12-.21-.13-.41-.27-.61-.42-.21-.15-.39-.33-.55-.53-.02-.02-.03-.05-.04-.08-.03-.08-.07-.17-.03-.26.02-.04.04-.06.07-.09.05-.04.11-.08.17-.11.05-.02.11-.04.17-.07.05-.02.06-.06.11-.09-1.43-.33-2.19-.02-2.56.2-.16.1-.39.3-.86.69-.73.62-.81.76-1.24,1.08-.14.1-.26.19-.38.28.37,1.31.84,2.58,1.42,3.79,0,0,.02-.01.03-.02Z"/>
      <path class="cls-3" d="M23.04,44.89s-.13,0-.25.04c-.17.06-.27.18-.31.24-.19.25-.34.53-.51.79-.17.26-.38.51-.65.69-.09.06-.19.11-.3.11-.11,0-.2-.06-.29-.12-.21-.13-.41-.27-.61-.42-.21-.15-.39-.33-.55-.53-.02-.02-.03-.05-.04-.08-.03-.08-.07-.17-.03-.26.02-.04.04-.06.07-.09.05-.04.11-.08.17-.11.05-.02.11-.04.17-.07.05-.02.06-.06.11-.09-1.43-.33-2.19-.02-2.56.2-.16.1-.39.3-.86.69-.73.62-.81.76-1.24,1.08-.24.18-.44.32-.62.44,3.07,1.49,6.51,2.33,10.14,2.38v-5.18c-.79.15-1.61.28-1.86.27Z"/>
      <path class="cls-2" d="M31.25,1.2h-5.14v12.49c1.68-2.53,3.67-4.65,5.87-6.24.82-.6,1.71-1.13,2.64-1.05.72.06,1.4.5,2.02,1.02,1.61,1.33,2.98,3.2,4.52,4.63-.94.52-1.82,1.15-2.54,1.98-.33.39-.67.83-.73,1.37-.03.23-.01.47.04.68.11.42.3.72.44.95.24.37.41.68.36,1.11-.34,2.23-2.75,3.43-4.68,4.06-1.41.46-7.96,2.68-7.96,2.68h3.94c.67-.24,1.34-.48,2-.74,2.61-1.07,6.83-2.4,7.46-5.5.03-.18.04-.39.04-.57-.02-.31-.08-.63-.23-.91-.11-.23-.27-.43-.42-.64-.33-.42-.58-.95-.32-1.48.61-1.14,1.76-2.03,2.89-2.76.01.01.03.02.04.04-.44.29-.86.6-1.26.95-.39.34-.73.73-1.04,1.14-.29.39-.62.88-.45,1.38.16.49.58.85.81,1.31.13.23.2.49.24.76.04.26.03.54-.01.79-.38,2.14-2.33,3.51-4.15,4.42-1.38.68-2.79,1.26-4.23,1.79h4.19c1.8-1.01,3.62-2.25,4.61-4.14.37-.71.63-1.58.6-2.43-.03-.93-.39-1.66-1.01-2.32-.2-.23-.28-.32-.36-.49-.02-.04,0-.09,0-.14.04-.17.17-.39.27-.56.53-.88,1.26-1.61,2.09-2.24,0,0,0,0,0,0,.54-.38,1.09-.73,1.66-1.06.82-.47,1.71-.89,2.64-.83.58.04,1.13.27,1.65.57-3.08-5.98-9.31-10.07-16.5-10.07Z"/>
      <path class="cls-1" d="M26.1,26.11v23.7h19.73c-.35-.26-1.81-1.42-2.35-1.57.37.4.82.74,1.3,1-.76-.12-1.27-.77-1.95-1.07.13.17.3.32.49.43-.63-.15-1.18-.5-1.7-.87.24.25.49.48.77.68-.32-.07-.64-.22-.9-.42-.23-.17-.42-.42-.71-.48.07.09.17.17.28.22-.25,0-.48,0-.67-.1-1.55-.94-2.89-2.05-3.86-3.69-.03-.04-.07-.08-.1-.12-.13-.13-.16-.3-.24-.47l-.11-.12c-.53-1.08-.82-2.23-.76-3.44.08-.86.36-1.62.82-2.34.46-.6,1-1.12,1.78-1.2.51-.01.88.32,1.3.58.3.17.69.23.98-.03.36-.32.51-.86.42-1.28-.13-.65-.71-.97-.78-1.01-.32-.17-.47-.1-1.28-.36-.25-.08-.41-.14-.52-.18-.43-.16-1.14-.34-2.31-.46-.89,0-1.79.01-2.68.02-.12,0-.24,0-.37,0-.09,0-5.37-.32-5.55-.64.87-.19,1.7-.34,2.61-.49.04,0,3.95-.66,5.87-.87.16-.11.36-.18.52-.29.36-.18.72-.24,1.08-.38.12-.03.23-.06.35-.1.51-.09.99-.18,1.5-.2.82,0,1.67.24,2.39.67,1.68,1.53,4.07,2.28,6.31,1.71-.2.12-.27.14-.25.12-.36.15-.75.19-1.14.2-.54.02-1.08.02-1.61-.08.95.54,2.06.72,3.14.73.31,0,.62,0,.92-.02-1.56.53-3.2-.07-4.69-.53-.43-.13-1.12-.41-1.57-.38.98,1.15,1.2,3.05.68,4.42-.31.74-.89,1.25-1.61,1.68-.8.48-2.38.74-2.87.85-.11.03-.22.09-.29.18-.26.34-.1.83.16,1.15.15.2.29.37.48.53.3.25.56.46.91.63.35.14.69.19,1.05.13.08-.04.16-.07.28-.1.16-.03.24-.18.37-.26.25-.22.46-.52.63-.83.35-.65.69-1.26,1.11-1.9.3-.42.7-.67,1.18-.84.08-.04.2-.07.28-.1,1.61-.51,3.31-.29,4.88.22v-12.63h-23.7Z"/>
      <g>
        <path class="cls-5" d="M12.13,2.11c.14-.02.59-.4.74-.65.05-.08.09-.17.12-.27h-1.6c.04.09.08.19.12.27.13.23.34.44.62.65Z"/>
        <path class="cls-5" d="M1.44,8.4c.57-.73,1.48-1.21,2.58-1.35.2-.03.41-.04.61-.04.76,0,1.52.18,2.25.54.72.35,1.36.84,1.95,1.49.36.39.77.84,1.26,1.2l.21.15.14-.14-.15-.21c-.36-.49-.81-.89-1.2-1.25-.65-.6-1.14-1.24-1.49-1.95-.45-.92-.62-1.91-.5-2.86.14-1.09.62-2.01,1.35-2.58.09-.07.2-.13.3-.19h-4.72c-1.56,0-2.83,1.27-2.83,2.83v4.76c.08-.13.15-.27.24-.39Z"/>
        <path class="cls-5" d="M2.17,12.19c-.2-.4-.42-.61-.65-.74-.08-.05-.2-.1-.32-.14v1.63c.12-.04.23-.09.32-.14.25-.14.63-.6.65-.61Z"/>
        <path class="cls-5" d="M18.48,1.2h-2.85c.1.06.2.12.29.19.73.57,1.21,1.48,1.35,2.58.13.95-.04,1.94-.49,2.86-.35.72-.84,1.36-1.48,1.96-.39.36-.84.77-1.2,1.26l-.15.2.14.14.2-.14c.49-.36.89-.81,1.25-1.2.6-.65,1.24-1.13,1.95-1.49.73-.36,1.48-.54,2.25-.54.2,0,.41.01.61.04,1.1.14,2.01.62,2.58,1.35.59.75.83,1.78.65,2.83v.05c-.05,0-.1-.01-.14-.01-.22,0-.44.11-.58.19-.23.13-.45.34-.65.62.02.14.4.59.65.74.14.08.36.19.58.19.04,0,.09,0,.13-.01v.05c.19,1.04-.04,2.08-.63,2.83-.57.73-1.48,1.21-2.58,1.35-.21.03-.41.04-.62.04-.76,0-1.52-.18-2.24-.54-.72-.35-1.36-.84-1.96-1.48-.43-.47-.8-.86-1.26-1.2l-.19-.14-.14.14.14.19c.36.48.81.89,1.2,1.26.65.6,1.13,1.24,1.48,1.96.45.92.62,1.91.49,2.86-.15,1.09-.63,2.01-1.35,2.58-.58.45-1.34.7-2.15.7-.23,0-.46-.02-.68-.06h-.05c.05-.27-.06-.52-.18-.72-.14-.25-.6-.63-.62-.65-.4.2-.61.42-.74.65-.12.2-.23.46-.18.71h-.05c-.22.05-.45.07-.68.07-.8,0-1.57-.25-2.15-.71-.73-.57-1.21-1.48-1.35-2.58-.13-.95.05-1.94.5-2.86.35-.72.84-1.35,1.49-1.95.39-.36.84-.77,1.2-1.26l.14-.2-.14-.14-.2.15c-.45.34-.82.73-1.26,1.2-.6.65-1.24,1.13-1.96,1.48-.73.36-1.48.54-2.24.54-.21,0-.41-.01-.62-.04-1.09-.15-2.01-.63-2.58-1.35-.09-.12-.16-.26-.24-.39v9.42h23.7V1.2h-6.42Z"/>
      </g>
      <g>
        <g id="_Radial_Repeat_" data-name="&amp;lt;Radial Repeat&amp;gt;">
          <circle class="cls-5" cx="12.08" cy="13.88" r=".4"/>
        </g>
        <g id="_Radial_Repeat_-2" data-name="&amp;lt;Radial Repeat&amp;gt;">
          <circle class="cls-5" cx="10.76" cy="13.13" r=".4"/>
        </g>
        <g id="_Radial_Repeat_-3" data-name="&amp;lt;Radial Repeat&amp;gt;">
          <circle class="cls-5" cx="10.51" cy="11.64" r=".4"/>
        </g>
        <g id="_Radial_Repeat_-4" data-name="&amp;lt;Radial Repeat&amp;gt;">
          <circle class="cls-5" cx="11.53" cy="10.51" r=".4"/>
        </g>
        <g id="_Radial_Repeat_-5" data-name="&amp;lt;Radial Repeat&amp;gt;">
          <circle class="cls-5" cx="13.05" cy="10.61" r=".4"/>
        </g>
        <g id="_Radial_Repeat_-6" data-name="&amp;lt;Radial Repeat&amp;gt;">
          <circle class="cls-5" cx="13.92" cy="11.85" r=".4"/>
        </g>
        <g id="_Radial_Repeat_-7" data-name="&amp;lt;Radial Repeat&amp;gt;">
          <circle class="cls-5" cx="13.48" cy="13.31" r=".4"/>
        </g>
      </g>
      <g>
        <circle class="cls-5" cx="12.23" cy="11.38" r=".39"/>
        <circle class="cls-5" cx="12.76" cy="12.45" r=".39"/>
        <circle class="cls-5" cx="11.58" cy="12.37" r=".39"/>
      </g>
    </g>
  </g>
</svg>