<?xml version="1.0" encoding="UTF-8"?>
<svg id="Layer_2" data-name="Layer 2" xmlns="http://www.w3.org/2000/svg" viewBox="0 0 45.7 45.7">
  <defs>
    <style>
      .cls-1 {
        fill: #183c68;
        stroke-width: 0px;
      }
    </style>
  </defs>
  <g id="Layer_1-2" data-name="Layer 1">
    <path class="cls-1" d="M43.73,9.6C40.68,3.68,34.65,0,28,0H3.61C1.62,0,0,1.62,0,3.61v19.51c0,.07,0,.29,0,.29,0,.67.04,1.32.1,1.93.13,1.3.37,2.61.74,3.9.35,1.23.8,2.43,1.33,3.56.79,1.66,1.78,3.22,2.94,4.64,1.75,2.13,3.85,3.9,6.25,5.28.5.29.95.53,1.38.73,2.98,1.44,6.19,2.2,9.54,2.24,0,0,.23,0,.29,0h19.51c1.99,0,3.61-1.62,3.61-3.61v-24.39c0-2.85-.66-5.58-1.97-8.1ZM11.62,9.23c.19,0,.34.15.34.34s-.15.34-.34.34-.34-.15-.34-.34.15-.34.34-.34ZM11.6,10.65c0-.19.15-.34.34-.34s.34.15.34.34-.15.34-.34.34-.34-.15-.34-.34ZM11.74,11.39c0,.19-.15.34-.34.34s-.34-.15-.34-.34.15-.34.34-.34.34.15.34.34ZM11.3,10.26c0,.19-.15.34-.34.34s-.34-.15-.34-.34.15-.34.34-.34.34.15.34.34ZM10.52,11.33c-.19,0-.34-.15-.34-.34s.15-.34.34-.34.34.15.34.34-.15.34-.34.34ZM10.84,11.94c0,.19-.15.34-.34.34s-.34-.15-.34-.34.15-.34.34-.34.34.15.34.34ZM10.18,9.23c0-.19.15-.34.34-.34s.34.15.34.34-.15.34-.34.34-.34-.15-.34-.34ZM11.06,1.07s0,0,0,.01c-.12.21-.32.4-.53.55,0,0-.4-.34-.53-.55,0,0,0,0,0-.01h1.06ZM9.98,9.91c.19,0,.34.15.34.34s-.15.34-.34.34-.34-.15-.34-.34.15-.34.34-.34ZM9.59,11.04c.19,0,.34.15.34.34s-.15.34-.34.34-.34-.15-.34-.34.15-.34.34-.34ZM9.1,10.99c-.19,0-.34-.15-.34-.34s.15-.34.34-.34.34.15.34.34-.15.34-.34.34ZM9.38,9.23c.19,0,.34.15.34.34s-.15.34-.34.34-.34-.15-.34-.34.15-.34.34-.34ZM1.07,3.61c0-1.4,1.14-2.54,2.54-2.54h3.46c-.66.57-1.03,1.41-1.14,2.26-.12.89.05,1.78.45,2.58.33.67.78,1.25,1.33,1.76.38.35.74.69,1.05,1.1.04.06.09.12.13.18-.06-.04-.12-.08-.17-.12-.41-.31-.75-.68-1.1-1.05-.51-.55-1.08-1.01-1.76-1.34-.81-.4-1.69-.57-2.58-.45-.83.11-1.64.45-2.2,1.07v-3.45ZM1.07,10.09c.19.12.36.3.5.49,0,0-.29.35-.5.49v-.99ZM1.18,25.24c-.06-.61-.09-1.22-.1-1.84h4.69c-.18.13-.36.27-.53.42-.14.12-.27.24-.39.37-.25.24-.5.48-.67.77-.04.06-.08.14-.05.21.04.1.18.12.3.13.07,0,.14.03.21.05-.16.1-.33.17-.52.2-.29.04-.55.01-.57.01-1.77-.22-1.36-.15-1.73-.21-.1-.02-.35-.06-.64-.1ZM22.31,44.62c-3.25-.04-6.33-.8-9.08-2.13.16-.1.34-.23.55-.39.39-.29.46-.42,1.11-.97.42-.35.63-.53.77-.62.33-.2,1.01-.48,2.29-.18-.04.03-.05.06-.1.08-.05.02-.1.04-.15.06-.06.02-.11.06-.15.1-.03.02-.05.05-.07.08-.03.07,0,.16.03.23.01.02.02.05.04.07.14.18.31.34.49.48.18.13.36.25.54.37.08.05.16.1.26.1.1,0,.19-.04.26-.1.24-.16.42-.39.58-.62.16-.23.29-.48.46-.71.04-.05.13-.16.28-.22.11-.04.2-.03.22-.03.22,0,.95-.11,1.66-.24v4.64ZM22.31,27.07c-1.67-.21-1.29-.14-1.65-.2-.26-.05-1.72-.31-1.93-.07-.04.04-.06.09-.06.09-.08.16,0,.33,0,.37.11.3-.03.6.27,1.72.31,1.19.47,1.78.86,1.87.31.07.64-.17,1.27-.63.39-.29.46-.42,1.11-.97.05-.04.09-.08.13-.11v5.92s0,0,0,0c0,0,0,.02,0,.03v.14c-.03.07-.08.13-.16.14-.02,0-.03,0-.05.02-.01.01-.01.03-.01.05,0,.14-.13.27-.27.3,0,.05-.02.11-.05.16-.17.01-.3-.1-.44-.19-.28-.18-.59-.32-.91-.46-.04-.02-.09-.04-.13-.05-.05,0-.1,0-.15,0-.33.03-.63.22-.91.4-.38.25-.77.48-1.17.71-.46.26-.87.55-1.27.9-.14.12-.27.24-.39.37-.25.24-.5.48-.67.77-.04.06-.08.14-.05.21.04.1.18.12.3.13.07,0,.14.03.21.05-.16.1-.33.17-.52.2-.29.04-.55.01-.57.01-1.77-.22-1.36-.15-1.73-.21-.26-.05-1.72-.31-1.93-.07-.04.04-.06.09-.06.09-.08.16,0,.33,0,.37.11.3-.03.6.27,1.72.1.37.18.68.26.94-2.28-1.31-4.3-3.01-5.96-5.03.6-.11,1.23-.23,1.58-.31.59-.13,1.4-.34,2.37-.7l-.62.36c-.1.13-.17.28-.15.44,0,.06.03.12.05.17.09.26.18.51.27.77.02.05.04.1.09.12.05.01.1-.02.14-.05.26-.19.46-.45.61-.73.15-.28.25-.57.35-.86.06-.17.12-.34.18-.52.03,0,.08-.02.11-.03.8-.36,1.6-.72,2.41-1.07.47-.2.84-.39,1.1-.54.99-.55.89-.68,1.89-1.46.06-.05.24-.19.24-.36,0,0,0-.13-.08-.16-.08-.04-.19.04-.25.08-.44.3-.85.86-.93.83-.06-.03.09-.44.15-.59.14-.34.3-.55.38-.64.05-.06.09-.1.12-.13.01-.01.01-.03,0-.04,0-.01-.03-.02-.05-.02-.3-.02-.76-.05-1.31-.08-1.19-.05-2.23-.09-3.5.03-.4.04-.97.11-1.67.24-.36-.29-.73-.58-1.12-.84-.02-.01-.04-.02-.06-.03-.07-.01-.12.06-.15.13-.23-.16-.46-.31-.72-.42.02.06,0,.13-.05.17s-.12.05-.18.03c0,.12-.12.23-.25.23,0,.06-.03.12-.07.16-.05.04-.11.07-.16.1.04.12-.03.28-.16.34.04.09.03.19-.03.27-.06.08-.15.14-.25.14.07.11-.01.28-.15.31-.02,0-.03,0-.05.02-.01.01-.01.03-.01.05,0,.14-.13.27-.27.3,0,.05-.02.11-.05.16-.17.01-.3-.1-.44-.19-.28-.18-.59-.32-.91-.46-.04-.02-.09-.04-.13-.05-.05,0-.1,0-.15,0-.33.03-.63.22-.91.4,0,0-.02,0-.02.01-.52-1.08-.94-2.22-1.27-3.39.1-.07.21-.16.34-.25.39-.29.46-.42,1.11-.97.42-.35.63-.53.77-.62.33-.2,1.01-.48,2.29-.18-.04.03-.05.06-.1.08-.05.02-.1.04-.15.06-.06.02-.11.06-.15.1-.03.02-.05.05-.07.08-.03.07,0,.16.03.23.01.02.02.05.04.07.14.18.31.34.49.48.18.13.36.25.54.37.08.05.16.1.26.1.1,0,.19-.04.26-.1.24-.16.42-.39.58-.62s.29-.48.46-.71c.04-.05.13-.16.28-.22.11-.04.2-.03.22-.03.38.02,2.24-.34,2.95-.49.59-.13,1.4-.34,2.37-.7l-.62.36c-.1.13-.17.28-.15.44,0,.06.03.12.05.17.09.26.18.51.27.77.02.05.04.1.09.12.05.01.1-.02.14-.05.26-.19.46-.45.61-.73s.25-.57.35-.86c.06-.17.12-.34.18-.52.03,0,.08-.02.11-.03.8-.36,1.6-.72,2.41-1.07.47-.2.84-.39,1.1-.54.21-.12.37-.21.5-.3h2.85v3.67ZM22.31,22.31H1.07v-8.2c.57.62,1.37.96,2.2,1.07.89.12,1.78-.05,2.58-.45.67-.33,1.25-.78,1.76-1.33.35-.38.69-.74,1.1-1.05.05-.04.11-.08.16-.12-.04.05-.08.11-.12.16-.31.41-.68.76-1.05,1.1-.55.51-1,1.08-1.33,1.76-.39.81-.57,1.69-.45,2.58.12.9.51,1.78,1.23,2.34.72.57,1.68.74,2.58.59.05,0,.09-.02.14-.03-.09-.22.01-.46.12-.65.12-.21.53-.55.53-.55.21.15.41.34.53.55.11.19.22.43.12.65.05,0,.09.02.14.03.9.15,1.85-.02,2.58-.59.72-.57,1.11-1.45,1.23-2.34.12-.89-.06-1.78-.45-2.58-.33-.67-.79-1.25-1.34-1.76-.38-.35-.74-.69-1.05-1.1-.04-.06-.08-.11-.12-.17.06.04.12.08.18.13.41.31.76.68,1.1,1.05.51.55,1.08,1,1.76,1.33.81.39,1.69.57,2.58.45.9-.12,1.78-.51,2.34-1.23.57-.72.74-1.68.59-2.58,0-.05-.02-.09-.03-.14-.22.09-.46-.01-.65-.12-.21-.12-.55-.53-.55-.53.15-.21.34-.41.55-.53.19-.11.43-.22.65-.12,0-.05.02-.09.03-.14.15-.9-.02-1.85-.59-2.58-.57-.72-1.45-1.11-2.34-1.23-.89-.12-1.78.06-2.58.45-.67.33-1.25.79-1.76,1.34-.35.38-.69.74-1.1,1.05-.06.05-.12.09-.18.13.04-.06.09-.12.13-.18.31-.41.68-.75,1.05-1.1.55-.51,1.01-1.08,1.34-1.76.4-.81.57-1.69.45-2.58-.11-.86-.47-1.7-1.14-2.26h8.33v21.23ZM23.39,21.71c1.39-.35,5.37-1.52,6.63-1.93,1.73-.57,4.39-1.52,4.7-3.52.05-.39-.11-.67-.32-1-.13-.21-.3-.48-.4-.85-.05-.19-.06-.4-.04-.61.05-.48.35-.88.65-1.23.65-.75,1.43-1.32,2.28-1.78-1.38-1.28-2.61-2.96-4.05-4.15-.56-.46-1.17-.85-1.81-.91-.83-.07-1.63.4-2.36.94-1.97,1.43-3.75,3.33-5.26,5.59V1.07h4.6c6.44,0,12.02,3.66,14.79,9.02-.46-.27-.96-.47-1.48-.51-.83-.06-1.63.32-2.36.74-.51.29-1,.61-1.49.95,0,0,0,0,0,0-.74.57-1.4,1.22-1.88,2.01-.09.15-.2.34-.24.5-.01.05-.02.09,0,.13.07.15.14.23.32.44.56.59.88,1.24.91,2.07.03.76-.21,1.54-.54,2.17-.89,1.7-2.52,2.81-4.13,3.71h-3.75c1.29-.48,2.56-1,3.79-1.61,1.62-.82,3.38-2.05,3.71-3.96.04-.23.05-.48.01-.71-.03-.24-.1-.47-.21-.68-.21-.42-.58-.73-.73-1.17-.15-.45.14-.88.4-1.24.27-.37.58-.72.93-1.03.36-.31.74-.6,1.13-.85-.01-.01-.02-.02-.04-.03-1.02.65-1.9,1.44-2.45,2.47-.23.47,0,.95.29,1.33.13.19.28.37.38.57.13.25.2.53.21.81,0,.16,0,.35-.03.51-.56,2.78-3.89,3.97-6.23,4.93-.59.23-1.19.45-1.8.66h-4.12v-.6ZM44.63,34.71c-1.4-.46-2.92-.65-4.37-.19-.07.03-.18.06-.25.09-.43.15-.79.38-1.06.75-.38.58-.69,1.12-1,1.7-.15.27-.34.54-.56.74-.11.06-.19.2-.33.23-.11.03-.18.06-.25.09-.32.05-.63,0-.94-.12-.31-.16-.54-.34-.81-.57-.17-.15-.3-.3-.43-.48-.23-.29-.37-.73-.14-1.03.06-.08.15-.14.26-.16.44-.1,1.85-.33,2.57-.76.65-.39,1.17-.85,1.45-1.51.47-1.23.27-2.93-.61-3.96.41-.03,1.03.22,1.41.34,1.34.42,2.81.96,4.21.48-.28.02-.55.02-.83.02-.97-.01-1.96-.17-2.81-.66.47.1.96.09,1.44.07.35-.01.7-.05,1.02-.18-.02.02.04,0,.22-.1-2,.51-4.14-.16-5.65-1.53-.65-.38-1.41-.6-2.14-.6-.46.01-.88.1-1.34.18-.1.03-.21.06-.31.09-.32.13-.65.18-.97.34-.15.1-.32.16-.47.26-1.73.19-5.23.78-5.26.78-.81.13-1.56.27-2.34.44.16.29,4.89.57,4.97.57.11,0,.22,0,.33,0,.8,0,1.6-.01,2.4-.02,1.05.1,1.68.27,2.07.41.1.04.24.09.46.16.73.23.87.17,1.15.32.07.04.58.33.7.91.08.38-.06.86-.38,1.15-.26.23-.61.18-.88.03-.37-.23-.71-.53-1.17-.52-.7.07-1.18.54-1.6,1.08-.42.64-.66,1.33-.74,2.1-.06,1.08.21,2.11.68,3.08l.1.11c.07.15.09.31.21.42.03.04.06.07.09.11.87,1.47,2.08,2.47,3.46,3.31.17.08.38.09.6.09-.1-.04-.19-.11-.25-.19.26.05.44.27.64.43.24.18.52.31.81.38-.25-.18-.48-.39-.69-.61.47.33.96.65,1.52.78-.17-.1-.32-.23-.44-.39.61.26,1.07.85,1.75.95-.44-.23-.83-.53-1.17-.89.48.13.87.47,1.27.75-.01-.04-.02-.09-.03-.13.26.29.55.55.86.79h-17.68v-21.23h21.24v11.31Z"/>
  </g>
</svg>