<?xml version="1.0" encoding="UTF-8"?>
<svg id="Layer_2" data-name="Layer 2" xmlns="http://www.w3.org/2000/svg" viewBox="0 0 38.04 38.04">
  <defs>
    <style>
      .cls-1 {
        fill: #578e40;
      }

      .cls-1, .cls-2, .cls-3, .cls-4, .cls-5 {
        stroke-width: 0px;
      }

      .cls-2 {
        fill: #f5933b;
      }

      .cls-3 {
        fill: #183c68;
      }

      .cls-4 {
        fill: #fff;
      }

      .cls-5 {
        fill: #864198;
      }
    </style>
  </defs>
  <g id="Layer_1-2" data-name="Layer 1">
    <g>
      <path class="cls-4" d="M18.8,38.04c-.05,0-.25,0-.25,0-2.79-.04-5.46-.66-7.94-1.86-.36-.17-.73-.37-1.15-.61-2-1.14-3.75-2.62-5.2-4.39-.97-1.18-1.79-2.48-2.45-3.86-.45-.94-.82-1.94-1.11-2.97-.3-1.07-.51-2.16-.61-3.24-.05-.51-.08-1.05-.09-1.61,0,0,0-.19,0-.24V3C0,1.35,1.35,0,3,0h20.3c5.54,0,10.56,3.06,13.1,7.99,1.09,2.1,1.64,4.37,1.64,6.75v20.3c0,1.66-1.35,3-3,3h-16.23Z"/>
      <path class="cls-4" d="M35.61,8.4c-2.3-4.46-6.95-7.51-12.31-7.51H3C1.84.89.89,1.84.89,3v16.24c0,.08,0,.16,0,.23,0,.52.03,1.03.08,1.53.1,1.06.3,2.09.58,3.09.28.98.63,1.92,1.06,2.83.63,1.32,1.41,2.56,2.33,3.68,1.38,1.68,3.06,3.1,4.96,4.19.36.2.72.4,1.09.58,2.29,1.11,4.85,1.74,7.56,1.78.08,0,.16,0,.23,0h16.23c1.17,0,2.11-.95,2.11-2.11V14.73c0-2.28-.56-4.44-1.54-6.34Z"/>
      <g>
        <path class="cls-5" d="M9.49,9.19c-.16,0-.28.13-.28.28s.13.28.28.28.28-.13.28-.28-.13-.28-.28-.28Z"/>
        <path class="cls-5" d="M9.67,8.25c.16,0,.28-.13.28-.28s-.13-.28-.28-.28-.28.13-.28.28.13.28.28.28Z"/>
        <path class="cls-5" d="M8.76,7.97c.16,0,.28-.13.28-.28s-.13-.28-.28-.28-.28.13-.28.28.13.28.28.28Z"/>
        <path class="cls-5" d="M9.65,8.86c0,.16.13.28.28.28s.28-.13.28-.28-.13-.28-.28-.28-.28.13-.28.28Z"/>
        <path class="cls-5" d="M1.31,8.81c-.12-.16-.26-.31-.42-.41v.82c.17-.12.42-.41.42-.41Z"/>
        <path class="cls-5" d="M7.81,8.25c.16,0,.28-.13.28-.28s-.13-.28-.28-.28-.28.13-.28.28.13.28.28.28Z"/>
        <path class="cls-5" d="M8.76,1.36c.17-.13.34-.28.44-.46,0,0,0,0,0,0h-.89s0,0,0,.01c.1.17.44.46.44.46Z"/>
        <path class="cls-5" d="M4.88,5.36c.56.28,1.04.65,1.46,1.11.29.31.57.62.92.88.05.04.09.07.14.1-.03-.05-.07-.1-.11-.15-.26-.34-.56-.63-.87-.92-.46-.42-.84-.9-1.11-1.46-.33-.67-.47-1.41-.37-2.15.09-.71.4-1.41.95-1.88h-2.88C1.84.89.89,1.84.89,3v2.87c.47-.52,1.15-.8,1.83-.89.74-.1,1.48.05,2.15.37Z"/>
        <path class="cls-5" d="M7.58,9.15c.16,0,.28-.13.28-.28s-.13-.28-.28-.28-.28.13-.28.28.13.28.28.28Z"/>
        <path class="cls-5" d="M8.84,8.54c0,.16.13.28.28.28s.28-.13.28-.28-.13-.28-.28-.28-.28.13-.28.28Z"/>
        <path class="cls-5" d="M18.57.89h-6.93c.55.47.86,1.17.95,1.88.1.74-.05,1.48-.37,2.15-.28.56-.65,1.04-1.11,1.46-.31.29-.62.57-.88.92-.04.05-.07.1-.11.15.05-.04.1-.07.15-.11.34-.26.63-.56.92-.88.42-.46.9-.84,1.46-1.11.67-.33,1.41-.47,2.15-.37.75.1,1.48.42,1.95,1.02.47.6.62,1.4.49,2.14,0,.04-.01.08-.02.12-.18-.08-.38,0-.54.1-.17.1-.33.26-.46.44,0,0,.28.34.46.44.16.09.36.18.54.1,0,.04.02.08.02.12.13.75-.02,1.54-.49,2.14-.47.6-1.2.93-1.95,1.03-.74.1-1.48-.04-2.15-.37-.56-.27-1.04-.65-1.46-1.11-.29-.31-.58-.62-.92-.87-.05-.04-.1-.07-.15-.11.03.05.07.1.1.14.26.34.56.63.88.92.46.42.84.9,1.11,1.46.33.67.47,1.41.37,2.15-.1.75-.42,1.48-1.02,1.95-.6.47-1.4.62-2.14.49-.04,0-.08-.01-.12-.02.08-.18,0-.38-.1-.54-.1-.17-.26-.33-.44-.46,0,0-.34.28-.44.46-.09.16-.18.36-.1.54-.04,0-.08.02-.12.02-.75.13-1.54-.02-2.14-.49-.6-.47-.93-1.2-1.03-1.95-.1-.74.04-1.48.37-2.15.27-.56.65-1.04,1.11-1.46.31-.29.62-.58.87-.92.03-.04.07-.09.1-.14-.05.03-.09.06-.14.1-.34.26-.63.56-.92.87-.42.46-.9.84-1.46,1.11-.67.33-1.41.47-2.15.37-.69-.09-1.36-.38-1.83-.89v6.82h17.67V.89Z"/>
        <path class="cls-5" d="M7.99,9.19c-.16,0-.28.13-.28.28s.13.28.28.28.28-.13.28-.28-.13-.28-.28-.28Z"/>
        <path class="cls-5" d="M8.76,8.86c-.16,0-.28.13-.28.28s.13.28.28.28.28-.13.28-.28-.13-.28-.28-.28Z"/>
        <path class="cls-5" d="M8.74,9.65c-.16,0-.28.13-.28.28s.13.28.28.28.28-.13.28-.28-.13-.28-.28-.28Z"/>
        <path class="cls-5" d="M8.3,8.82c.16,0,.28-.13.28-.28s-.13-.28-.28-.28-.28.13-.28.28.13.28.28.28Z"/>
        <path class="cls-3" d="M2.95,21.27s.23.03.47,0c.16-.02.3-.08.43-.16-.06-.02-.12-.03-.18-.04-.1-.01-.22-.03-.25-.11-.02-.06,0-.12.04-.17.15-.24.35-.44.56-.64.11-.1.21-.21.33-.31.14-.13.29-.24.44-.35H.9c0,.52.03,1.03.08,1.53.24.03.45.07.53.08.31.05-.03,0,1.44.18Z"/>
        <path class="cls-3" d="M2.64,26.91c.23-.15.48-.31.76-.34.04,0,.08,0,.13,0,.04,0,.08.02.11.04.26.11.52.23.75.38.11.07.22.17.36.16.02-.04.03-.09.04-.13.12-.03.22-.13.23-.25,0-.01,0-.03.01-.04,0,0,.02-.01.04-.01.11-.02.18-.17.12-.26.08,0,.17-.05.21-.12.05-.07.05-.15.02-.23.11-.05.17-.18.13-.28.05-.02.1-.05.14-.08.04-.04.07-.09.06-.14.11,0,.21-.09.21-.19.05.02.11.01.15-.02.04-.03.06-.09.04-.14.22.09.41.22.6.35.02-.05.06-.11.12-.1.02,0,.03.01.05.02.33.21.63.45.93.7.58-.11,1.06-.17,1.39-.2,1.06-.1,1.92-.07,2.91-.02.46.02.84.05,1.09.06.01,0,.03,0,.04.02s0,.03,0,.04c-.03.03-.06.06-.1.11-.07.08-.2.25-.32.53-.05.13-.18.47-.12.49.07.03.41-.44.77-.69.05-.04.15-.1.21-.07.06.03.07.12.07.13,0,.14-.15.26-.2.3-.84.65-.75.76-1.58,1.21-.22.12-.53.28-.92.45-.67.3-1.33.6-2,.89-.03,0-.07.02-.09.02-.05.14-.1.29-.15.43-.08.24-.17.49-.29.72-.12.23-.29.45-.51.6-.03.02-.08.05-.12.04-.04-.01-.06-.06-.08-.1-.07-.21-.15-.43-.22-.64-.02-.05-.03-.09-.04-.14-.02-.13.04-.26.12-.36l.51-.3c-.8.3-1.48.47-1.97.58-.29.06-.82.17-1.32.26,1.38,1.68,3.06,3.1,4.96,4.19-.07-.21-.13-.47-.22-.78-.25-.94-.13-1.19-.22-1.44-.01-.04-.07-.17,0-.31,0,0,.02-.04.05-.08.18-.2,1.39.02,1.61.06.31.05-.03,0,1.44.18.01,0,.23.03.47,0,.16-.02.3-.08.43-.16-.06-.02-.12-.03-.18-.04-.1-.01-.22-.03-.25-.11-.02-.06,0-.12.04-.17.15-.24.35-.44.56-.64.11-.1.21-.21.33-.31.33-.29.67-.53,1.05-.75.33-.19.65-.39.97-.59.23-.15.48-.31.76-.34.04,0,.08,0,.13,0,.04,0,.08.02.11.04.26.11.52.23.75.38.11.07.22.17.36.16.02-.04.03-.09.04-.13.12-.03.22-.13.23-.25,0-.01,0-.03.01-.04,0,0,.02-.01.04-.01.06-.01.11-.06.13-.12v-.12s0-.02,0-.02c0,0,0,0,0,0v-4.93s-.07.06-.11.09c-.54.46-.6.57-.93.8-.52.38-.79.58-1.05.53-.32-.07-.45-.57-.71-1.56-.25-.94-.13-1.19-.22-1.44-.01-.04-.07-.17,0-.31,0,0,.02-.04.05-.08.18-.2,1.39.02,1.61.06.3.05-.02,0,1.37.17v-3.06h-2.38c-.11.07-.24.15-.42.25-.22.12-.53.28-.92.45-.67.3-1.33.6-2,.89-.03,0-.07.02-.09.02-.05.14-.1.29-.15.43-.08.24-.17.49-.29.72-.12.23-.29.45-.51.6-.03.02-.08.05-.12.04-.04-.01-.06-.06-.08-.1-.07-.21-.15-.43-.22-.64-.02-.05-.03-.09-.04-.14-.02-.13.04-.26.12-.36l.51-.3c-.8.3-1.48.47-1.97.58-.59.13-2.14.42-2.45.41-.02,0-.1,0-.18.03-.13.05-.2.14-.23.18-.14.19-.25.4-.38.59-.13.2-.28.38-.48.52-.07.04-.14.08-.22.08-.08,0-.15-.04-.21-.09-.15-.1-.3-.2-.45-.31-.15-.11-.29-.25-.41-.4-.01-.02-.02-.04-.03-.06-.03-.06-.05-.13-.02-.19.01-.03.03-.05.06-.07.04-.03.08-.06.13-.08.04-.02.08-.03.12-.05.04-.02.05-.04.08-.07-1.07-.25-1.64-.01-1.91.15-.12.07-.29.22-.64.51-.54.46-.6.57-.93.8-.1.08-.2.15-.28.21.28.98.63,1.92,1.06,2.83,0,0,.01,0,.02-.01Z"/>
        <path class="cls-3" d="M17.18,33.48s-.1,0-.18.03c-.13.05-.2.14-.23.18-.14.19-.25.4-.38.59-.13.2-.28.38-.48.52-.07.04-.14.08-.22.08-.08,0-.15-.04-.21-.09-.15-.1-.3-.2-.45-.31-.15-.11-.29-.25-.41-.4-.01-.02-.02-.04-.03-.06-.03-.06-.05-.13-.02-.19.01-.03.03-.05.06-.07.04-.03.08-.06.13-.08.04-.02.08-.03.12-.05.04-.02.05-.04.08-.07-1.07-.25-1.64-.01-1.91.15-.12.07-.29.22-.64.51-.54.46-.6.57-.93.8-.18.13-.33.24-.46.33,2.29,1.11,4.85,1.74,7.56,1.78v-3.86c-.59.11-1.2.21-1.38.2Z"/>
        <path class="cls-2" d="M23.3.89h-3.83v9.32c1.25-1.88,2.74-3.47,4.38-4.66.61-.44,1.28-.84,1.97-.78.54.05,1.05.37,1.51.76,1.2.99,2.22,2.39,3.37,3.46-.7.38-1.35.86-1.89,1.48-.25.29-.5.62-.54,1.02-.02.17,0,.35.03.51.08.31.22.53.33.71.18.27.31.51.27.83-.26,1.66-2.47,2.46-3.91,2.93-1.05.34-4.36,1.32-5.52,1.61v.5h3.43c.5-.18,1-.36,1.49-.55,1.95-.8,4.72-1.79,5.19-4.1.03-.13.03-.29.03-.42-.01-.23-.06-.47-.17-.68-.08-.17-.2-.32-.32-.48-.24-.32-.43-.71-.24-1.1.46-.85,1.2-1.52,2.04-2.06.01,0,.02.02.03.03-.33.22-.65.45-.94.71-.29.26-.55.54-.77.85-.21.29-.46.65-.33,1.03.12.37.43.63.61.98.1.17.15.37.18.56.03.19.02.4-.01.59-.28,1.6-1.74,2.62-3.09,3.3-1.03.5-2.08.94-3.15,1.34h3.12c1.34-.75,2.7-1.68,3.44-3.09.28-.53.47-1.18.45-1.81-.02-.69-.29-1.24-.76-1.73-.15-.17-.21-.24-.27-.36-.01-.03,0-.07,0-.11.03-.13.13-.29.2-.42.4-.65.94-1.2,1.56-1.67,0,0,0,0,0,0,.4-.28.81-.55,1.24-.79.61-.35,1.28-.66,1.97-.62.43.03.84.2,1.23.43-2.3-4.46-6.95-7.51-12.31-7.51Z"/>
        <path class="cls-1" d="M19.47,19.47v17.67h14.72c-.26-.2-.5-.41-.72-.65,0,.04.02.07.03.11-.34-.23-.66-.51-1.06-.63.28.3.61.55.97.74-.57-.09-.95-.58-1.46-.79.1.13.22.24.36.32-.47-.11-.88-.37-1.27-.65.18.19.37.36.57.51-.24-.06-.47-.16-.67-.31-.17-.13-.31-.31-.53-.36.06.07.13.13.21.16-.18,0-.36,0-.5-.07-1.15-.7-2.16-1.53-2.88-2.76-.02-.03-.05-.06-.07-.09-.1-.09-.12-.22-.18-.35l-.08-.09c-.4-.81-.62-1.67-.57-2.57.06-.64.27-1.21.61-1.75.34-.45.74-.84,1.33-.89.38,0,.66.24.97.43.23.13.52.17.73-.02.27-.24.38-.64.31-.96-.1-.48-.53-.73-.58-.75-.24-.13-.35-.07-.96-.27-.19-.06-.31-.11-.39-.14-.32-.12-.85-.26-1.73-.34-.67,0-1.33,0-2,.01-.09,0-.18,0-.27,0-.07,0-4-.24-4.14-.48.65-.14,1.27-.26,1.94-.37.03,0,2.94-.49,4.38-.65.12-.08.27-.13.39-.21.27-.13.54-.18.81-.28.09-.02.17-.05.26-.07.38-.07.74-.14,1.12-.15.61,0,1.25.18,1.78.5,1.25,1.14,3.04,1.7,4.7,1.28-.15.09-.2.1-.18.09-.27.11-.56.14-.85.15-.4.01-.81.02-1.2-.06.71.4,1.53.54,2.34.55.23,0,.46,0,.69-.02-1.17.4-2.39-.05-3.5-.4-.32-.1-.83-.3-1.17-.28.73.86.9,2.28.51,3.3-.23.55-.66.93-1.2,1.25-.6.35-1.77.55-2.14.63-.08.02-.16.07-.21.14-.19.25-.07.62.12.86.11.15.22.27.36.4.22.19.42.34.68.47.26.1.52.14.78.1.06-.03.12-.05.21-.08.12-.02.18-.14.27-.19.18-.17.34-.39.47-.62.26-.48.51-.94.83-1.42.22-.31.52-.5.88-.63.06-.03.15-.05.21-.08,1.2-.38,2.47-.22,3.64.16v-9.42h-17.68Z"/>
      </g>
    </g>
  </g>
</svg>