<?xml version="1.0" encoding="UTF-8"?>
<svg id="Layer_2" data-name="Layer 2" xmlns="http://www.w3.org/2000/svg" viewBox="0 0 45.7 60.72">
  <defs>
    <style>
      .cls-1 {
        fill: #578e40;
      }

      .cls-1, .cls-2, .cls-3, .cls-4, .cls-5 {
        stroke-width: 0px;
      }

      .cls-2 {
        fill: #f5933b;
      }

      .cls-3 {
        fill: #183c68;
      }

      .cls-4 {
        fill: #fff;
      }

      .cls-5 {
        fill: #864198;
      }
    </style>
  </defs>
  <g id="Layer_1-2" data-name="Layer 1">
    <g>
      <g>
        <path class="cls-4" d="M22.59,45.7c-.06,0-.29,0-.29,0-3.35-.04-6.56-.8-9.54-2.24-.43-.21-.88-.45-1.38-.73-2.4-1.37-4.5-3.15-6.25-5.28-1.16-1.42-2.16-2.98-2.94-4.64-.54-1.13-.99-2.33-1.33-3.56-.36-1.29-.61-2.6-.74-3.9-.06-.61-.1-1.26-.1-1.93,0,0,0-.23,0-.29V3.61C0,1.62,1.62,0,3.61,0h24.39c6.65,0,12.68,3.68,15.74,9.6,1.3,2.53,1.97,5.25,1.97,8.1v24.39c0,1.99-1.62,3.61-3.61,3.61h-19.51Z"/>
        <path class="cls-4" d="M42.78,10.09c-2.76-5.36-8.34-9.02-14.79-9.02H3.61c-1.4,0-2.54,1.14-2.54,2.54v19.51c0,.09,0,.19,0,.28,0,.62.04,1.24.1,1.84.12,1.27.37,2.51.7,3.71.33,1.17.75,2.31,1.27,3.39.76,1.59,1.7,3.07,2.8,4.42,1.66,2.02,3.68,3.72,5.96,5.03.43.25.87.48,1.31.7,2.75,1.33,5.83,2.09,9.08,2.13.09,0,.19,0,.28,0h19.51c1.4,0,2.54-1.14,2.54-2.54v-24.39c0-2.74-.67-5.33-1.85-7.61Z"/>
        <g>
          <path class="cls-5" d="M11.4,11.04c-.19,0-.34.15-.34.34s.15.34.34.34.34-.15.34-.34-.15-.34-.34-.34Z"/>
          <path class="cls-5" d="M11.62,9.92c.19,0,.34-.15.34-.34s-.15-.34-.34-.34-.34.15-.34.34.15.34.34.34Z"/>
          <path class="cls-5" d="M10.52,9.57c.19,0,.34-.15.34-.34s-.15-.34-.34-.34-.34.15-.34.34.15.34.34.34Z"/>
          <path class="cls-5" d="M11.6,10.65c0,.19.15.34.34.34s.34-.15.34-.34-.15-.34-.34-.34-.34.15-.34.34Z"/>
          <path class="cls-5" d="M1.57,10.58c-.14-.19-.31-.37-.5-.49v.99c.21-.15.5-.49.5-.49Z"/>
          <path class="cls-5" d="M9.38,9.92c.19,0,.34-.15.34-.34s-.15-.34-.34-.34-.34.15-.34.34.15.34.34.34Z"/>
          <path class="cls-5" d="M10.52,1.63c.21-.15.41-.34.53-.55,0,0,0,0,0-.01h-1.06s0,0,0,.01c.12.21.53.55.53.55Z"/>
          <path class="cls-5" d="M5.86,6.44c.67.33,1.25.79,1.76,1.34.35.38.69.74,1.1,1.05.06.04.11.08.17.12-.04-.06-.08-.12-.13-.18-.31-.41-.68-.76-1.05-1.1-.55-.51-1-1.08-1.33-1.76-.39-.81-.57-1.69-.45-2.59.11-.85.48-1.69,1.14-2.26h-3.46c-1.4,0-2.54,1.14-2.54,2.54v3.45c.57-.62,1.38-.96,2.2-1.07.89-.12,1.78.06,2.58.45Z"/>
          <path class="cls-5" d="M9.1,10.99c.19,0,.34-.15.34-.34s-.15-.34-.34-.34-.34.15-.34.34.15.34.34.34Z"/>
          <path class="cls-5" d="M10.62,10.26c0,.19.15.34.34.34s.34-.15.34-.34-.15-.34-.34-.34-.34.15-.34.34Z"/>
          <path class="cls-5" d="M22.31,1.07h-8.33c.67.57,1.03,1.41,1.14,2.26.12.89-.06,1.78-.45,2.58-.33.67-.79,1.25-1.34,1.76-.38.35-.74.69-1.05,1.1-.05.06-.09.12-.13.18.06-.04.12-.09.18-.13.41-.31.75-.68,1.1-1.05.51-.55,1.08-1.01,1.76-1.34.81-.4,1.69-.57,2.58-.45.9.12,1.78.5,2.34,1.23.57.72.74,1.68.59,2.58,0,.05-.02.09-.03.14-.22-.09-.46.01-.65.12-.21.12-.4.32-.55.53,0,0,.34.4.55.53.19.11.43.22.65.12,0,.05.02.09.03.14.15.9-.02,1.85-.59,2.58-.57.73-1.45,1.11-2.34,1.23-.89.12-1.78-.05-2.59-.45-.67-.33-1.25-.78-1.76-1.33-.35-.38-.69-.74-1.1-1.05-.06-.04-.12-.09-.18-.13.04.06.08.12.12.17.31.41.68.75,1.05,1.1.55.51,1.01,1.08,1.34,1.76.4.81.57,1.69.45,2.58-.12.9-.5,1.78-1.23,2.34-.72.57-1.68.74-2.58.59-.05,0-.09-.02-.14-.03.09-.22-.01-.46-.12-.65-.12-.21-.32-.4-.53-.55,0,0-.4.34-.53.55-.11.19-.22.43-.12.65-.05,0-.09.02-.14.03-.9.15-1.85-.02-2.58-.59-.73-.57-1.11-1.45-1.23-2.34-.12-.89.05-1.78.45-2.59.33-.67.78-1.25,1.33-1.76.38-.35.74-.69,1.05-1.1.04-.05.08-.11.12-.16-.05.04-.11.08-.16.12-.41.31-.76.68-1.1,1.05-.51.55-1.08,1-1.76,1.33-.81.39-1.69.57-2.59.45-.82-.11-1.63-.45-2.2-1.07v8.2h21.24V1.07Z"/>
          <path class="cls-5" d="M9.59,11.04c-.19,0-.34.15-.34.34s.15.34.34.34.34-.15.34-.34-.15-.34-.34-.34Z"/>
          <path class="cls-5" d="M10.52,10.65c-.19,0-.34.15-.34.34s.15.34.34.34.34-.15.34-.34-.15-.34-.34-.34Z"/>
          <path class="cls-5" d="M10.5,11.59c-.19,0-.34.15-.34.34s.15.34.34.34.34-.15.34-.34-.15-.34-.34-.34Z"/>
          <path class="cls-5" d="M9.98,10.6c.19,0,.34-.15.34-.34s-.15-.34-.34-.34-.34.15-.34.34.15.34.34.34Z"/>
          <path class="cls-3" d="M3.54,25.55s.27.03.57-.01c.19-.03.36-.09.52-.2-.07-.02-.14-.04-.21-.05-.12-.02-.26-.03-.3-.13-.02-.07.01-.14.05-.21.18-.29.43-.53.67-.77.13-.13.26-.25.39-.37.17-.15.35-.29.53-.42H1.08c0,.62.04,1.24.1,1.84.29.04.54.08.64.1.37.07-.04,0,1.73.21Z"/>
          <path class="cls-3" d="M3.17,32.33c.28-.18.58-.37.91-.4.05,0,.1,0,.15,0,.05,0,.09.03.13.05.31.14.62.27.91.46.14.09.27.2.44.19.02-.05.04-.1.05-.16.15-.03.26-.16.27-.3,0-.02,0-.03.01-.05.01-.01.03-.01.05-.02.14-.03.22-.2.15-.31.1,0,.2-.06.25-.14.06-.08.07-.19.03-.27.13-.06.2-.21.16-.34.06-.03.12-.06.16-.1.05-.04.08-.1.07-.16.13,0,.25-.11.25-.23.06.02.13.01.18-.03.05-.04.07-.11.05-.17.26.11.49.26.72.42.03-.06.08-.14.15-.13.02,0,.04.02.06.03.39.25.76.54,1.12.84.69-.13,1.27-.2,1.67-.24,1.27-.12,2.31-.08,3.5-.03.56.02,1.01.05,1.31.08.02,0,.04,0,.05.02s0,.03,0,.04c-.03.03-.08.08-.12.13-.08.09-.24.3-.38.64-.06.15-.21.56-.15.59.08.03.49-.53.93-.83.07-.05.18-.12.25-.08.08.03.08.15.08.16,0,.17-.18.31-.24.36-1,.78-.9.91-1.89,1.46-.26.14-.63.34-1.1.54-.8.36-1.6.72-2.41,1.07-.03,0-.08.02-.11.03-.06.17-.12.34-.18.52-.1.29-.2.59-.35.86-.15.28-.35.54-.61.73-.04.03-.09.06-.14.05-.05-.01-.08-.07-.09-.12-.09-.26-.18-.51-.27-.77-.02-.06-.04-.11-.05-.17-.02-.15.05-.31.15-.44l.62-.36c-.96.36-1.78.57-2.37.7-.35.08-.99.2-1.58.31,1.66,2.02,3.68,3.72,5.96,5.03-.08-.26-.16-.57-.26-.94-.3-1.13-.16-1.43-.27-1.72-.02-.04-.08-.21,0-.37,0,0,.02-.05.06-.09.21-.24,1.67.02,1.93.07.37.07-.04,0,1.73.21.02,0,.27.03.57-.01.19-.03.36-.09.52-.2-.07-.02-.14-.04-.21-.05-.12-.02-.26-.03-.3-.13-.02-.07.01-.14.05-.21.18-.29.43-.53.67-.77.13-.13.26-.25.39-.37.4-.34.81-.64,1.27-.9.4-.23.79-.46,1.17-.71.28-.18.58-.37.91-.4.05,0,.1,0,.15,0,.05,0,.09.03.13.05.31.14.62.27.91.46.14.09.27.2.44.19.02-.05.04-.1.05-.16.15-.03.26-.16.27-.3,0-.02,0-.03.01-.05.01-.01.03-.01.05-.02.08-.02.13-.08.16-.14v-.14s0-.02,0-.03c0,0,0,0,0,0v-5.92s-.08.07-.13.11c-.65.55-.72.68-1.11.97-.63.46-.95.7-1.27.63-.39-.09-.55-.68-.86-1.87-.3-1.13-.16-1.43-.27-1.72-.02-.04-.08-.21,0-.37,0,0,.02-.05.06-.09.21-.24,1.67.02,1.93.07.36.06-.02,0,1.65.2v-3.67h-2.85c-.13.09-.29.19-.5.3-.26.14-.63.34-1.1.54-.8.36-1.6.72-2.41,1.07-.03,0-.08.02-.11.03-.06.17-.12.34-.18.52-.1.29-.2.59-.35.86-.15.28-.35.54-.61.73-.04.03-.09.06-.14.05-.05-.01-.08-.07-.09-.12-.09-.26-.18-.51-.27-.77-.02-.06-.04-.11-.05-.17-.02-.15.05-.31.15-.44l.62-.36c-.96.36-1.78.57-2.37.7-.71.15-2.57.51-2.95.49-.02,0-.11,0-.22.03-.15.05-.24.17-.28.22-.17.23-.3.48-.46.71-.16.23-.34.46-.58.62-.08.05-.17.1-.26.1-.1,0-.18-.05-.26-.1-.18-.12-.37-.24-.54-.37-.18-.13-.35-.3-.49-.48-.02-.02-.03-.05-.04-.07-.03-.07-.06-.16-.03-.23.01-.03.04-.06.07-.08.05-.04.1-.07.15-.1.05-.02.1-.04.15-.06.04-.02.06-.05.1-.08-1.28-.3-1.97-.02-2.29.18-.15.09-.35.26-.77.62-.65.55-.72.68-1.11.97-.12.09-.24.17-.34.25.33,1.17.75,2.31,1.27,3.39,0,0,.02,0,.02-.01Z"/>
          <path class="cls-3" d="M20.64,40.22s-.11,0-.22.03c-.15.05-.24.17-.28.22-.17.23-.3.48-.46.71-.16.23-.34.46-.58.62-.08.05-.17.1-.26.1-.1,0-.18-.05-.26-.1-.18-.12-.37-.24-.54-.37-.18-.13-.35-.3-.49-.48-.02-.02-.03-.05-.04-.07-.03-.07-.06-.16-.03-.23.01-.03.04-.06.07-.08.05-.04.1-.07.15-.1.05-.02.1-.04.15-.06.04-.02.06-.05.1-.08-1.28-.3-1.97-.02-2.29.18-.15.09-.35.26-.77.62-.65.55-.72.68-1.11.97-.22.16-.4.29-.55.39,2.75,1.33,5.83,2.09,9.08,2.13v-4.64c-.71.13-1.44.25-1.66.24Z"/>
          <path class="cls-2" d="M28,1.07h-4.6v11.2c1.51-2.26,3.29-4.17,5.26-5.59.74-.53,1.54-1.01,2.36-.94.65.06,1.26.45,1.81.91,1.44,1.19,2.67,2.87,4.05,4.15-.85.46-1.63,1.03-2.28,1.78-.3.35-.6.74-.65,1.23-.03.2,0,.42.04.61.1.37.27.64.4.85.21.33.37.61.32,1-.31,2-2.97,2.95-4.7,3.52-1.26.41-5.24,1.58-6.63,1.93v.6h4.12c.6-.21,1.2-.43,1.8-.66,2.34-.96,5.67-2.15,6.23-4.93.03-.16.04-.35.03-.51-.01-.28-.08-.57-.21-.81-.1-.2-.24-.38-.38-.57-.29-.38-.52-.85-.29-1.33.55-1.03,1.44-1.82,2.45-2.47.01.01.02.02.04.03-.4.26-.78.54-1.13.85-.35.31-.66.65-.93,1.03-.26.35-.55.79-.4,1.24.14.44.52.76.73,1.17.12.21.18.44.21.68.03.23.02.48-.01.71-.34,1.92-2.09,3.14-3.72,3.96-1.23.61-2.5,1.13-3.79,1.61h3.75c1.61-.9,3.24-2.02,4.13-3.71.33-.64.56-1.41.54-2.18-.03-.83-.35-1.49-.91-2.07-.18-.21-.25-.29-.32-.44-.02-.04,0-.08,0-.13.04-.16.16-.35.24-.5.47-.78,1.13-1.44,1.88-2.01,0,0,0,0,0,0,.48-.34.98-.66,1.49-.95.74-.42,1.54-.8,2.36-.74.52.04,1.01.24,1.48.51-2.76-5.36-8.34-9.02-14.79-9.02Z"/>
          <path class="cls-1" d="M23.39,23.4v21.24h17.68c-.31-.24-.6-.5-.86-.79.01.04.02.09.03.13-.4-.28-.79-.62-1.27-.75.33.36.73.67,1.17.89-.68-.1-1.14-.69-1.75-.95.12.15.27.29.44.39-.56-.13-1.06-.45-1.52-.78.21.22.44.43.69.61-.29-.07-.57-.19-.81-.38-.2-.15-.38-.38-.64-.43.07.08.15.15.25.19-.22,0-.43,0-.6-.09-1.39-.84-2.59-1.84-3.46-3.31-.03-.04-.06-.07-.09-.11-.12-.11-.15-.27-.21-.42l-.1-.11c-.48-.97-.74-2-.68-3.08.07-.77.32-1.46.74-2.1.41-.54.89-1.01,1.6-1.08.46-.01.79.29,1.17.52.27.15.62.21.88-.03.32-.29.46-.77.38-1.15-.12-.58-.63-.87-.7-.91-.28-.15-.42-.09-1.15-.32-.23-.07-.37-.13-.46-.16-.39-.14-1.02-.31-2.07-.41-.8,0-1.6.01-2.4.02-.11,0-.22,0-.33,0-.08,0-4.81-.28-4.97-.57.78-.17,1.52-.31,2.34-.44.03,0,3.54-.59,5.26-.78.15-.1.32-.16.47-.26.33-.16.65-.21.97-.34.1-.03.21-.06.31-.09.46-.08.88-.17,1.34-.18.74,0,1.5.22,2.14.6,1.51,1.37,3.65,2.04,5.65,1.53-.18.11-.24.12-.22.1-.32.13-.68.17-1.02.18-.48.02-.97.02-1.44-.07.85.48,1.84.64,2.81.66.28,0,.55,0,.83-.02-1.4.48-2.87-.06-4.21-.48-.38-.12-1-.36-1.41-.34.88,1.03,1.08,2.73.61,3.96-.28.66-.79,1.12-1.45,1.51-.72.43-2.13.66-2.57.76-.1.02-.19.08-.26.16-.23.3-.09.74.14,1.03.13.18.26.33.43.48.27.22.5.41.81.57.31.12.62.17.94.12.07-.03.14-.06.25-.09.14-.03.22-.16.33-.23.22-.2.41-.47.56-.74.31-.58.62-1.13,1-1.7.26-.37.63-.6,1.06-.75.07-.03.18-.06.25-.09,1.45-.46,2.97-.26,4.37.19v-11.32h-21.24Z"/>
        </g>
      </g>
      <g>
        <path class="cls-3" d="M7.07,54.35l-1.39-.56c-.95-.38-1.67-.62-1.67-1.29,0-.62.54-.98,1.39-.98s1.55.3,2.27.85l1.25-1.55c-.94-.93-2.25-1.43-3.51-1.43-2.27,0-3.89,1.44-3.89,3.25,0,1.59,1.07,2.51,2.2,2.97l1.42.6c.95.39,1.57.61,1.57,1.3,0,.65-.5,1.05-1.53,1.05-.9,0-1.9-.46-2.68-1.14l-1.42,1.69c1.11,1.04,2.62,1.58,4.04,1.58,2.6,0,4.11-1.57,4.11-3.38,0-1.54-.83-2.43-2.16-2.97Z"/>
        <polygon class="cls-3" points="12.53 55.97 16.25 55.97 16.25 53.83 12.53 53.83 12.53 51.57 16.9 51.57 16.9 49.43 10.06 49.43 10.06 60.72 17.07 60.72 17.07 58.58 12.53 58.58 12.53 55.97"/>
        <path class="cls-3" d="M24.67,57.55c-.53.58-1.24,1.02-2.13,1.02-1.6,0-2.64-1.3-2.64-3.55s1.18-3.51,2.68-3.51c.79,0,1.38.36,1.93.87l1.3-1.58c-.73-.75-1.87-1.42-3.28-1.42-2.76,0-5.15,2.1-5.15,5.72s2.31,5.59,5.08,5.59c1.41,0,2.62-.55,3.52-1.6l-1.3-1.55Z"/>
        <path class="cls-3" d="M29.74,49.43l-3.43,11.28h2.52l.67-2.69h3.33l.67,2.69h2.61l-3.43-11.28h-2.95ZM30.01,56.03l.26-1.04c.3-1.13.59-2.45.86-3.64h.07c.29,1.18.58,2.51.89,3.64l.26,1.04h-2.33Z"/>
        <path class="cls-3" d="M42.45,54.35l-1.39-.56c-.95-.38-1.67-.62-1.67-1.29,0-.62.54-.98,1.39-.98s1.55.3,2.27.85l1.25-1.55c-.94-.93-2.25-1.43-3.51-1.43-2.27,0-3.89,1.44-3.89,3.25,0,1.59,1.07,2.51,2.2,2.97l1.42.6c.95.39,1.57.61,1.57,1.3,0,.65-.5,1.05-1.53,1.05-.9,0-1.9-.46-2.68-1.14l-1.42,1.69c1.11,1.04,2.62,1.58,4.04,1.58,2.6,0,4.11-1.57,4.11-3.38,0-1.54-.83-2.43-2.16-2.97Z"/>
      </g>
    </g>
  </g>
</svg>