<svg viewBox="0 0 50 50" xmlns="http://www.w3.org/2000/svg" xml:space="preserve" style="fill-rule:evenodd;clip-rule:evenodd;stroke-linejoin:round;stroke-miterlimit:2"><path d="M26.1 26.1v23.7h19.7c-.3-.3-1.8-1.4-2.3-1.6.4.4.8.8 1.3 1-.8 0-1.3-.7-2-1l.5.4a5 5 0 0 1-1.7-.9l.8.7c-.3 0-.6-.2-1-.4-.1-.2-.3-.4-.6-.5l.3.2h-.7c-1.6-1-2.9-2.1-3.9-3.8l-.3-.5-.1-.2a7 7 0 0 1-.8-3.4c.1-.9.4-1.6.8-2.3.5-.6 1-1.2 1.8-1.3.5 0 .9.4 1.3.6.3.2.7.3 1 0 .4-.3.5-.9.4-1.3-.1-.6-.7-1-.8-1-.3-.2-.4 0-1.2-.4L38 34c-.4-.2-1.1-.4-2.3-.5h-3c-.1 0-5.4-.3-5.6-.6l2.6-.5 6-.9.4-.3 1.1-.3.4-.1 1.5-.2c.8 0 1.6.2 2.4.6a7 7 0 0 0 6.3 1.7l-.3.2-1.1.2-1.6-.1c1 .5 2 .7 3.1.7h1c-1.6.5-3.3 0-4.8-.5-.4-.2-1-.4-1.5-.4 1 1.1 1.2 3 .6 4.4-.3.7-.9 1.3-1.6 1.7-.8.5-2.4.7-2.8.8l-.3.2c-.3.4-.1.8.1 1.2l.5.5c.3.2.6.5 1 .6.3.2.6.2 1 .1h.3l.3-.3c.3-.2.5-.5.6-.8l1.2-2c.3-.4.7-.6 1.1-.8h.3a8 8 0 0 1 4.9.1V26.1H26.1Z" style="fill:#578e40;fill-rule:nonzero" transform="matrix(2.11 0 0 2.11 -55 -55)"/></svg>